<?xml version="1.0" encoding="utf-8"?>
<!-- Generator: Adobe Illustrator 24.0.2, SVG Export Plug-In . SVG Version: 6.00 Build 0)  -->
<svg version="1.1" id="Layer_1" xmlns="http://www.w3.org/2000/svg" xmlns:xlink="http://www.w3.org/1999/xlink" x="0px" y="0px"
	 viewBox="0 0 1448 1080" style="enable-background:new 0 0 1448 1080;" xml:space="preserve">
<style type="text/css">
	.st0{fill:#0A2E4F;}
</style>
<path class="st0" d="M0.2,504.9"/>
<path class="st0" d="M141.1,295.1"/>
<line class="st0" x1="138.2" y1="725.2" x2="210.8" y2="652.7"/>
<g>
	<path class="st0" d="M1019.7,983.1c17.8,0,32.2-14.4,32.2-32.2s-14.4-32.2-32.2-32.2s-32.2,14.4-32.2,32.2S1002,983.1,1019.7,983.1
		z M1270.2,335.5h-64.3v64.4h64.3V335.5z"/>
	<path class="st0" d="M448.8,716.2v32.2 M432.7,732.3h32.2"/>
	<path class="st0" d="M892.8,178.4v12.1h-12.1v-12.1H892.8z M894.9,176.4h-16.1v16.1h16.1V176.4z"/>
	<path class="st0" d="M317.5,901.8c7.7,0,14.1,6.3,14.1,14.1s-6.3,14.1-14.1,14.1s-14.1-6.3-14.1-14.1S309.7,901.8,317.5,901.8z
		 M317.5,899.8c-8.8,0-16.1,7.2-16.1,16.1s7.2,16.1,16.1,16.1s16.1-7.2,16.1-16.1S326.4,899.8,317.5,899.8z"/>
	<path class="st0" d="M229.7,32.8c3.3,0,6,2.7,6,6s-2.7,6-6,6s-6-2.7-6-6S226.4,32.8,229.7,32.8z M229.7,30.8c-4.4,0-8,3.6-8,8
		s3.6,8,8,8s8-3.6,8-8S234.1,30.8,229.7,30.8z"/>
	<path class="st0" d="M1413.1,189.2v64.4 M1380.9,221.4h64.3"/>
	<path class="st0" d="M272.3,693.1c1.7,0,3,1.3,3.1,3c0,1.7-1.3,3-3,3.1h-0.1c-1.7,0-3-1.3-3.1-3c0-1.7,1.3-3,3-3.1H272.3z
		 M272.3,692.1c-2.2,0-4,1.8-4,4s1.8,4,4,4c2.2,0,4-1.8,4-4S274.5,692.1,272.3,692.1z M535.8,144.1c1.7,0,3,1.4,3,3c0,1.7-1.4,3-3,3
		c-1.6,0-3-1.3-3-2.9v-0.1C532.8,145.4,534.2,144.1,535.8,144.1z M535.8,143.1c-2.2,0-4,1.8-4,4s1.8,4,4,4s4-1.8,4-4
		S538,143.1,535.8,143.1z"/>
	<path class="st0" d="M579.4,580.3c3.3,0,6,2.7,6,6s-2.7,6-6,6s-6-2.7-6-6S576.1,580.3,579.4,580.3z M579.4,578.3c-4.4,0-8,3.6-8,8
		s3.6,8,8,8s8-3.6,8-8C587.4,581.9,583.8,578.3,579.4,578.3z"/>
	<path class="st0" d="M278,361v12.1h-12V361H278z M280.1,359H264v16.1h16.1V359z"/>
	<path class="st0" d="M1384.4,426v28.2h-28.2V426H1384.4z M1386.4,424h-32.2v32.2h32.2V424z"/>
	<path class="st0" d="M1288.2,324.2v12.1h-12.1v-12.1H1288.2z M1290.2,322.2h-16.1v16.1h16.1V322.2z"/>
	<path class="st0" d="M973.9,396.8c3.3,0,6,2.7,6,6s-2.7,6-6,6s-6-2.7-6-6S970.6,396.8,973.9,396.8z M973.9,394.8c-4.4,0-8,3.6-8,8
		s3.6,8,8,8s8-3.6,8-8S978.3,394.8,973.9,394.8z"/>
	<path class="st0" d="M711.1,473v8 M707.1,477h8"/>
	<path class="st0" d="M1062.3,958.5c16.6,0,30.2,13.6,30.2,30.2s-13.6,30.2-30.2,30.2s-30.2-13.6-30.2-30.2
		S1045.7,958.5,1062.3,958.5L1062.3,958.5z M1062.3,956.5c-17.8,0-32.2,14.4-32.2,32.2s14.4,32.2,32.2,32.2
		c17.8,0,32.2-14.4,32.2-32.2S1080.1,956.5,1062.3,956.5L1062.3,956.5z"/>
	<path class="st0" d="M754.5,95.5v32.2 M738.4,111.6h32.2"/>
	<path class="st0" d="M813.6,132.7h-32.2v32.2h32.2V132.7z M895.1,651.6H879v16.1h16.1V651.6z M192.8,761.1h-16.1v16.1h16.1V761.1z
		 M1107,89.3c8.9,0,16.1-7.2,16.1-16.1s-7.2-16.1-16.1-16.1s-16.1,7.2-16.1,16.1S1098.1,89.3,1107,89.3z M1150.3,741
		c4.4,0,8.1-3.5,8.1-8c0-4.4-3.5-8.1-8-8.1c-0.1,0-0.1,0-0.2,0c-4.4,0-8,3.6-8,8S1145.8,741,1150.3,741z"/>
</g>
<g id="DICV5k_1_">
	<g>
		<path class="st0" d="M486.9,399.2c-4.5-1.8-5.6-3.6-5.6-8.6c0-3.7-1-5-4.6-5.8c-0.4-0.1-1,0.2-1.3,0.5c-1,0.8-1.8,1.8-2.7,2.6
			c-2.6,2.3-6.5,2.5-9.1,0.1c-2.5-2.2-4.9-4.6-7.1-7c-2.5-2.7-2.3-6.6,0.2-9.2c0.3-0.3,0.6-0.6,0.9-0.9c3.2-3.2,3.2-3.2,1.3-7.4
			c-0.2-0.4-0.8-0.8-1.3-0.9c-1.1-0.1-2.3,0-3.4,0c-3.8-0.1-6.8-2.8-6.9-6.6c-0.1-3.3-0.1-6.6,0-9.8c0.1-3.8,2.9-6.4,6.7-6.5
			c0.3,0,0.7,0,1,0c2.9,0.4,5.2,0,6-3.4c0.1-0.4,0.8-0.9,1.3-0.9c1.6-0.1,3.3,0,4.9,0c-1.2,2.8-2.1,5.5-3.5,8
			c-0.5,0.8-1.8,1.5-2.9,1.6c-2,0.3-4.1,0.1-6.2,0.1c-1.4,0-2.1,0.7-2.1,2.1c0,2.7,0,5.5,0,8.2c0,1.4,0.7,2.1,2.1,2.1
			c1.9,0,3.9,0,5.8,0c1.6,0,2.5,0.7,3,2.3c0.8,2.4,1.7,4.8,2.7,7.1c0.6,1.5,0.5,2.7-0.6,3.8c-1.5,1.5-3,3-4.6,4.5
			c-1,1-1.1,1.9,0,2.9c2,1.9,3.9,3.8,5.8,5.8c1.1,1.1,2.1,0.9,3.1-0.1c1.3-1.3,2.7-2.6,4-4c1.2-1.2,2.4-1.3,4-0.5
			c2.2,1.2,4.4,2.2,6.7,3.1c1.7,0.6,2.4,1.7,2.4,3.5c0,2,0,4,0,6c0,1.4,0.6,2.1,2.1,2.1c2.1,0,4.1,0,6.2,0c1.5,0,2.1-0.7,2.1-2.1
			c0-2,0-4,0-6c0-1.8,0.7-2.8,2.4-3.5c2.3-0.9,4.5-1.9,6.7-3.1c1.5-0.8,2.8-0.8,4,0.5c1.3,1.3,2.6,2.6,4,4c1,1,2,1.2,3.1,0.1
			c1.9-2,3.9-3.9,5.8-5.8c1-1,1-1.9,0-2.9c-1.5-1.5-3-3-4.6-4.5c-1.1-1.1-1.2-2.3-0.6-3.8c1-2.4,1.9-4.8,2.8-7.3
			c0.5-1.4,1.3-2.1,2.8-2.1c1.9,0,3.9,0,5.8,0c1.6,0,2.3-0.7,2.3-2.3c-0.1-2.7,0-5.3,0-8c0-1.4-0.6-2.1-2.1-2.1
			c-2.1,0-4.2,0.2-6.2-0.1c-1-0.1-2.4-0.8-2.9-1.6c-1.3-2.5-2.3-5.2-3.5-8c1.7,0,3.3-0.2,4.9,0.1c0.8,0.2,1.7,1.3,1.9,2.1
			c0.6,1.8,1.6,2.3,3.4,2.2c7.5-0.7,10.3,2.6,9.8,9.7c-0.1,2.1,0,4.3-0.1,6.4c-0.2,3.9-3,6.7-7,6.8c-0.1,0-0.3,0-0.4,0
			c-4.2,0-4.8,0.5-5.7,4.7c-0.1,0.4,0.2,1,0.5,1.3c0.9,1,2,2,2.9,3c2.8,2.9,2.9,6.9,0,9.8c-2,2-4.1,4.1-6.1,6.1c-3.1,3-7.1,3-10.2,0
			c-3.2-3.1-3.2-3.1-7.1-1.2c-0.5,0.3-0.9,1-1.1,1.6c-0.2,0.8,0,1.7,0,2.6c0,4.9-1.2,6.7-5.6,8.6
			C493.6,399.2,490.3,399.2,486.9,399.2z"/>
		<path class="st0" d="M503.4,309c4.1,2.5,2.2,6.4,2.3,9.8c0.1,2-1.8,2.8-3.9,3c0,2.9-0.1,5.8,0.1,8.6c0,0.6,0.8,1.2,1.4,1.6
			c7.7,4.4,11.9,11,11.8,20c-0.1,8.9-4.4,15.4-12.2,19.5c-10.6,5.6-24,1.1-29.6-9.5c-5.6-10.8-1.5-24.2,9.2-29.8
			c1.5-0.8,2.2-1.6,2-3.3c-0.2-2.3,0-4.5,0-6.8c-4.7-2.3-5.3-10-1.2-13C490,309,496.7,309,503.4,309z M509.5,342.8
			c-2.1-4.1-4.8-7.2-8.9-9c-1.1-0.5-1.7-1-1.7-2.4c0.1-3.8,0.1-7.6,0-11.4c0-1.4,0.6-2,1.9-1.9c1.6,0.2,2-0.6,1.9-2
			c-0.1-0.7-0.1-1.5,0-2.2c0.1-1.4-0.5-1.8-1.9-1.8c-4.3,0.1-8.7,0-13,0c-4.5,0.1-4-1-4,4.2c0,1.1,0.2,1.8,1.6,1.7
			c1.5-0.1,1.9,0.8,1.9,2.1c0,3.6-0.1,7.2,0,10.8c0,1.3-0.5,2-1.7,2.6c-4.9,2.1-8,5.8-9.9,10.8c-0.4,1.2-0.6,2.5-1,4.1
			c6.3-1.5,12-1.6,17.6,1.3c1.6,0.8,3.1,0.3,4.2-1.2c2-2.8,4.9-4.3,8.2-5C506.2,343.2,507.7,343,509.5,342.8z M492,361.2
			c-1.9,0-3.7,1.7-3.8,3.7c0,1.9,1.7,3.7,3.7,3.8c1.9,0,3.7-1.7,3.8-3.7C495.7,363.1,494,361.3,492,361.2z M505.9,360.4
			c0-1.6-1.4-2.9-3-2.8c-1.6,0.1-2.8,1.5-2.8,3.1c0.1,1.5,1.4,2.8,2.9,2.8C504.6,363.4,505.9,362,505.9,360.4z M483.8,357.4
			c0-1.5-1.2-2.8-2.8-2.7c-1.5,0-2.7,1.2-2.7,2.6c0,1.5,1.3,2.9,2.7,2.9C482.5,360.2,483.8,358.9,483.8,357.4z M504.9,351.3
			c0.6,0.4,1.4,1.5,2.3,1.6c1.4,0.2,2.4-0.8,2.4-2.3c0-1.3-0.8-2.3-2.2-2.3C505.9,348.3,505.1,349.2,504.9,351.3z"/>
	</g>
</g>
<g id="xkjuVn_1_">
	<g>
		<path class="st0" d="M188.1,907.5c0,0.4,0,0.8,0,1.2c0,0.1-0.1,0.2-0.1,0.3c-0.2,0.9-0.5,1.7-1.1,2.3c-0.2,0.2-0.2,0.3-0.1,0.5
			c0.5,1.4,0.8,2.8,0.8,4.3c0,3.2-1.2,5.7-4.1,7.3c-1.6,0.9-3.4,1.2-5.3,1.3c-2.7,0.1-5.4-0.5-8-1.2c-0.6-0.2-1.3-0.4-1.9-0.6
			c-0.1,0.2-0.1,0.3-0.1,0.4c-0.7,2.1-1.5,4.2-2.6,6.1c-1.1,2-2.4,3.8-4.2,5.1c-2.6,1.9-5.3,2.3-8.2,0.9c-1.8-0.9-3.2-2.3-4.3-3.9
			c-1.4-2-2.5-4.2-3.3-6.5c-0.3-0.7-0.5-1.5-0.8-2.2c-0.1,0-0.2,0.1-0.3,0.1c-2.1,0.7-4.3,1.2-6.5,1.5c-2.2,0.3-4.5,0.3-6.7-0.4
			c-3.4-1-5.5-3.6-5.8-7.2c-0.2-2,0.3-3.9,1-5.7c1.3-3.3,3.3-6.2,5.5-9c0.7-0.8,1.4-1.7,2.1-2.5c0,0,0-0.1-0.1-0.1
			c-0.9-1.1-1.8-2.1-2.7-3.2c-0.1-0.1-0.2-0.1-0.4-0.1c-0.7,0-1.4,0.1-2,0c-3.7-0.8-5.2-5.2-2.8-8.1c0.2-0.2,0.2-0.3,0.1-0.6
			c-0.4-1.3-0.7-2.6-0.8-3.9c-0.2-3.4,1.4-6.4,4.5-7.9c1.8-0.9,3.7-1.1,5.7-1.1c2.6,0.1,5.1,0.6,7.5,1.3c0.5,0.2,1,0.3,1.5,0.5
			c0.1-0.2,0.1-0.3,0.1-0.4c0.7-2.3,1.6-4.5,2.8-6.5c1.1-1.9,2.4-3.6,4.2-4.9c2.7-2,6-2.1,8.9-0.3c1.2,0.8,2.2,1.7,3.1,2.9
			c1.7,2.1,2.8,4.6,3.8,7.1c0.3,0.7,0.5,1.4,0.8,2.2c0.1,0,0.2-0.1,0.3-0.1c2.2-0.7,4.4-1.3,6.7-1.5c2.1-0.2,4.2-0.2,6.3,0.4
			c3.7,1.1,5.9,4.1,5.9,8c0,1.9-0.6,3.8-1.3,5.5c-1.2,2.9-3,5.5-4.9,8c-0.8,1-1.6,1.9-2.4,2.9c0.1,0.1,0.2,0.2,0.2,0.3
			c0.8,0.9,1.6,1.9,2.3,2.8c0.2,0.2,0.4,0.3,0.7,0.3c2-0.4,4.1,0.5,5.1,2.3C187.7,906.1,187.8,906.8,188.1,907.5z M144.9,899.9
			c0.1,1.8,0.1,3.7,0.2,5.6c0,0.1,0.1,0.3,0.2,0.4c3.5,2.8,7.1,5.4,11,7.8c0.2,0.1,0.3,0.1,0.5,0c3.8-2.3,7.5-4.9,10.9-7.7
			c0.1-0.1,0.2-0.3,0.2-0.5c0.2-3.7,0.2-7.4,0-11c0-0.3-0.1-0.4-0.3-0.6c-3.4-2.8-7.1-5.3-10.8-7.7c-0.2-0.1-0.4-0.2-0.6,0
			c-3.8,2.3-7.4,4.9-10.9,7.7c-0.2,0.1-0.2,0.3-0.3,0.5C145,896.2,145,898,144.9,899.9z M176.7,897.4c0.1-0.1,0.1-0.1,0.2-0.2
			c0.9-1.2,1.9-2.3,2.8-3.5c1.5-1.9,2.8-4,3.7-6.3c0.5-1.3,0.9-2.7,0.9-4.2c0-2.2-1.1-3.7-3.2-4.5c-0.9-0.3-1.9-0.5-2.9-0.5
			c-3-0.1-5.9,0.7-8.7,1.6c-0.2,0.1-0.2,0.2-0.2,0.4c1,3.9,1.5,7.9,1.9,11.9c0,0.2,0.1,0.3,0.2,0.4c0.5,0.4,1,0.9,1.5,1.3
			C174.1,895,175.4,896.2,176.7,897.4z M143.8,919.8c0-0.1,0-0.1,0-0.1c-1-4-1.6-8-1.9-12.1c0-0.2-0.1-0.3-0.2-0.4
			c-1.7-1.5-3.3-3.1-5-4.6c-0.1-0.1-0.2-0.1-0.3-0.2c-0.5,0.6-0.9,1.1-1.4,1.6c-1.9,2.3-3.6,4.7-4.8,7.3c-0.8,1.7-1.4,3.4-1.4,5.3
			c0,1.9,0.9,3.4,2.7,4.2c0.6,0.3,1.3,0.5,2,0.6c1.6,0.3,3.2,0.1,4.8-0.1C140.2,920.9,142,920.4,143.8,919.8z M176.7,902.3
			c-0.1,0.1-0.1,0.1-0.2,0.1c-1.7,1.6-3.4,3.2-5.1,4.8c-0.1,0.1-0.2,0.3-0.2,0.4c-0.3,3.4-0.8,6.8-1.5,10.1c-0.1,0.7-0.3,1.3-0.5,2
			c0.1,0,0.2,0.1,0.2,0.1c2.2,0.7,4.5,1.3,6.9,1.5c1.5,0.1,3,0.1,4.5-0.3c1.8-0.6,3-1.7,3.4-3.6c0.3-1.4,0-2.8-0.5-4.2
			c0-0.1-0.2-0.2-0.3-0.2c-0.7,0-1.4-0.1-2-0.3c-3-1.1-4.2-4.6-2.5-7.3c0.1-0.2,0.2-0.4,0-0.6c-0.2-0.2-0.4-0.5-0.6-0.8
			C177.7,903.5,177.2,902.9,176.7,902.3z M143.8,879.9c0,0,0,0-0.1,0c-2.4-0.8-4.8-1.4-7.3-1.6c-1.6-0.1-3.2,0-4.7,0.6
			c-1.5,0.6-2.4,1.7-2.7,3.2c-0.3,1.4,0,2.7,0.3,4c0.1,0.4,0.3,0.5,0.7,0.5c3.2,0,5.6,2.9,4.9,6c-0.1,0.7-0.5,1.3-0.8,2
			c0.7,0.9,1.5,1.8,2.4,2.9c0.1-0.2,0.2-0.3,0.2-0.4c1.6-1.5,3.3-3,4.9-4.5c0.2-0.2,0.3-0.3,0.3-0.6c0.2-1.8,0.3-3.6,0.6-5.3
			C142.9,884.4,143.3,882.2,143.8,879.9z M147.8,877.8c0.1,0.1,0.2,0.1,0.2,0.1c2.8,1.2,5.6,2.5,8.3,4c0.2,0.1,0.3,0.1,0.5,0
			c2.6-1.5,5.3-2.8,8.1-3.9c0.1,0,0.2-0.1,0.4-0.2c-0.8-2.6-1.8-5-3.2-7.3c-0.8-1.2-1.6-2.2-2.8-3c-1.7-1.2-3.7-1.2-5.4,0
			c-0.6,0.4-1.2,0.9-1.7,1.5c-1.4,1.6-2.4,3.5-3.1,5.4C148.6,875.5,148.2,876.7,147.8,877.8z M147.9,921.8c0,0.1,0,0.2,0,0.2
			c0.7,2.1,1.5,4.2,2.6,6.1c0.8,1.4,1.7,2.6,2.9,3.6c2.1,1.7,4.3,1.7,6.3,0c0.7-0.6,1.4-1.4,2-2.2c1.6-2.3,2.6-4.8,3.5-7.5
			c0-0.1,0-0.2,0.1-0.3c-0.1,0-0.1-0.1-0.1-0.1c-2.9-1.2-5.6-2.5-8.3-4.1c-0.2-0.1-0.3-0.1-0.5,0c-1.6,0.8-3.2,1.7-4.8,2.5
			C150.3,920.8,149.1,921.3,147.9,921.8z M145.5,889.3c2.5-1.8,5.1-3.5,7.7-5.3c-2.1-1-4.1-2-6.2-3
			C146.3,883.8,145.8,886.6,145.5,889.3z M153.2,915.7c-2.6-1.8-5.1-3.6-7.7-5.3c0.3,2.8,0.8,5.5,1.5,8.3
			C149.1,917.6,151.1,916.7,153.2,915.7z M166.1,881c-2.1,1-4.2,2-6.2,3c2.6,1.8,5.1,3.6,7.7,5.3C167.2,886.5,166.8,883.8,166.1,881
			z M167.6,910.3c-2.6,1.8-5.1,3.5-7.7,5.3c2.1,1,4.1,2,6.2,3C166.8,915.8,167.2,913.1,167.6,910.3z M171.5,897c0,1.9,0,3.7,0,5.7
			c1-1,1.9-1.9,2.9-2.8C173.4,898.9,172.5,898,171.5,897z M138.7,899.8c1,1,1.9,1.9,2.9,2.8c0-1.9,0-3.7,0-5.7
			C140.6,898,139.7,898.9,138.7,899.8z"/>
		<path class="st0" d="M161.5,899.8c0,2.8-2.3,5-5.1,5c-2.7,0-4.9-2.3-4.9-5.1c0-2.7,2.3-4.9,5-4.9
			C159.3,894.9,161.5,897.1,161.5,899.8z"/>
	</g>
</g>
<g id="SGpMEV_1_">
	<g>
		<path class="st0" d="M467.2,800.5c0-1.5,0-3,0-4.6c0-0.5,0.2-0.9,0.6-1.1c0.8-0.5,1.5-1,2.3-1.4c1.2-0.7,2.4-1.4,3.6-2.1
			c1.9-1.1,3.7-2.1,5.6-3.2c1.5-0.9,3-1.7,4.5-2.6c0.2-0.1,0.3-0.3,0.3-0.5c0-6.4,0-12.9,0-19.3c0-0.2-0.1-0.4-0.3-0.5
			c-1.9-1.1-3.8-2.2-5.7-3.3c-0.4-0.2-0.8-0.4-1.1-0.6c-0.8-0.4-0.9-1.3-0.6-1.9c0.4-0.8,1.3-1,2-0.6c2.5,1.4,5,2.9,7.5,4.3
			c0.2,0.1,0.4,0.1,0.7,0c3.2-1.9,6.4-3.7,9.6-5.6c2-1.2,4.1-2.3,6.1-3.5c0.4-0.3,0.8-0.3,1.2-0.1c1.2,0.6,2.4,1.3,3.6,2
			c2,1.1,4,2.3,6,3.5c2.3,1.3,4.6,2.7,6.9,4c0.2,0.1,0.3,0.1,0.6,0c2.5-1.4,4.9-2.9,7.4-4.3c0.3-0.2,0.7-0.4,1.1-0.5
			c0.7-0.2,1.4,0.1,1.7,0.9c0.3,0.7,0.1,1.4-0.6,1.7c-1,0.6-2,1.1-3,1.7c-1.2,0.7-2.3,1.4-3.5,2c-0.5,0.3-1,0.6-1.5,0.9
			c-0.1,0.1-0.3,0.3-0.3,0.4c0,6.1,0,12.1,0,18.2c0,0.2,0.1,0.3,0.2,0.4c2.5,1.4,5,2.9,7.5,4.3c0.3,0.2,0.6,0.3,0.9,0.5
			c0.6,0.4,0.7,1.2,0.4,1.8c-0.4,0.7-1.1,1-1.7,0.7c-0.8-0.4-1.6-0.9-2.4-1.4c-2-1.2-4-2.3-6.1-3.5c-0.2-0.1-0.4-0.1-0.6,0
			c-2,1.2-4,2.3-6,3.5c-3.1,1.8-6.3,3.6-9.4,5.4c-0.4,0.2-0.8,0.4-1.2,0.6c-0.4,0.2-0.7,0.1-1.1-0.1c-3.2-1.9-6.5-3.7-9.7-5.6
			c-1.9-1.1-3.9-2.2-5.8-3.4c-0.3-0.2-0.6-0.2-1,0c-2.4,1.4-4.8,2.8-7.2,4.2c-2.3,1.3-4.6,2.7-7,4c-0.4,0.3-0.9,0.5-1.3,0.8
			c-0.2,0.1-0.2,0.3-0.2,0.5c0,2.7,0,5.5,0,8.2c0,0.6-0.2,1.1-0.7,1.3c-0.5,0.3-1,0.2-1.5-0.1c-0.4-0.3-0.6-0.7-0.6-1.2
			C467.2,803.6,467.2,802.1,467.2,800.5z M519,775.3C519,775.3,519,775.3,519,775.3c0-0.6,0-1.3,0-1.9c0-2-0.1-4.1,0-6.1
			c0-0.9-0.2-1.4-1-1.8c-2.7-1.5-5.4-3.1-8.1-4.7c-2.2-1.3-4.4-2.5-6.6-3.8c-0.2-0.1-0.3-0.1-0.5,0c-0.7,0.4-1.3,0.8-2,1.1
			c-2.4,1.4-4.7,2.7-7.1,4.1c-2.1,1.2-4.3,2.5-6.4,3.7c-0.2,0.1-0.3,0.2-0.3,0.5c0,4,0,8,0,11.9c0,2,0,3.9,0,5.9
			c0,0.2,0,0.4,0.2,0.5c0.9,0.5,1.8,1,2.6,1.5c2.3,1.4,4.7,2.7,7,4.1c1.9,1.1,3.9,2.2,5.8,3.4c0.1,0.1,0.3,0.1,0.5,0
			c1.9-1.1,3.8-2.2,5.6-3.2c3.2-1.9,6.5-3.7,9.7-5.6c0.3-0.2,0.4-0.4,0.4-0.8C519,781.1,519,778.2,519,775.3z"/>
		<path class="st0" d="M507.5,816.5c-1.4-0.8-2.8-1.6-4.3-2.5c-0.4-0.2-0.8-0.4-1.1-0.7c-0.3-0.2-0.5-0.5-0.6-0.9
			c0-0.5-0.1-1-0.1-1.5c0-2.8,0-5.6,0-8.4c0-1.1,0.9-1.7,1.9-1.4c0.6,0.2,0.8,0.6,0.9,1.1c0,0.2,0,0.4,0,0.6c0,2.7,0,5.4,0,8.1
			c0,0.2,0,0.4,0.3,0.5c1.4,0.8,2.8,1.6,4.2,2.4c0.1,0,0.1,0.1,0.2,0.1c1.5-1.6,3.4-2.5,5.6-2.4c1.8,0.1,3.4,0.7,4.7,1.9
			c2.5,2.3,3.1,6.2,1.3,9c-1.9,3.1-5.4,4.2-8.5,3.2C508.9,824.8,506.1,821,507.5,816.5z M514.4,814.5c-2.4-0.1-4.3,2-4.4,4.4
			c0,2.3,1.9,4.3,4.3,4.3c2.4,0,4.4-1.9,4.4-4.2C518.8,816.5,516.9,814.5,514.4,814.5z"/>
		<path class="st0" d="M468.5,761.9c-4,0-7.3-3.2-7.3-7.3c0-4,3.3-7.2,7.2-7.2c4,0,7.3,3.2,7.3,7.2
			C475.7,758.7,472.5,761.9,468.5,761.9z M464.1,754.7c0,2.3,1.9,4.3,4.2,4.4c2.4,0,4.5-1.9,4.5-4.2c0-2.5-1.9-4.5-4.3-4.5
			C466.1,750.2,464.1,752.2,464.1,754.7z"/>
		<path class="st0" d="M541.5,753.8c0-0.3,0-0.5,0-0.7c0-1.5,0-3,0-4.6c0-0.9,0.9-1.5,1.9-1.2c0.6,0.2,0.9,0.6,0.9,1.3
			c0,0.5,0,1,0,1.4c0,3.4,0,6.7,0,10.1c0,1.1-0.7,1.7-1.7,1.6c-0.6-0.1-1.2-0.7-1.2-1.3c0-0.8,0-1.5,0-2.3c0-0.1-0.1-0.3-0.2-0.4
			c-1.8-1.8-3.6-3.6-5.4-5.4c0,0-0.1,0-0.2-0.1c0,0.7,0,1.3,0,2c0,2,0,4.1,0,6.1c0,0.8-0.6,1.4-1.4,1.4c-0.9,0-1.4-0.6-1.4-1.4
			c0-3.7,0-7.4,0-11.1c0-0.2,0-0.3,0-0.5c-0.1-0.6,0.2-1.2,0.7-1.5c0.6-0.3,1.2-0.2,1.6,0.2c1.8,1.8,3.6,3.5,5.4,5.3
			C540.9,753.2,541.2,753.5,541.5,753.8z"/>
		<path class="st0" d="M479.2,814.4c1.9,0,3.8,0,5.7,0c0-0.1,0-0.3,0-0.4c0-1.3,0-2.6,0-3.9c0-0.5,0.2-1,0.7-1.3
			c0.5-0.3,1.1-0.3,1.6,0c0.4,0.3,0.6,0.7,0.6,1.2c0,3.9,0,7.8,0,11.7c0,0.9-0.6,1.4-1.5,1.4c-0.8,0-1.4-0.6-1.4-1.4
			c0-1.3,0-2.6,0-3.9c0-0.1,0-0.3,0-0.4c-0.1,0-0.2,0-0.3,0c-1.7,0-3.4,0-5.2,0c-0.3,0-0.3,0.1-0.3,0.3c0,1.4,0,2.8,0,4.1
			c0,0.6-0.2,1-0.8,1.3c-0.6,0.2-1.2,0.2-1.7-0.2c-0.3-0.3-0.4-0.6-0.4-1c0-2.5,0-5,0-7.4c0-1.4,0-2.8,0-4.3c0-1.3,1.3-1.8,2.2-1.3
			c0.5,0.3,0.7,0.7,0.7,1.3c0,1.3,0,2.6,0,3.9C479.2,814.1,479.2,814.2,479.2,814.4z"/>
		<path class="st0" d="M526.2,802.9c0,1.5,0,2.9,0,4.3c0,1.3-1.3,1.7-2.1,1.3c-0.6-0.2-0.8-0.7-0.8-1.4c0-3.5,0-7,0-10.6
			c0-0.4,0-0.7,0-1.1c0-0.8,0.6-1.4,1.4-1.4c0.8,0,1.4,0.5,1.4,1.3c0,1.3,0,2.7,0,4c0,0.1,0,0.3,0,0.5c1.9,0,3.8,0,5.7,0
			c0-0.1,0-0.3,0-0.4c0-1.3,0-2.6,0-3.9c0-0.8,0.5-1.4,1.4-1.4c0.8-0.1,1.4,0.5,1.5,1.3c0,0.1,0,0.2,0,0.3c0,3.8,0,7.6,0,11.4
			c0,0.5-0.1,0.9-0.5,1.2c-0.5,0.4-1,0.4-1.6,0.2c-0.5-0.2-0.8-0.7-0.8-1.2c0-1.3,0-2.6,0-3.9c0-0.1,0-0.3,0-0.5
			C530,802.9,528.1,802.9,526.2,802.9z"/>
		<path class="st0" d="M468.8,823.2c-4.5,0-7.9-3.7-7.4-8c0.4-4,3.8-6.8,7.8-6.5c1.4,0.1,2.7,0.5,3.8,1.4c0.8,0.6,0.9,1.4,0.4,2.1
			c-0.5,0.7-1.4,0.9-2.1,0.3c-0.9-0.7-1.8-1-3-0.9c-2.4,0.1-4.3,2.4-4.1,4.7c0.2,2.5,2.6,4.5,5.3,3.9c0.5-0.1,1-0.4,1.4-0.6
			c0.9-0.5,2,0,2.2,1c0.1,0.6-0.2,1.1-0.7,1.4C471.4,822.9,470.1,823.2,468.8,823.2z"/>
		<path class="st0" d="M541,808.3c0.9,0,1.6,0,2.4,0c0.9,0,1.5,0.6,1.5,1.4c0,0.8-0.6,1.4-1.5,1.4c-1.8,0-3.6,0-5.5,0
			c-1,0-1.6-0.6-1.5-1.6c0-1.4,0.8-2.4,1.9-3.1c0.9-0.6,1.9-1,2.8-1.6c0.7-0.4,1-1.2,0.7-1.9c-0.3-0.7-1-1-1.7-0.9
			c-0.7,0.1-1.2,0.7-1.2,1.5c-0.1,1.1-0.9,1.7-2,1.4c-0.6-0.2-1-0.8-0.9-1.7c0.1-2.5,2.5-4.5,5-4.1c2.6,0.4,4.3,2.8,3.8,5.4
			c-0.3,1.2-1,2-2,2.7C542.1,807.6,541.6,807.9,541,808.3z"/>
		<path class="st0" d="M467.9,791.4c-0.7-0.1-1.2-0.5-1.4-1.1c-0.2-0.7,0.1-1.3,0.6-1.6c2.3-1.4,4.7-2.7,7-4
			c1.4-0.8,2.8-1.6,4.2-2.4c0.8-0.4,1.5-0.2,2,0.6c0.4,0.7,0.2,1.5-0.6,1.9c-3.6,2.1-7.2,4.2-10.8,6.2
			C468.6,791.1,468.2,791.2,467.9,791.4z"/>
		<path class="st0" d="M504.4,788.1c0,1.2-1.2,1.9-2.2,1.3c-0.9-0.5-1.7-1-2.6-1.5c-2.6-1.5-5.3-3-7.9-4.6c-0.2-0.1-0.5-0.3-0.7-0.4
			c-0.7-0.4-0.9-1.3-0.5-2c0.4-0.6,1.3-0.9,1.9-0.5c1.2,0.7,2.5,1.4,3.7,2.1c2.1,1.2,4.3,2.5,6.4,3.7c0.4,0.2,0.8,0.4,1.2,0.7
			C504.2,787.3,504.5,787.6,504.4,788.1z"/>
		<path class="st0" d="M504.4,762.3c0,0.6-0.3,1-0.7,1.2c-2.6,1.5-5.2,3-7.8,4.5c-1.1,0.7-2.3,1.3-3.4,2c-1,0.5-2,0.1-2.2-1
			c-0.1-0.6,0.2-1.2,0.7-1.5c1.2-0.7,2.4-1.4,3.6-2.1c2.3-1.3,4.7-2.7,7-4c0.2-0.1,0.5-0.3,0.7-0.4
			C503.3,760.5,504.5,761.3,504.4,762.3z"/>
		<path class="st0" d="M512.8,775.6c0-1.9,0-3.8,0-5.7c0-1.1,0.9-1.7,1.8-1.5c0.6,0.2,1,0.7,1.1,1.4c0,0.8,0,1.5,0,2.3
			c0,3.1,0,6.2,0,9.2c0,1-0.6,1.6-1.6,1.5c-0.7-0.1-1.2-0.6-1.2-1.4C512.8,779.5,512.8,777.6,512.8,775.6
			C512.8,775.6,512.8,775.6,512.8,775.6z"/>
	</g>
</g>
<g id="nuBAdz.tif">
	<g>
		<path class="st0" d="M129.5,552.7c0.4-1.6,1.5-2.5,2.8-3.3c7.8-4.5,15.6-9,23.4-13.6c0.2-0.1,0.4-0.2,0.7-0.4
			c0,0.2,0.1,0.4,0.1,0.6c0,2.8,0,5.7,0,8.5c0,0.5-0.2,0.7-0.6,0.9c-4.8,2.5-9.6,5-14.4,7.6c-0.2,0.1-0.4,0.2-0.8,0.4
			c0.2,0.1,0.4,0.2,0.6,0.3c4.9,2.7,9.8,5.3,14.6,8c0.2,0.1,0.4,0.4,0.4,0.6c0,3.1,0,6.3,0,9.5c-0.4-0.2-0.6-0.3-0.9-0.5
			c-7.5-4.4-15-8.9-22.5-13.2c-1.8-1-3.1-2.2-3.6-4.2C129.5,553.6,129.5,553.2,129.5,552.7z"/>
		<path class="st0" d="M165.1,573.3c0.1-0.3,0.1-0.6,0.2-0.9c4-12.5,8.1-25,12.1-37.6c0.2-0.6,0.4-0.8,1-0.8c1.8,0.1,3.7,0,5.6,0
			c-0.2,0.7-0.4,1.3-0.6,1.8c-4,12.2-7.9,24.4-11.9,36.5c-0.1,0.3-0.1,0.5-0.2,0.8C169.3,573.3,167.2,573.3,165.1,573.3z"/>
		<path class="st0" d="M192.6,535.5c4.5,2.6,8.9,5.3,13.4,7.9c3.7,2.2,7.4,4.3,11.1,6.5c1.8,1.1,2.7,3.2,2.3,5.2
			c-0.2,1.1-0.8,1.9-1.7,2.4c-5.6,3.3-11.2,6.5-16.8,9.8c-2.7,1.6-5.4,3.1-8.2,4.8c0-0.3-0.1-0.5-0.1-0.7c0-2.8,0-5.6,0-8.4
			c0-0.5,0.2-0.8,0.6-1c4.8-2.5,9.5-5,14.3-7.5c0.2-0.1,0.4-0.2,0.8-0.4c-0.2-0.1-0.4-0.2-0.6-0.3c-4.9-2.7-9.8-5.3-14.6-8
			c-0.2-0.1-0.4-0.4-0.4-0.7c0-3,0-6.1,0-9.1C192.5,535.7,192.5,535.7,192.6,535.5z"/>
	</g>
</g>
<g id="pJ3WTx_1_">
	<g>
		<path class="st0" d="M698.8,881.5c0,1.8,0,3.3,0,4.9c-2.1,0-4.1,0-6.2,0c0-1.2,0-2.5,0-3.7c0-0.9-0.2-1.2-1.1-1.2
			c-1.3,0.1-2.7,0.1-4,0c-0.8,0-1.1,0.3-1.2,1c-1.1,5.5-2.2,10.9-3.3,16.3c-0.1,0.4-0.2,0.8-0.3,1.4c-1.8,0-3.5,0-5.3,0
			c-0.7,0-1.1,0.2-1.2,0.8c0,0.2-0.1,0.4-0.2,0.6c-1,2.6-1.6,2.9-4.6,2.2c2.2-6.9,4.5-13.9,6.8-20.9c-2.3,0-4.3,0-6.5,0
			c0-2.5,0-5,0-7.5c2.5,0,5-0.1,7.5,0c1.1,0,1.6-0.3,2-1.4c2-6.7,4-13.3,6-19.9c0.2-0.5,0.1-1.2-0.1-1.7c-3.3-6.5-1.7-12.2,4.7-16
			c0.8-0.5,1.1-0.9,1.1-1.9c-0.1-1.7,0-3.4,0-5.2c2.5,0,4.9,0,7.5,0c0,1.9,0,3.7,0,5.6c0,0.4,0.3,0.9,0.6,1.1
			c6.5,3.5,8.4,8.5,5.7,15.4c-0.5,1.2-0.5,2.2-0.1,3.4c2.1,6.4,4.1,12.8,6.1,19.2c0.3,1,0.7,1.5,1.9,1.4c2.5-0.1,5.1,0,7.6,0
			c0.2,0,0.3,0.1,0.5,0.1c0,2.4,0,4.8,0,7.4c-2.3,0-4.6,0-7.1,0c2.3,7.1,4.5,14.1,6.8,21.2c-1.2,0-2.2,0.1-3.2,0
			c-0.3,0-0.7-0.4-0.9-0.7c-0.5-0.9-0.6-2.4-1.3-2.8c-0.8-0.5-2.2-0.2-3.3-0.2c-2.7,0-2.7,0-3.4-2.6c-1.3-5-2.6-10-3.9-15
			c-0.2-0.8-0.5-1.2-1.4-1.1C702.9,881.5,700.9,881.5,698.8,881.5z M695,852.6c-2,8-4,15.9-5.9,23.8c1.7,0,3.2,0,4.9,0
			c0-2.1,0-4,0-6c1.3,0,2.4,0,3.7,0c0,2,0,4,0,6c2.2,0,4.4,0,6.6,0c-2.3-8-4.6-15.8-6.8-23.7c2.2-0.9,3.4-2.5,4-4.6
			c0.8-2.9-0.8-5.7-3.5-6.5c-2.9-0.8-5.7,0.9-6.5,3.8C690.5,848.3,691.7,850.7,695,852.6z"/>
	</g>
</g>
<g id="rDFs62_1_">
	<g>
		<path class="st0" d="M691.8,473.9c0.5-1.3,1.3-2,2.6-2.4c1.6-0.5,2.6-1.7,3.3-3.1c1.5-2.6,2.1-5.6,2.6-8.5
			c0.3-1.4,0.5-2.8,0.8-4.3c-0.5,0-0.9,0-1.3,0c-1.5,0-3.1,0.1-4.5-0.2c-1.6-0.2-2.5-1.7-2.3-3.2c0.2-1.4,1.4-2.5,2.9-2.5
			c2.1,0,4.2,0,6.2,0c0.6-1.9,1.1-3.8,1.9-5.7c1.3-3.3,3.3-6.2,6.6-7.9c0.8-0.4,1.7-0.8,2.6-1c1.5-0.4,3,0.4,3.5,1.9
			c0.5,1.4-0.1,3.1-1.5,3.6c-3.9,1.2-5.3,4.3-6.4,7.8c-0.1,0.3-0.2,0.7-0.3,1c0,0,0,0.1,0.1,0.3c1.2,0,2.4,0,3.6,0
			c1.1,0,2.1,0,3.2,0c1.8,0,3.1,1.2,3.1,2.9c0,1.7-1.3,3-3.1,3c-2.4,0-4.8,0-7.3,0c-0.8,0-1,0.2-1.2,1c-0.8,3.7-1.5,7.5-2.5,11.1
			c-1.1,3.7-3.1,6.9-6.7,8.8c-0.8,0.4-1.6,0.7-2.4,1c-0.4,0-0.8,0-1.3,0c-1.1-0.4-1.9-1.2-2.3-2.3
			C691.8,474.7,691.8,474.3,691.8,473.9z"/>
		<path class="st0" d="M756.2,462c-0.2,1.4-0.3,2.8-0.5,4.1c-0.5,3.1-1.2,6.1-2.7,8.9c-0.7,1.3-1.6,1.7-2.7,1.5
			c-1.6-0.3-2.4-1.5-2-3.1c0.8-2.8,1.7-5.7,2.2-8.6c1-5.7,0.4-11.4-1.3-17c-0.3-1-0.6-1.9-0.9-2.9c-0.4-1.3,0-2.3,1.1-2.8
			c1.1-0.6,2.6-0.4,3.2,0.7c0.8,1.4,1.6,2.9,1.9,4.5c0.7,2.8,1,5.6,1.5,8.4c0.1,0.3,0.1,0.6,0.2,0.9
			C756.2,458.6,756.2,460.3,756.2,462z"/>
		<path class="st0" d="M738.2,463.9c-1.3,1.5-2.4,2.9-3.6,4.3c-0.4,0.5-0.9,1.1-1.4,1.5c-1.1,0.9-2.7,0.9-3.8,0
			c-1-0.9-1.4-2.5-0.6-3.7c0.3-0.6,0.8-1.1,1.2-1.5c1.5-1.7,3.1-3.3,4.7-5.1c-1.3-1.4-2.6-2.8-3.9-4.2c-0.2-0.3-0.5-0.5-0.7-0.8
			c-1.1-1.4-1-3.1,0.3-4.2c1.1-1,3.1-1,4.2,0.2c1.2,1.3,2.2,2.7,3.3,4.1c0.1,0.1,0.2,0.3,0.4,0.4c1.1-1.4,2.2-2.8,3.3-4.1
			c0.7-0.9,1.5-1.3,2.6-1.3c1.3,0,2.2,0.6,2.7,1.7c0.5,1.1,0.4,2.2-0.4,3.2c-1.2,1.4-2.5,2.7-3.8,4.1c-0.3,0.3-0.6,0.6-0.9,1
			c1.7,1.8,3.3,3.6,5,5.3c0.7,0.8,1.3,1.7,1.3,2.8c-0.1,1.2-0.6,2.1-1.7,2.6c-1.2,0.5-2.3,0.4-3.2-0.6c-1-1.1-1.9-2.2-2.9-3.3
			C739.6,465.5,739,464.8,738.2,463.9z"/>
		<path class="st0" d="M720.2,460.6c0.1-6.2,0.7-11.1,2.7-15.8c0.3-0.7,0.7-1.4,1.2-2c0.6-0.8,2.1-1,3-0.4c1,0.5,1.4,1.5,1.1,2.6
			c-0.2,0.7-0.4,1.4-0.6,2.1c-1.6,5-2.5,10-2,15.2c0.3,3.5,1.1,6.9,2.3,10.3c0.1,0.3,0.2,0.7,0.3,1c0.4,1.3-0.1,2.4-1.2,2.9
			c-1.3,0.6-2.4,0.3-3.2-0.9c-1.5-2.4-2.2-5.2-2.7-8C720.6,464.9,720.4,462.1,720.2,460.6z"/>
	</g>
</g>
<g id="m2fboB.tif">
	<g>
		<path class="st0" d="M91.4,147.2c-0.2,0-0.4-0.1-0.6-0.1c-1.8-0.4-2.8-1.7-3.5-3.3c-0.7-1.6-0.6-3.3-0.2-5
			c0.5-2.2,1.1-4.4,1.6-6.6c0.7-2.9,1-5.9,1-8.9c0-15.5,0-31,0-46.4c0-0.2,0-0.4,0-0.7c2.9,0,5.7,0,8.6,0c0,0.2,0,0.4,0,0.6
			c0,10.4,0,20.9,0,31.3c0,1.7,0.1,3.5,0.5,5.1c0.7,3.1,3.2,5.3,6.3,5.8c2,0.3,3.8,0,5.6-0.8c2.9-1.3,5.5-3.2,7.9-5.3
			c0.1-0.1,0.2-0.3,0.2-0.5c0-3.5,0-7,0-10.5c0-8.3,0-16.7,0-25c0-0.2,0-0.4,0-0.6c2.9,0,5.8,0,8.7,0c0,0.2,0,0.4,0,0.6
			c0,11.8,0,23.6,0,35.4c0,1.9,0,3.8,0.5,5.6c0.6,2.2,2.3,3.3,4.4,2.8c1-0.2,1.7-0.9,2.3-1.8c0.8-1.4,1.2-2.9,1.5-4.4
			c0-0.2,0.1-0.4,0.1-0.7c0.6,0,1.2,0,1.9,0c-0.1,1-0.3,1.9-0.4,2.8c-0.3,1.4-0.7,2.8-1.3,4.1c-1.4,2.9-3.8,4.5-7,4.9
			c-2.8,0.3-5.3-0.2-7.5-2.2c-1.7-1.5-2.5-3.4-2.9-5.5c-0.1-0.8-0.2-1.5-0.3-2.4c-0.3,0.3-0.5,0.5-0.8,0.8c-2.6,2.7-5.4,5.2-8.6,7.1
			c-1.8,1-3.6,1.8-5.7,2.1c-2.9,0.4-5.5-0.3-7.9-1.9c-0.6-0.4-1.2-0.9-1.8-1.3c0,0.2,0,0.3,0,0.5c-0.2,4.8,0.6,9.5,2.1,14.1
			c0.4,1.4,0.7,2.8,1,4.2c0.5,3.5-2,6.1-4.6,6.2c-0.1,0-0.1,0-0.2,0.1C92,147.2,91.7,147.2,91.4,147.2z"/>
	</g>
</g>
</svg>
