<?xml version="1.0" encoding="utf-8"?>
<!-- Generator: Adobe Illustrator 24.0.2, SVG Export Plug-In . SVG Version: 6.00 Build 0)  -->
<svg version="1.1"
	 id="Layer_1" xmlns:cc="http://creativecommons.org/ns#" xmlns:dc="http://purl.org/dc/elements/1.1/" xmlns:inkscape="http://www.inkscape.org/namespaces/inkscape" xmlns:rdf="http://www.w3.org/1999/02/22-rdf-syntax-ns#" xmlns:sodipodi="http://sodipodi.sourceforge.net/DTD/sodipodi-0.dtd" xmlns:svg="http://www.w3.org/2000/svg"
	 xmlns="http://www.w3.org/2000/svg" xmlns:xlink="http://www.w3.org/1999/xlink" x="0px" y="0px" viewBox="0 0 4314 1024"
	 style="enable-background:new 0 0 4314 1024;" xml:space="preserve">
<style type="text/css">
	.st0{fill-rule:evenodd;clip-rule:evenodd;fill:#FFC300;}
	.st1{fill:#001D3D;}
	.st2{fill:none;}
	.st3{enable-background:new    ;}
	.st4{fill:#FFC300;}
</style>
<sodipodi:namedview  bordercolor="#666666" borderopacity="1" gridtolerance="10" guidetolerance="10" id="namedview850" inkscape:current-layer="Layer_1" inkscape:cx="512" inkscape:cy="512" inkscape:pageopacity="0" inkscape:pageshadow="2" inkscape:window-height="968" inkscape:window-maximized="0" inkscape:window-width="1630" inkscape:window-x="0" inkscape:window-y="23" inkscape:zoom="0.6953125" objecttolerance="10" pagecolor="#ffffff" showgrid="false">
	</sodipodi:namedview>
<g id="Layer_2_2_">
</g>
<polygon class="st0" points="623.3,846.1 210.4,431.3 210.4,174.8 878.7,846.1 "/>
<polygon class="st0" points="213.5,586.7 629.3,174.8 886.4,174.8 213.5,841.5 "/>
<polygon class="st0" points="209.3,172.7 468,172.7 209.3,429.9 "/>
<polygon class="st0" points="210.4,849.2 210.4,590.5 469.1,849.2 "/>
<path class="st1" d="M219.5,440.3C270.7,406.2,321.8,372.1,373,338l-35.4-35.5C294.8,345,252,387.6,209.2,430.1l3.2,3.2
	C212.6,433.3,219.5,440.3,219.5,440.3z"/>
<path class="st1" d="M234.6,430.1"/>
<path class="st1" d="M243.4,849.2c44.6-30.6,89.2-61.3,133.8-91.9c-13.1-13.1-26.1-26.1-39.2-39.2c-42.5,43.7-85.1,87.4-127.6,131.1
	c0.6,0,1.2,0,1.8,0C222.6,849.2,233,849.2,243.4,849.2z"/>
<path class="st1" d="M104.9,654.7"/>
<path class="st1" d="M470.9,693c50.6-34.7,101.1-69.4,151.7-104.2C597.4,562.9,572.2,537,547,511c-43.2,42.8-86.4,85.6-129.5,128.3
	c5,5.1,10.1,10.1,15.1,15.2C445.4,667.4,458.1,680.2,470.9,693z"/>
<line class="st2" x1="231.8" y1="849.2" x2="302.5" y2="778.5"/>
<g class="st3">
	<path class="st4" d="M1463.7,654.7c-7-11.3-15.3-23.5-24.8-36.6s-19.8-26.3-30.8-39.6c-11-13.3-22.5-26.1-34.6-38.3
		s-24.1-23-36.1-32.3v146.8h-78V308.2h78v130.2c20.1-21.1,40.4-43.1,61.1-66.1c20.7-23,39.8-44.4,57.3-64.1h92.6
		c-23.6,28.1-47.3,55.1-71.2,81c-23.9,25.9-49,52-75.3,78.2c27.7,23.1,54.5,50.5,80.2,82.3s50.5,66.7,74.3,105H1463.7z"/>
	<path class="st4" d="M1596.5,400.7c12.7-3.7,29-7.1,49-10.2c20-3.2,41-4.8,63-4.8c22.3,0,40.9,2.9,55.8,8.8
		c14.8,5.8,26.6,14.1,35.2,24.8c8.7,10.7,14.8,23.3,18.5,38c3.7,14.7,5.5,31,5.5,49v148.5H1749V515.2c0-24-3.2-41-9.5-51
		c-6.3-10-18.2-15-35.5-15c-5.3,0-11,0.2-17,0.8s-11.3,1.1-16,1.8v203h-74.5V400.7z"/>
	<path class="st4" d="M2137,522.7c0,20.7-3,39.6-9,56.8c-6,17.2-14.7,31.8-26,44c-11.3,12.2-24.9,21.6-40.8,28.2
		c-15.8,6.7-33.6,10-53.2,10c-19.3,0-36.9-3.3-52.8-10c-15.8-6.7-29.4-16.1-40.8-28.2c-11.3-12.2-20.2-26.8-26.5-44
		c-6.3-17.2-9.5-36.1-9.5-56.8c0-20.7,3.2-39.5,9.8-56.5s15.5-31.5,27-43.5s25.2-21.3,41-28c15.8-6.7,33.1-10,51.8-10
		c19,0,36.4,3.3,52.2,10c15.8,6.7,29.4,16,40.8,28c11.3,12,20.2,26.5,26.5,43.5C2133.8,483.2,2137,502,2137,522.7z M2061,522.7
		c0-23-4.6-41.1-13.8-54.3c-9.2-13.2-22.2-19.8-39.2-19.8s-30.2,6.6-39.5,19.8c-9.3,13.2-14,31.2-14,54.3c0,23,4.7,41.2,14,54.8
		c9.3,13.5,22.5,20.2,39.5,20.2s30.1-6.8,39.2-20.2C2056.4,564,2061,545.7,2061,522.7z"/>
	<path class="st4" d="M2348.7,503.7c-6.7,25.3-13.8,50.5-21.2,75.5s-15.4,50.2-23.8,75.5h-58c-6-14-12.5-30.7-19.6-50
		c-7-19.3-14.3-40.4-21.8-63.2c-7.5-22.8-15.2-47-23.1-72.5s-15.5-51.2-22.8-77.2h78.5c2.7,12,5.6,25.1,8.8,39.2
		c3.2,14.2,6.5,28.8,10.1,43.8s7.2,30.1,11.1,45.3c3.9,15.2,7.8,29.8,11.8,43.8c4.3-14.7,8.6-29.7,12.8-45
		c4.2-15.3,8.2-30.4,12-45.3c3.8-14.8,7.5-29.2,11-43c3.5-13.8,6.6-26.8,9.2-38.8h54c2.7,12,5.7,24.9,9,38.8
		c3.3,13.8,6.8,28.2,10.5,43c3.7,14.8,7.5,29.9,11.5,45.3c4,15.3,8.2,30.3,12.5,45c4-14,8-28.6,12.1-43.8c4-15.2,7.8-30.3,11.3-45.3
		c3.5-15,6.9-29.6,10.1-43.8c3.2-14.2,6.1-27.2,8.8-39.2h77.5c-7.4,26-15,51.8-22.8,77.2s-15.5,49.7-23.1,72.5
		c-7.5,22.8-14.9,43.9-22.1,63.2c-7.2,19.3-13.8,36-19.8,50h-58c-8.3-25.3-16.5-50.5-24.5-75.5S2355.4,529,2348.7,503.7z"/>
	<path class="st4" d="M2685.5,659.7c-21.7-0.3-39.2-2.7-52.8-7s-24.2-10.4-32-18.2c-7.8-7.8-13.2-17.3-16-28.5
		c-2.8-11.2-4.2-23.8-4.2-37.8V278.7l74.5-12v286.5c0,6.7,0.5,12.7,1.5,18c1,5.3,2.9,9.8,5.8,13.5c2.8,3.7,6.9,6.7,12.2,9
		c5.3,2.3,12.5,3.8,21.5,4.5L2685.5,659.7z"/>
	<path class="st4" d="M2726,525.2c0-23.3,3.6-43.8,10.8-61.3c7.2-17.5,16.6-32.1,28.2-43.8c11.7-11.7,25.1-20.5,40.2-26.5
		c15.2-6,30.8-9,46.8-9c37.3,0,66.8,11.4,88.5,34.2c21.7,22.8,32.5,56.4,32.5,100.8c0,4.3-0.2,9.1-0.5,14.2c-0.3,5.2-0.7,9.8-1,13.8
		h-169c1.7,15.3,8.8,27.5,21.5,36.5c12.7,9,29.7,13.5,51,13.5c13.7,0,27.1-1.2,40.2-3.8c13.2-2.5,23.9-5.6,32.2-9.2l10,60.5
		c-4,2-9.3,4-16,6c-6.7,2-14.1,3.8-22.2,5.2c-8.2,1.5-16.9,2.8-26.2,3.8c-9.3,1-18.7,1.5-28,1.5c-23.7,0-44.2-3.5-61.8-10.5
		s-32-16.6-43.5-28.8c-11.5-12.2-20-26.6-25.5-43.2C2728.7,562.5,2726,544.5,2726,525.2z M2901,496.7c-0.3-6.3-1.4-12.5-3.2-18.5
		c-1.8-6-4.7-11.3-8.5-16c-3.8-4.7-8.7-8.5-14.5-11.5c-5.8-3-13.1-4.5-21.8-4.5c-8.3,0-15.5,1.4-21.5,4.2c-6,2.8-11,6.6-15,11.2
		c-4,4.7-7.1,10.1-9.2,16.2c-2.2,6.2-3.8,12.4-4.8,18.8H2901z"/>
	<path class="st4" d="M3262.5,646.2c-6.7,2-14.3,3.9-23,5.8c-8.7,1.8-17.8,3.4-27.2,4.8c-9.5,1.3-19.2,2.4-29,3.2
		c-9.8,0.8-19.2,1.2-28.2,1.2c-21.7,0-41-3.2-58-9.5s-31.3-15.4-43-27.2c-11.7-11.8-20.6-26.2-26.8-43c-6.2-16.8-9.2-35.8-9.2-56.8
		c0-21.3,2.7-40.6,8-57.8c5.3-17.2,13-31.8,23-43.8s22.2-21.2,36.8-27.5c14.5-6.3,31.1-9.5,49.8-9.5c10.3,0,19.6,1,27.8,3
		c8.2,2,16.4,4.8,24.8,8.5v-119l74.5-12V646.2z M3094,521.2c0,23,5.2,41.5,15.5,55.5c10.3,14,25.7,21,46,21c6.7,0,12.8-0.2,18.5-0.8
		c5.7-0.5,10.3-1.1,14-1.8V459.7c-4.7-3-10.8-5.5-18.2-7.5s-15.1-3-22.8-3C3111.6,449.2,3094,473.2,3094,521.2z"/>
	<path class="st4" d="M3559.5,621.7c0,43-10.9,74.9-32.8,95.8c-21.8,20.8-55.6,31.2-101.2,31.2c-16,0-32-1.4-48-4.2
		c-16-2.8-30.8-6.6-44.5-11.2l13-62.5c11.7,4.7,23.9,8.3,36.8,11c12.8,2.7,27.4,4,43.8,4c21.3,0,36.4-4.7,45.2-14
		c8.8-9.3,13.2-21.3,13.2-36v-9.5c-8,3.7-16.2,6.4-24.8,8.2c-8.5,1.8-17.8,2.8-27.8,2.8c-36.3,0-64.2-10.8-83.5-32.2
		c-19.3-21.5-29-51.6-29-90.2c0-19.3,3-36.9,9-52.8c6-15.8,14.8-29.4,26.2-40.8c11.5-11.3,25.6-20.1,42.2-26.2
		c16.7-6.2,35.5-9.2,56.5-9.2c9,0,18.2,0.4,27.8,1.2c9.5,0.8,18.9,1.9,28.2,3.2c9.3,1.3,18.2,2.9,26.8,4.8
		c8.5,1.8,16.1,3.8,22.8,5.8V621.7z M3396,514.7c0,41.7,16.8,62.5,50.5,62.5c7.7,0,14.8-1,21.5-3c6.7-2,12.3-4.3,17-7v-119
		c-3.7-0.7-8-1.2-13-1.8s-10.8-0.8-17.5-0.8c-19.7,0-34.3,6.5-44,19.5C3400.8,478.2,3396,494.7,3396,514.7z"/>
	<path class="st4" d="M3617,525.2c0-23.3,3.6-43.8,10.8-61.3c7.2-17.5,16.6-32.1,28.2-43.8c11.7-11.7,25.1-20.5,40.2-26.5
		c15.2-6,30.8-9,46.8-9c37.3,0,66.8,11.4,88.5,34.2c21.7,22.8,32.5,56.4,32.5,100.8c0,4.3-0.2,9.1-0.5,14.2c-0.3,5.2-0.7,9.8-1,13.8
		h-169c1.7,15.3,8.8,27.5,21.5,36.5c12.7,9,29.7,13.5,51,13.5c13.7,0,27.1-1.2,40.2-3.8c13.2-2.5,23.9-5.6,32.2-9.2l10,60.5
		c-4,2-9.3,4-16,6c-6.7,2-14.1,3.8-22.2,5.2c-8.2,1.5-16.9,2.8-26.2,3.8c-9.3,1-18.7,1.5-28,1.5c-23.7,0-44.2-3.5-61.8-10.5
		s-32-16.6-43.5-28.8c-11.5-12.2-20-26.6-25.5-43.2C3619.7,562.5,3617,544.5,3617,525.2z M3792,496.7c-0.3-6.3-1.4-12.5-3.2-18.5
		c-1.8-6-4.7-11.3-8.5-16c-3.8-4.7-8.7-8.5-14.5-11.5c-5.8-3-13.1-4.5-21.8-4.5c-8.3,0-15.5,1.4-21.5,4.2c-6,2.8-11,6.6-15,11.2
		c-4,4.7-7.1,10.1-9.2,16.2c-2.2,6.2-3.8,12.4-4.8,18.8H3792z"/>
	<path class="st4" d="M4159,654.7c-22.3-39.7-46.5-78.8-72.5-117.5c-26-38.7-53.7-75.2-83-109.5v227h-77V308.2h63.5
		c11,11,23.2,24.5,36.5,40.5c13.3,16,26.9,33.1,40.8,51.2c13.8,18.2,27.6,37,41.2,56.5c13.7,19.5,26.5,38.2,38.5,56.3V308.2h77.5
		v346.5H4159z"/>
</g>
</svg>
