<?xml version="1.0" encoding="utf-8"?>
<!-- Generator: Adobe Illustrator 24.0.2, SVG Export Plug-In . SVG Version: 6.00 Build 0)  -->
<svg version="1.1" id="e7d24159-a105-4c62-98a5-787fb4a09ca9"
	 xmlns="http://www.w3.org/2000/svg" xmlns:xlink="http://www.w3.org/1999/xlink" x="0px" y="0px" viewBox="0 0 900 500"
	 style="enable-background:new 0 0 900 500;" xml:space="preserve">
<style type="text/css">
	.st0{fill-rule:evenodd;clip-rule:evenodd;fill:#D9D9D9;}
	.st1{fill:none;stroke:#A6A6A6;stroke-width:10;stroke-miterlimit:8;stroke-dasharray:10,10;}
	.st2{fill:#AAAAAA;}
</style>
<title>personal_info</title>
<path class="st0" d="M31.2,52.5C31.2,31.2,48.5,14,69.7,14h758.5c21.3,0,38.5,17.2,38.5,38.5v393c0,21.3-17.2,38.5-38.5,38.5H69.7
	c-21.3,0-38.5-17.2-38.5-38.5V52.5z"/>
<path class="st1" d="M31.2,52.5C31.2,31.2,48.5,14,69.7,14h758.5c21.3,0,38.5,17.2,38.5,38.5v393c0,21.3-17.2,38.5-38.5,38.5H69.7
	c-21.3,0-38.5-17.2-38.5-38.5V52.5z"/>
<g id="lDGG4D.tif">
	<g>
		<path class="st2" d="M551,328.2c-73.2,0-146.5,0-219.7,0c-0.2-0.2-0.4-0.4-0.7-0.5c-10.6-3.4-15.7-10.2-15.7-21.3
			c0-39.9,0.2-79.8-0.1-119.7c-0.1-13,10.1-22.1,21.6-21.7c12.7,0.4,25.5,0.1,38.2,0c1.3,0,3-0.6,3.9-1.5c7.5-7.5,15-15,22.4-22.6
			c4.3-4.4,9.4-6.8,15.6-6.8c16.1,0.1,32.1,0.2,48.2-0.1c7.4-0.1,13.3,2.5,18.3,7.7c7,7.3,14.2,14.4,21.4,21.5c1,1,2.7,1.7,4.2,1.7
			c12.9,0.1,25.9,0,38.8,0.1c7.9,0.1,13.9,3.9,17.7,10.8c1,1.7,1.5,3.7,2.3,5.5c0,43.5,0,87,0,130.4c-1.5,3-2.8,6.2-4.7,8.9
			C559.9,324.8,555.4,326.6,551,328.2z M441.2,297.4c31,0,55.9-25,55.9-56.1c0-30.9-24.9-55.9-55.8-56s-56.1,25-56.1,56
			C385.2,272.4,410.2,297.4,441.2,297.4z M543,197.3c4.8,0,8.5-3.6,8.6-8.3c0-4.7-3.8-8.5-8.5-8.5c-4.5,0-8.3,3.7-8.4,8.2
			C534.6,193.3,538.4,197.3,543,197.3z"/>
		<path class="st2" d="M441.1,199c23.5,0,42.5,18.9,42.5,42.3c0,23.6-19,42.6-42.5,42.6c-23.3,0-42.3-19.1-42.3-42.5
			C398.7,217.9,417.6,199,441.1,199z"/>
	</g>
</g>
</svg>
