<?xml version="1.0" encoding="utf-8"?>
<!-- Generator: Adobe Illustrator 24.0.2, SVG Export Plug-In . SVG Version: 6.00 Build 0)  -->
<svg version="1.1" id="Layer_1" xmlns="http://www.w3.org/2000/svg" xmlns:xlink="http://www.w3.org/1999/xlink" x="0px" y="0px"
	 viewBox="0 0 671 661.2" style="enable-background:new 0 0 671 661.2;" xml:space="preserve">
<style type="text/css">
	.st0{fill:url(#SVGID_1_);stroke:#FFFFFF;stroke-miterlimit:10;}
	.st1{fill:url(#SVGID_2_);stroke:#FFFFFF;stroke-miterlimit:10;}
	.st2{fill:url(#SVGID_3_);}
	.st3{fill:url(#SVGID_4_);}
	.st4{fill:url(#SVGID_5_);}
	.st5{fill:url(#SVGID_6_);}
	.st6{fill:url(#SVGID_7_);}
	.st7{fill:url(#SVGID_8_);}
	.st8{fill:url(#SVGID_9_);}
	.st9{fill:url(#SVGID_10_);}
	.st10{fill:url(#SVGID_11_);}
	.st11{fill:url(#SVGID_12_);}
	.st12{fill:url(#SVGID_13_);}
	.st13{fill:url(#SVGID_14_);}
	.st14{fill:url(#SVGID_15_);}
	.st15{fill:url(#SVGID_16_);}
	.st16{fill:#595959;}
	.st17{font-family:'Arial-BoldItalicMT';}
	.st18{font-size:150px;}
	.st19{fill:#F1F2F2;}
	.st20{font-size:30px;}
	.st21{fill:#F3CF6F;}
	.st22{fill:#F5DAA1;}
	.st23{fill:#F8EFB4;}
	.st24{fill:#F9EDB2;}
	.st25{fill:#FDFFFF;}
</style>
<linearGradient id="SVGID_1_" gradientUnits="userSpaceOnUse" x1="105.4" y1="-90.2603" x2="121.88" y2="-90.2603" gradientTransform="matrix(1 0 0 -1 0 661.8898)">
	<stop  offset="0.1861" style="stop-color:#9E1F63"/>
	<stop  offset="0.9286" style="stop-color:#000000"/>
</linearGradient>
<path class="st0" d="M121.9,756.9c-1.2-0.5-2.3-1-3.5-1.5c-4.7-2.2-9-4.9-13-8c0.4,0.2,0.8,0.5,1.2,0.7L121.9,756.9z"/>
<linearGradient id="SVGID_2_" gradientUnits="userSpaceOnUse" x1="105.4" y1="-85.5103" x2="105.4" y2="-85.5103" gradientTransform="matrix(1 0 0 -1 0 661.8898)">
	<stop  offset="0.1861" style="stop-color:#9E1F63"/>
	<stop  offset="0.9286" style="stop-color:#000000"/>
</linearGradient>
<path class="st1" d="M105.4,747.4"/>
<linearGradient id="SVGID_3_" gradientUnits="userSpaceOnUse" x1="341.0567" y1="669.0632" x2="331.2141" y2="340.7811" gradientTransform="matrix(1 0 0 -1 0 661.8898)">
	<stop  offset="0.2791" style="stop-color:#FFFFFF"/>
	<stop  offset="0.9091" style="stop-color:#FDEC7F"/>
</linearGradient>
<path class="st2" d="M354.2,330.8h-31.6c0,0-51.6-338.1,0-332.4s-19.6,0,31.6,0S354.2,330.8,354.2,330.8z"/>
<linearGradient id="SVGID_4_" gradientUnits="userSpaceOnUse" x1="-220.244" y1="846.733" x2="-230.0866" y2="518.4507" gradientTransform="matrix(-1 -5.511503e-03 -5.511503e-03 1 119.5131 -179.1317)">
	<stop  offset="0.2791" style="stop-color:#FFFFFF"/>
	<stop  offset="0.9091" style="stop-color:#FDEC7F"/>
</linearGradient>
<path class="st3" d="M323.8,330.8l31.6,0.2c0,0,49.7,338.4-1.8,332.4s19.6,0.1-31.6-0.2S323.8,330.8,323.8,330.8z"/>
<linearGradient id="SVGID_5_" gradientUnits="userSpaceOnUse" x1="-39.1483" y1="476.834" x2="-48.991" y2="148.5518" gradientTransform="matrix(8.024819e-03 -1 -1 -8.024819e-03 473.6664 296.6511)">
	<stop  offset="0.2791" style="stop-color:#FFFFFF"/>
	<stop  offset="0.9091" style="stop-color:#FDEC7F"/>
</linearGradient>
<path class="st4" d="M334.6,321.5l-0.3,31.6c0,0-338.5,48.9-332.3-2.7S1.8,370,2.2,318.9S334.6,321.5,334.6,321.5z"/>
<linearGradient id="SVGID_6_" gradientUnits="userSpaceOnUse" x1="152.994" y1="1028.2036" x2="143.1516" y2="699.9214" gradientTransform="matrix(-7.872688e-03 1 1 7.872688e-03 -350.6132 182.6317)">
	<stop  offset="0.2791" style="stop-color:#FFFFFF"/>
	<stop  offset="0.9091" style="stop-color:#FDEC7F"/>
</linearGradient>
<path class="st5" d="M338.3,354.2l0.2-31.6c0,0,338.5-48.9,332.3,2.6s0.2-19.6-0.2,31.6S338.3,354.2,338.3,354.2z"/>
<linearGradient id="SVGID_7_" gradientUnits="userSpaceOnUse" x1="340.1766" y1="873.1831" x2="330.334" y2="544.9009" gradientTransform="matrix(0.7688 0.6395 0.6395 -0.7688 -257.4114 526.541)">
	<stop  offset="0.2791" style="stop-color:#FFFFFF"/>
	<stop  offset="0.9091" style="stop-color:#FDEC7F"/>
</linearGradient>
<path class="st6" d="M356.5,341l-24.3-20.2c0,0,176.6-292.9,212.5-255.5s-15-12.5,24.3,20.2C608.4,118.2,356.5,341,356.5,341z"/>
<linearGradient id="SVGID_8_" gradientUnits="userSpaceOnUse" x1="-218.1981" y1="642.6217" x2="-228.0407" y2="314.3395" gradientTransform="matrix(-0.7653 -0.6437 -0.6437 0.7653 372.2867 -43.6257)">
	<stop  offset="0.2791" style="stop-color:#FFFFFF"/>
	<stop  offset="0.9091" style="stop-color:#FDEC7F"/>
</linearGradient>
<path class="st7" d="M333.1,321.6l24.1,20.3c0,0-178.2,292-213.9,254.3c-35.8-37.6,15,12.6-24.1-20.3
	C80,543,333.1,321.6,333.1,321.6z"/>
<linearGradient id="SVGID_9_" gradientUnits="userSpaceOnUse" x1="165.0718" y1="479.3508" x2="155.2292" y2="151.0685" gradientTransform="matrix(0.6456 -0.7636 -0.7636 -0.6456 340.2688 548.6064)">
	<stop  offset="0.2791" style="stop-color:#FFFFFF"/>
	<stop  offset="0.9091" style="stop-color:#FDEC7F"/>
</linearGradient>
<path class="st8" d="M347.3,321.3L327,345.4c0,0-291.5-178.9-253.8-214.6s-12.7,15,20.4-24.1S347.3,321.3,347.3,321.3z"/>
<linearGradient id="SVGID_10_" gradientUnits="userSpaceOnUse" x1="-51.0543" y1="1025.7134" x2="-60.8969" y2="697.4312" gradientTransform="matrix(-0.6455 0.7637 0.7637 0.6455 -220.424 -66.0921)">
	<stop  offset="0.2791" style="stop-color:#FFFFFF"/>
	<stop  offset="0.9091" style="stop-color:#FDEC7F"/>
</linearGradient>
<path class="st9" d="M329.3,348.9l20.4-24.1c0,0,291.5,178.9,253.8,214.5s12.7-15-20.4,24.1C550.1,602.5,329.3,348.9,329.3,348.9z"
	/>
<linearGradient id="SVGID_11_" gradientUnits="userSpaceOnUse" x1="346.1658" y1="227.8075" x2="348.3656" y2="446.1587" gradientTransform="matrix(1 0 0 -1 0 661.8898)">
	<stop  offset="0.2054" style="stop-color:#6F2B8C"/>
	<stop  offset="0.7535" style="stop-color:#250E1B"/>
</linearGradient>
<path class="st10" d="M456.5,278.3v86.4c0,12-6.4,23.1-16.9,29.1L364.2,437c-10.4,6-23.3,6-33.8,0L255,393.8
	c-10.5-6-16.9-17.1-16.9-29.1v-86.4c0-12,6.4-23.1,16.9-29l75.4-43.2c10.5-6,23.3-6,33.8,0l75.4,43.2
	C450.1,255.3,456.5,266.4,456.5,278.3z"/>
<linearGradient id="SVGID_12_" gradientUnits="userSpaceOnUse" x1="348.6223" y1="436.3283" x2="345.9177" y2="240.0033" gradientTransform="matrix(1 0 0 -1 0 661.8898)">
	<stop  offset="0.2054" style="stop-color:#FFFFFF"/>
	<stop  offset="0.7535" style="stop-color:#424C79"/>
</linearGradient>
<path class="st11" d="M445.5,282.7v77.7c0,10.8-5.8,20.7-15.2,26.1l-67.8,38.9c-9.4,5.4-21,5.4-30.4,0l-67.8-38.9
	c-9.4-5.4-15.2-15.4-15.2-26.1v-77.7c0-10.8,5.8-20.7,15.2-26.1l67.8-38.9c9.4-5.4,21-5.4,30.4,0l67.8,38.9
	C439.7,262,445.5,271.9,445.5,282.7z"/>
<linearGradient id="SVGID_13_" gradientUnits="userSpaceOnUse" x1="270.2794" y1="397.9864" x2="418.9633" y2="286.4816" gradientTransform="matrix(1 0 0 -1 0 661.8898)">
	<stop  offset="0.1861" style="stop-color:#958EC4"/>
	<stop  offset="0.7535" style="stop-color:#6A7BBC"/>
</linearGradient>
<path class="st12" d="M440.2,284.8v73.6c0,10.2-5.5,19.6-14.4,24.7l-64.2,36.8c-8.9,5.1-19.8,5.1-28.8,0l-64.2-36.8
	c-8.9-5.1-14.4-14.5-14.4-24.7v-73.6c0-10.2,5.5-19.6,14.4-24.7l64.2-36.8c8.9-5.1,19.9-5.1,28.8,0l64.2,36.8
	C434.8,265.2,440.2,274.6,440.2,284.8z"/>
<linearGradient id="SVGID_14_" gradientUnits="userSpaceOnUse" x1="399.1502" y1="328.4557" x2="423.1793" y2="325.877" gradientTransform="matrix(1 0 0 -1 0 661.8898)">
	<stop  offset="0.1861" style="stop-color:#8290C8"/>
	<stop  offset="0.8376" style="stop-color:#7A92CA"/>
</linearGradient>
<path class="st13" d="M440.2,284.8v73.6c0,10.2-5.5,19.6-14.4,24.7l-64.2,36.8c-8.9,5.1-19.9,5.1-28.8,0c0,0-41.4-22.8-20.8-22.8
	c46.4,0,84-47.2,84-105.5c0-20.5-4.7-39.7-12.7-55.9l42.5,24.4C434.8,265.2,440.2,274.6,440.2,284.8z"/>
<linearGradient id="SVGID_15_" gradientUnits="userSpaceOnUse" x1="353.5183" y1="359.4178" x2="332.1619" y2="444.8154" gradientTransform="matrix(1 0 0 -1 0 661.8898)">
	<stop  offset="0.4467" style="stop-color:#8BA4D5"/>
	<stop  offset="0.4939" style="stop-color:#8BA4D4"/>
	<stop  offset="1" style="stop-color:#8BA3D3"/>
</linearGradient>
<path class="st14" d="M440.2,284.8v73.6c0,10.2-5.5,19.6-14.4,24.7l-64.2,36.8c-8.9,5.1-19.9,5.1-28.8,0l-48.9-28
	c42.1,17.1,94.6-9.6,118.8-61.2c12.5-26.5,15.1-54.5,9.4-78.4l13.6,7.8C434.8,265.2,440.2,274.6,440.2,284.8z"/>
<linearGradient id="SVGID_16_" gradientUnits="userSpaceOnUse" x1="290.2" y1="292.5773" x2="440.2" y2="292.5773" gradientTransform="matrix(1 0 0 -1 0 661.8898)">
	<stop  offset="0.1861" style="stop-color:#7D93CA"/>
	<stop  offset="0.9286" style="stop-color:#7D93CA"/>
</linearGradient>
<path class="st15" d="M440.2,314.9v43.5c0,10.2-5.5,19.6-14.4,24.7l-64.2,36.8c-8.9,5.1-19.8,5.1-28.8,0l-42.6-24.4
	c13.7,0.8,28.2,0,42.9-2.7C386.6,382.8,427.9,351.1,440.2,314.9z"/>
<text transform="matrix(1 0 0 1 311.6722 369.2803)" class="st16 st17 st18">4</text>
<text transform="matrix(1 0 0 1 269.4414 350.7063)" class="st19 st17 st20">LV</text>
<polygon class="st21" points="502.7,147.7 513.5,169.5 537.4,172.9 520.1,189.8 524.2,213.7 502.7,202.4 481.3,213.7 485.4,189.8 
	468.1,172.9 492,169.5 "/>
<polygon class="st22" points="133.6,363.5 144.3,385.2 168.2,388.7 150.9,405.6 155,429.5 133.6,418.2 112.1,429.5 116.2,405.6 
	98.9,388.7 122.8,385.2 "/>
<polygon class="st23" points="201.5,131.6 212.2,153.3 236.2,156.8 218.8,173.7 222.9,197.5 201.5,186.3 180.1,197.5 184.2,173.7 
	166.8,156.8 190.8,153.3 "/>
<polygon class="st24" points="502.7,396.5 513.5,418.2 537.4,421.7 520.1,438.6 524.2,462.4 502.7,451.2 481.3,462.4 485.4,438.6 
	468.1,421.7 492,418.2 "/>
<text transform="matrix(1 0 0 1 306.2529 357.98)" class="st25 st17 st18">4</text>
</svg>
