<?xml version="1.0" encoding="utf-8"?>
<!-- Generator: Adobe Illustrator 24.0.2, SVG Export Plug-In . SVG Version: 6.00 Build 0)  -->
<svg version="1.1" id="Layer_1" xmlns="http://www.w3.org/2000/svg" xmlns:xlink="http://www.w3.org/1999/xlink" x="0px" y="0px"
	 viewBox="0 0 401 479.9" style="enable-background:new 0 0 401 479.9;" xml:space="preserve">
<style type="text/css">
	.st0{fill:#DDDDDD;}
	.st1{fill:#F1F482;}
	.st2{fill:#F2E5AD;}
	.st3{fill:#E6BBF9;}
	.st4{fill:#DADADA;}
	.st5{fill:#C4F7F4;}
	.st6{fill:#F4D484;}
	.st7{fill:#A2F2C8;}
</style>
<g id="zdXRg7.tif">
	<g>
		<path class="st0" d="M187.9,42.2c-7.3,0.5-14.1,4.1-15.2,14.9c-0.4-4-1.5-7.7-4.5-10.6c-3-2.9-6.7-3.9-10.6-4.3
			c10.7-1,14.3-7.5,15.1-14.9C173.6,36.6,178.8,41.4,187.9,42.2z"/>
		<path class="st0" d="M242.6,82.2c9.3-1.4,17.6-5.8,20-20.1c1,5.5,2.5,10.3,6.3,13.9c3.8,3.7,8.5,5.3,14.3,6.1
			c-12,1.6-18.8,8.1-20.6,19.8C260.9,90.4,254.2,83.8,242.6,82.2z"/>
	</g>
</g>
<g id="zdXRg7.tif_1_">
	<g>
		<path class="st1" d="M63.4,343.3c-7.3,0.5-14.1,4.1-15.2,14.9c-0.4-4-1.5-7.7-4.5-10.6c-3-2.9-6.7-3.9-10.6-4.3
			c10.7-1,14.3-7.5,15.1-14.9C49.2,337.6,54.3,342.5,63.4,343.3z"/>
		<path class="st1" d="M118.2,383.3c9.3-1.4,17.6-5.8,20-20.1c1,5.5,2.5,10.3,6.3,13.9c3.8,3.7,8.5,5.3,14.3,6.1
			c-12,1.6-18.8,8.1-20.6,19.8C136.4,391.5,129.8,384.9,118.2,383.3z"/>
	</g>
</g>
<g id="zdXRg7.tif_2_">
	<g>
		<path class="st2" d="M43.2,30.9c-7.3,0.5-14.1,4.1-15.2,14.9c-0.4-4-1.5-7.7-4.5-10.6c-3-2.9-6.7-3.9-10.6-4.3
			c10.7-1,14.3-7.5,15.1-14.9C29,25.2,34.1,30.1,43.2,30.9z"/>
	</g>
</g>
<g id="zdXRg7.tif_3_">
	<g>
		<path class="st2" d="M85.6,423.6c-7.3,0.5-14.1,4.1-15.2,14.9c-0.4-4-1.5-7.7-4.5-10.6c-3-2.9-6.7-3.9-10.6-4.3
			c10.7-1,14.3-7.5,15.1-14.9C71.4,418,76.5,422.8,85.6,423.6z"/>
		<path class="st2" d="M140.4,463.6c9.3-1.4,17.6-5.8,20-20.1c1,5.5,2.5,10.3,6.3,13.9c3.8,3.7,8.5,5.3,14.3,6.1
			c-12,1.6-18.8,8.1-20.6,19.8C158.6,471.8,152,465.2,140.4,463.6z"/>
	</g>
</g>
<g id="vdsLyo.tif">
	<g>
		<path class="st3" d="M212.6,155.8c-0.3,0.3-0.6,0.6-0.9,0.8c-3.5,2.3-7,4.6-10.6,6.9c-6.1,4-12.3,8-18.4,12
			c-0.1,0-0.1,0.1-0.2,0.1c-0.4,0.3-0.9,0.7-1.4,0.1c-0.4-0.5,0-0.9,0.4-1.3c3.8-4.2,7.6-8.4,11.4-12.6c3.9-4.4,7.9-8.8,11.9-13.1
			c0.8-0.9,1.1-0.9,1.9,0c1.8,2.1,3.6,4.1,5.3,6.2C212.2,155.1,212.4,155.4,212.6,155.8z"/>
		<path class="st3" d="M289.1,264.5c0,1.1-0.1,2.1-0.1,3.2c0,0.9-0.2,1.1-1.1,1c-2.3-0.1-4.5-0.3-6.8-0.2
			c-5.2,0.2-10.3,1.3-15.3,2.7c-3.5,1-7,2.2-10.5,3.3c-0.2,0.1-0.3,0.2-0.5,0.2c-0.3-0.1-0.7-0.1-0.8-0.4c-0.1-0.1,0.1-0.6,0.2-0.8
			c0.8-0.6,1.7-1.3,2.6-1.8c8-5.2,16.7-8.5,25.9-10.5c1.8-0.4,3.7-0.6,5.5-0.9c0.8-0.1,1.1,0.1,1.1,1
			C289.1,262.4,289.1,263.5,289.1,264.5C289.1,264.5,289.1,264.5,289.1,264.5z"/>
	</g>
</g>
<g id="RGawPL.tif_1_">
	<g>
		<path class="st1" d="M36.8,163.4c0.5,0.9,1,1.8,1.6,2.7c0.1,0.2,0.2,0.3,0.3,0.4c0.3,0.4,0.9,0.5,1.3,0.2c0.4-0.3,0.5-0.8,0.2-1.3
			c-0.5-0.9-1.1-1.9-1.6-2.8c-0.1-0.1-0.1-0.3-0.2-0.4c1.3-0.8,2.6-1.6,4.1-1.9c1.1-0.2,1.7,0.2,2.2,1.2c3.4,7.6,6.7,15.1,10.1,22.7
			c0.3,0.6,0.2,1.1-0.2,1.5c-0.4,0.4-0.8,0.8-1.2,1.1c-0.4,0.3-0.8,0.3-1.3,0.1c-5.9-2.6-11.7-5.2-17.6-7.8c-1.7-0.7-3.3-1.5-5-2.2
			c-1.2-0.5-1.6-1.2-1.3-2.5c0.3-1.4,1-2.6,1.8-3.9c0,0.4,0.1,0.7,0.1,1c0.2,1.2,1.1,1.9,2.2,1.9c0.6,0,1-0.3,1.4-0.7
			c0.5-0.6,0.7-1.2,0.8-2c0-0.5-0.3-0.9-0.8-0.9c-0.5,0-0.9,0.3-1,0.8c-0.1,0.3-0.1,0.5-0.2,0.8c0,0.1-0.2,0.2-0.3,0.3
			c-0.1-0.1-0.2-0.2-0.2-0.3c0-0.2-0.1-0.5,0-0.7c0-0.6,0-1.3-0.3-1.9c0-0.1,0-0.2,0-0.3C33.2,166.5,34.9,164.9,36.8,163.4
			C36.8,163.4,36.8,163.4,36.8,163.4z M42,180.4c0,0.8,0.7,1.4,1.5,1.4c0.7,0,1.3-0.7,1.3-1.4c0-0.8-0.7-1.4-1.5-1.4
			C42.6,178.9,42,179.6,42,180.4z"/>
	</g>
</g>
<g id="RGawPL.tif_2_">
	<g>
		<path class="st1" d="M341.3,122.7c-0.9,0.5-1.8,1-2.7,1.6c-0.2,0.1-0.3,0.2-0.4,0.3c-0.4,0.3-0.5,0.9-0.2,1.3
			c0.3,0.4,0.8,0.5,1.3,0.2c0.9-0.5,1.9-1.1,2.8-1.6c0.1-0.1,0.3-0.1,0.4-0.2c0.8,1.3,1.6,2.6,1.9,4.1c0.2,1.1-0.2,1.7-1.2,2.2
			c-7.6,3.4-15.1,6.7-22.7,10.1c-0.6,0.3-1.1,0.2-1.5-0.2c-0.4-0.4-0.8-0.8-1.1-1.2c-0.3-0.4-0.3-0.8-0.1-1.3
			c2.6-5.9,5.2-11.7,7.8-17.6c0.7-1.7,1.5-3.3,2.2-5c0.5-1.2,1.2-1.6,2.5-1.3c1.4,0.3,2.6,1,3.9,1.9c-0.4,0-0.7,0.1-1,0.1
			c-1.2,0.2-1.9,1.1-1.9,2.2c0,0.6,0.3,1,0.7,1.4c0.6,0.5,1.2,0.7,2,0.8c0.5,0,0.9-0.3,0.9-0.8c0-0.5-0.3-0.9-0.8-1
			c-0.3-0.1-0.5-0.1-0.8-0.2c-0.1,0-0.2-0.2-0.3-0.3c0.1-0.1,0.2-0.2,0.3-0.2c0.2,0,0.5-0.1,0.7,0c0.6,0,1.3,0,1.9-0.3
			c0.1,0,0.2,0,0.3,0C338.1,119.1,339.8,120.8,341.3,122.7C341.3,122.7,341.3,122.7,341.3,122.7z M324.3,127.9
			c-0.8,0-1.4,0.7-1.4,1.5c0,0.7,0.7,1.3,1.4,1.3c0.8,0,1.4-0.7,1.4-1.5C325.7,128.6,325.1,127.9,324.3,127.9z"/>
	</g>
</g>
<path class="st4" d="M370.4,337.1c-7.3,0.5-14.1,4.1-15.2,14.9c-0.4-4-1.5-7.7-4.5-10.6c-3-2.9-6.7-3.9-10.6-4.3
	c10.7-1,14.3-7.5,15.1-14.9C356.2,331.4,361.3,336.3,370.4,337.1z"/>
<g id="RGawPL.tif_3_">
	<g>
		<path class="st5" d="M366.5,442.9c-1.5,0.6-3,1.1-4.4,1.7c-0.3,0.1-0.5,0.2-0.7,0.4c-0.7,0.4-1,1.2-0.6,1.9
			c0.4,0.7,1.1,0.9,1.9,0.6c1.5-0.6,3.1-1.1,4.6-1.7c0.2-0.1,0.4-0.1,0.7-0.2c0.9,2.1,1.8,4.3,1.8,6.6c0,1.6-0.7,2.5-2.3,3
			c-12.1,3.3-24.2,6.6-36.3,9.8c-0.9,0.3-1.7,0.1-2.2-0.7c-0.5-0.7-1-1.4-1.4-2.1c-0.4-0.6-0.3-1.3,0.2-2
			c5.3-8.2,10.5-16.4,15.8-24.6c1.5-2.3,3-4.7,4.5-7c1.1-1.7,2.2-2.1,4-1.3c2,0.8,3.7,2.2,5.4,3.7c-0.6,0-1-0.1-1.5,0
			c-1.8,0.1-3.1,1.2-3.3,2.8c-0.1,0.9,0.2,1.6,0.7,2.3c0.7,0.9,1.7,1.4,2.8,1.6c0.7,0.2,1.4-0.3,1.6-1c0.2-0.7-0.2-1.4-0.9-1.7
			c-0.4-0.1-0.7-0.3-1.1-0.5c-0.2-0.1-0.2-0.3-0.3-0.5c0.2-0.1,0.4-0.3,0.5-0.3c0.4,0,0.7,0,1.1,0.1c1,0.2,1.9,0.3,2.9,0
			c0.1,0,0.3,0,0.4,0.1C362.6,436.8,364.7,439.7,366.5,442.9C366.5,442.9,366.5,442.9,366.5,442.9z M339.9,446.8
			c-1.2-0.2-2.3,0.7-2.5,2c-0.1,1,0.8,2.1,1.8,2.3c1.2,0.2,2.3-0.6,2.5-1.8C341.9,448,341.1,447,339.9,446.8z"/>
	</g>
</g>
<g id="zdXRg7.tif_4_">
	<g>
		<path class="st3" d="M126.3,104c-7.3,0.5-14.1,4.1-15.2,14.9c-0.4-4-1.5-7.7-4.5-10.6c-3-2.9-6.7-3.9-10.6-4.3
			c10.7-1,14.3-7.5,15.1-14.9C112,98.4,117.1,103.2,126.3,104z"/>
	</g>
</g>
<g id="zdXRg7.tif_6_">
	<g>
		<path class="st3" d="M393.1,162.9c-7.3,0.5-14.1,4.1-15.2,14.9c-0.4-4-1.5-7.7-4.5-10.6c-3-2.9-6.7-3.9-10.6-4.3
			c10.7-1,14.3-7.5,15.1-14.9C378.8,157.2,383.9,162.1,393.1,162.9z"/>
	</g>
</g>
<g id="zdXRg7.tif_5_">
	<g>
		<path class="st3" d="M156.5,254.8c-7.3,0.5-14.1,4.1-15.2,14.9c-0.4-4-1.5-7.7-4.5-10.6c-3-2.9-6.7-3.9-10.6-4.3
			c10.7-1,14.3-7.5,15.1-14.9C142.3,249.1,147.4,254,156.5,254.8z"/>
	</g>
</g>
<g id="zdXRg7.tif_7_">
	<g>
		<path class="st6" d="M340.9,225.1c-7.3,0.5-14.1,4.1-15.2,14.9c-0.4-4-1.5-7.7-4.5-10.6c-3-2.9-6.7-3.9-10.6-4.3
			c10.7-1,14.3-7.5,15.1-14.9C326.6,219.4,331.8,224.3,340.9,225.1z"/>
	</g>
</g>
<path class="st7" d="M323.1,16.8c0.4,0,0.8,0,1.2,0.1c4.1,0.9,8.2,1.7,12.3,2.6c7.2,1.5,14.3,3,21.5,4.5c0.1,0,0.2,0,0.3,0.1
	c0.5,0.1,1.1,0.2,1,0.9c-0.1,0.7-0.7,0.6-1.1,0.6c-5.7,0.3-11.3,0.6-17,0.9c-5.9,0.3-11.8,0.6-17.7,0.9c-1.2,0.1-1.4-0.1-1.3-1.3
	c0.2-2.7,0.4-5.4,0.6-8.1C323,17.6,323,17.3,323.1,16.8z"/>
<circle class="st3" cx="31.7" cy="263.9" r="3.6"/>
<circle class="st3" cx="176.4" cy="303.5" r="3.6"/>
<circle class="st3" cx="198.6" cy="218.8" r="3.6"/>
<circle class="st3" cx="96" cy="204" r="3.6"/>
<circle class="st3" cx="202.2" cy="89.1" r="3.6"/>
<circle class="st3" cx="107.5" cy="358.2" r="3.6"/>
<circle class="st3" cx="271.5" cy="405.7" r="3.6"/>
<g id="zdXRg7.tif_8_">
	<g>
		<path class="st6" d="M264.6,335.7c-7.3,0.5-14.1,4.1-15.2,14.9c-0.4-4-1.5-7.7-4.5-10.6c-3-2.9-6.7-3.9-10.6-4.3
			c10.7-1,14.3-7.5,15.1-14.9C250.4,330,255.5,334.9,264.6,335.7z"/>
	</g>
</g>
</svg>
