<?xml version="1.0" encoding="utf-8"?>
<!-- Generator: Adobe Illustrator 24.0.2, SVG Export Plug-In . SVG Version: 6.00 Build 0)  -->
<svg version="1.1" id="Layer_1" xmlns="http://www.w3.org/2000/svg" xmlns:xlink="http://www.w3.org/1999/xlink" x="0px" y="0px"
	 viewBox="0 0 406 306" style="enable-background:new 0 0 406 306;" xml:space="preserve">
<style type="text/css">
	.st0{opacity:0.3;fill:#E6E6E6;enable-background:new    ;}
	.st1{fill:#FFD200;}
	.st2{opacity:9.000000e-02;enable-background:new    ;}
	.st3{fill:#F4A28C;}
	.st4{fill:#24285B;}
	.st5{fill:#D62828;}
	.st6{fill:#E6E6E6;}
	.st7{opacity:0.58;fill:#D62828;enable-background:new    ;}
	.st8{opacity:0.73;fill:#D62828;enable-background:new    ;}
	.st9{opacity:0.31;fill:#CE8172;enable-background:new    ;}
	.st10{opacity:0.18;enable-background:new    ;}
	.st11{opacity:0.44;fill:#FFFFFF;enable-background:new    ;}
	.st12{opacity:0.23;fill:#FFD200;}
	.st13{opacity:0.45;fill:#C1C1C1;enable-background:new    ;}
	.st14{fill:#C1C1C1;}
	.st15{opacity:0.43;fill:#C1C1C1;enable-background:new    ;}
</style>
<ellipse class="st0" cx="199.3" cy="273.1" rx="160.7" ry="18.2"/>
<path class="st1" d="M87.6,163.9c0,0-23.9,11.4-27,37.8c-3.1,26.4-11.9,77.3,52.9,74.4c64.8-2.9,95.3-6.5,80.1-56
	S87.6,163.9,87.6,163.9z"/>
<path class="st2" d="M85.2,177.6c-1.4,7.6,2,15.3,8.6,19.4c8.8,5.8,22.3,26.4,32.8,36.8c3.3,3.3,5.1,7.8,5.1,12.4c0,1.9,0.8,4,3.2,6
	c7.3,6,37.9,8.9,55-9.4s-5.5-27.4-5.5-27.4l-75.2-40.7L85.2,177.6z"/>
<path class="st3" d="M251.4,267.3c0,0,1.6,4.1,5.6,4.9c4,0.9,6.2,5.8-2.6,5.1c-8.7-0.8-13.5,0.6-12.3-4.2c1.3-4.8,0.7-5.5,0.7-5.5
	L251.4,267.3z"/>
<path class="st3" d="M192.7,263.9c0,0-0.7,4.3,2.3,7.1c3,2.8,2.3,8.1-4.8,3c-7.1-5.1-11.9-6.4-8.4-9.9c3.5-3.5,3.4-4.4,3.4-4.4
	L192.7,263.9z"/>
<path class="st4" d="M200.3,203.2c0,0,53.4,0.5,52.9,64.3l-12.6,2.1c0,0-2.4-67.3-71.9-35.2l3.6-26.5L200.3,203.2z"/>
<path class="st2" d="M200.3,203.2c0,0,53.4,0.5,52.9,64.3l-12.6,2.1c0,0-2.4-67.3-71.9-35.2l3.6-26.5L200.3,203.2z"/>
<polygon class="st1" points="204.5,144.5 209.1,145.8 205.8,142.2 "/>
<path class="st3" d="M131.6,176.1c0,0,9.2,23.3,31.8,19.2c22.5-4.1,31.1-51.4,31.1-51.4s8.9-5.8,4.6-12.3
	c-4.3-6.5-11.3,7.5-11.3,7.5S178,179,157,166.1L131.6,176.1z"/>
<path class="st2" d="M131.6,176.1c0,0,9.2,23.3,31.8,19.2c22.5-4.1,31.1-51.4,31.1-51.4s8.9-5.8,4.6-12.3
	c-4.3-6.5-11.3,7.5-11.3,7.5S178,179,157,166.1L131.6,176.1z"/>
<path class="st5" d="M131.9,128.6l4.9,1c0,0,37.7,20.4,30.7,40.9s8.3,39.9,8.3,39.9L143,233.5c0,0-42.8-21.2-36.4-79.7
	C106.6,153.9,109.6,126.6,131.9,128.6z"/>
<rect x="173.4" y="161.7" transform="matrix(0.4333 -0.9012 0.9012 0.4333 -33.9374 276.1789)" class="st6" width="58.5" height="6.9"/>
<path class="st7" d="M305.9,263.1c0,0-10.4-2.8-12.7-12.5c0,0,16.1-3.3,16.6,13.4L305.9,263.1z"/>
<path class="st8" d="M307.1,262.1c0,0-7.3-11.5-0.9-22.2c0,0,12.3,7.8,6.8,22.2L307.1,262.1z"/>
<path class="st5" d="M309,262.1c0,0,3.8-12.1,15.4-14.4c0,0,2.2,7.9-7.5,14.5L309,262.1z"/>
<polygon class="st4" points="301.4,261.8 303.5,276.2 316.8,276.2 318.8,261.8 "/>
<polygon class="st3" points="130.1,103 123.3,126.9 136.8,129.7 136.3,111.1 "/>
<path class="st9" d="M136.6,115.2c-1.6-0.6-3-1.7-4.1-3.2c0,0-0.3,4.5,4.1,9.6V115.2z"/>
<path class="st3" d="M144,103.7c0,0-0.7,7.6-2.8,12.3c-0.9,1.9-3.1,2.8-5,1.9c0,0,0,0-0.1,0c-2.4-1.1-5.2-3.3-5.4-7.4l-1.1-6.9
	c-0.1-2.9,1.6-5.5,4.2-6.6C138.7,94.6,144.6,99.1,144,103.7z"/>
<path class="st3" d="M134.9,108.6c0,0,0.5-2.9-1.7-3c-2.2-0.2-2.9,4,0,4.9L134.9,108.6z"/>
<path class="st3" d="M143.3,108.4l1.6,3.2c0.3,0.6,0,1.3-0.6,1.6c-0.2,0.1-0.3,0.1-0.5,0.1h-2.9L143.3,108.4z"/>
<rect x="192.2" y="123.3" transform="matrix(0.5 -0.866 0.866 0.5 -21.5692 235.9738)" class="st4" width="2.7" height="26.8"/>
<path class="st10" d="M150.5,220.8l-7.5,12.7c0,0-27.2-13.2-35-48.9s17.9-21.8,17.9-21.8L150.5,220.8z"/>
<path class="st4" d="M143,233.5c0,0,25.2-51.4,62.5-51.2c37.3,0.2-11.2,83-11.2,83l-12.3-5c0,0,18.3-35.5,13.6-47
	C191,201.9,183.9,280.8,143,233.5z"/>
<path class="st3" d="M121.4,131.5c0,0,11.2-5.7,16.9,5.9s1.2,61.3,24.4,63.9c23.2,2.6,34.9-21.5,34.9-21.5s1.9-10.2,5.1-11.8
	c3.2-1.7,6,9,0,15.2c0,0-10.2,38.4-42.6,39.2C127.6,223.3,89.4,157.8,121.4,131.5z"/>
<path class="st4" d="M144.1,93.9c0,0,7.4,8.7-2.2,10.5c-9.6,1.8-11.5,3.5-10.6,13.2s4.7,18.6-8,24.6c-12.7,6.1-1.8,16.2-4.1,28.1
	s-13.5,20.1-27.7,12s-23.1-28.8-7.8-41.2c15.3-12.4,34.5-15.4,34.5-35.4S134.2,84.5,144.1,93.9z"/>
<rect x="196.5" y="178.4" transform="matrix(0.3562 -0.9344 0.9344 0.3562 -43.0666 304.3429)" class="st5" width="5.7" height="10.1"/>
<rect x="196.5" y="178.4" transform="matrix(0.3562 -0.9344 0.9344 0.3562 -43.0666 304.3429)" class="st11" width="5.7" height="10.1"/>
<path class="st12" d="M370.5,104.7h-66.8c-4.5,0-8.1-3.6-8.1-8.1V60.2c0-4.5,3.6-8.1,8.1-8.1h66.8c4.5,0,8.1,3.6,8.1,8.1v36.5
	C378.6,101.1,375,104.7,370.5,104.7z"/>
<path class="st12" d="M319.1,179.3h-55.7c-2.5,0-4.6-2.1-4.6-4.6v-43.4c0-2.5,2.1-4.6,4.6-4.6h55.7c2.5,0,4.6,2.1,4.6,4.6v43.4
	C323.7,177.2,321.6,179.3,319.1,179.3z"/>
<path class="st12" d="M150.5,54.4H103c-4.5,0-8.1-3.6-8.1-8.1V9.8c0-4.5,3.6-8.1,8.1-8.1h47.5c4.5,0,8.1,3.6,8.1,8.1v36.5
	C158.6,50.7,155,54.4,150.5,54.4z"/>
<circle class="st6" cx="134.5" cy="30.4" r="8.6"/>
<rect x="105" y="8" class="st13" width="24.2" height="33.6"/>
<rect x="124.8" y="4.7" class="st14" width="16.6" height="11.3"/>
<circle class="st6" cx="321.5" cy="69.6" r="8.6"/>
<rect x="340.7" y="62.3" class="st13" width="24.2" height="33.6"/>
<rect x="314.4" y="84.6" class="st14" width="16.6" height="11.3"/>
<circle class="st15" cx="278.5" cy="156.7" r="10.3"/>
<rect x="278.5" y="135.4" class="st15" width="17.9" height="17.9"/>
<rect x="301" y="140.9" class="st15" width="13.3" height="29.7"/>
</svg>
