<?xml version="1.0" encoding="utf-8"?>
<!-- Generator: Adobe Illustrator 24.0.2, SVG Export Plug-In . SVG Version: 6.00 Build 0)  -->
<svg version="1.1"
	 id="svg857" xmlns:cc="http://creativecommons.org/ns#" xmlns:dc="http://purl.org/dc/elements/1.1/" xmlns:inkscape="http://www.inkscape.org/namespaces/inkscape" xmlns:rdf="http://www.w3.org/1999/02/22-rdf-syntax-ns#" xmlns:sodipodi="http://sodipodi.sourceforge.net/DTD/sodipodi-0.dtd" xmlns:svg="http://www.w3.org/2000/svg"
	 xmlns="http://www.w3.org/2000/svg" xmlns:xlink="http://www.w3.org/1999/xlink" x="0px" y="0px" viewBox="0 0 512 512"
	 style="enable-background:new 0 0 512 512;" xml:space="preserve">
<sodipodi:namedview  bordercolor="#666666" borderopacity="1" gridtolerance="10" guidetolerance="10" id="namedview859" inkscape:current-layer="svg857" inkscape:cx="152.5551" inkscape:cy="260.17959" inkscape:pageopacity="0" inkscape:pageshadow="2" inkscape:window-height="1049" inkscape:window-maximized="1" inkscape:window-width="1740" inkscape:window-x="0" inkscape:window-y="23" inkscape:zoom="1.4355469" objecttolerance="10" pagecolor="#ffffff" showgrid="false">
	</sodipodi:namedview>
<title  id="title851">Newspaper</title>
<g id="VNKNzX_1_">
	<g>
		<path d="M512,85.7c-1.2,16.7-2.5,33.4-3.6,50.1c-1,17-1.8,33.9-2.7,52.1c-10.9-11.7-21-22.4-31.1-33.2c-1.6-0.3-3.3-0.7-4.9-1
			c-2.3,3.7-4.1,8.1-7.1,11.1c-32.5,31.7-65.2,63.1-97.7,94.7c-30.2,29.4-46.6,29.1-75.4-2.1c-16.9-18.4-33.6-37.1-50.6-55.9
			c-5.4,4.6-10.4,8.9-14.9,12.7c-9.8-13.2-19.3-26-29.3-39.5c13.9-12.1,28.7-25,44.5-38.8c29.7,31.7,59,63.1,87.4,93.5
			c37.1-36.5,73.6-72.4,111.3-109.5c-11.2-10.7-22.4-21.3-35.1-33.4c13.4-1,24.9-1.9,36.3-2.9c21.8-1.8,43.5-3.7,65.3-5.6
			c2.5,0,5.1,0,7.6,0C512,80.6,512,83.1,512,85.7z"/>
		<path d="M419.4,434c-1.5,0-2.8-1-3.1-2.5c-0.8-3.1-1.6-6.2-1.7-9.3c-0.2-45-0.3-89.9,0.1-134.9c0-4.2,2.5-10,5.4-13
			c16.5-16.6,33.6-32.6,52.5-50.8c2,4.5,4.9,7.8,4.9,11.2c0.3,63,0.3,126,0,189c0,2.8-1.6,5.5-2.9,8.3c-0.5,1.2-1.7,1.9-2.9,1.9
			H419.4z"/>
		<path d="M0,340.7c12.9-12.1,26.1-23.9,38.5-36.4c1.9-1.9,1.7-7.4,0.5-10.5c-16.6-43,1.5-90.5,42.3-110.4
			c36.8-18,82.7-7.1,107.6,25.5c24.7,32.4,23.1,78.3-3.9,109.5c-26.3,30.4-72.6,38.2-108.2,18c-2.2-1.2-4.3-2.5-7.2-4.1
			c-11.9,11.4-24,22.6-35.5,34.2c-5,5-8.4,5.1-13.1-0.2c-6.6-7.6-14-14.6-21-21.9C0,343.2,0,342,0,340.7z M188.9,261.7
			c0.2-38.2-30.3-69.2-68.2-69.5c-39-0.3-70.7,30.9-70.6,69.4c0.2,37.5,31.6,69.1,69,69.4C157.2,331.2,188.7,299.9,188.9,261.7z"/>
		<path d="M211.7,434c-1.4,0-2.6-0.8-3-2.1c-1-2.8-2.2-5.6-2.3-8.5c-0.3-26.3-0.2-52.5,0-78.8c0-2.6,0.6-6,2.3-7.8
			c15.8-17.3,25.2-37.6,29.7-62.1c10.5,10.6,20.2,20,29.4,29.9c1.6,1.7,2,5.2,2,7.8c0.1,36.7,0.2,73.4-0.1,110.1
			c0,3.1-1.4,6.2-2.6,9.3c-0.5,1.3-1.7,2.1-3,2.1H211.7z"/>
		<path d="M315.9,434c-1.1,0-2.1-0.5-2.7-1.4c-1.3-1.9-2.8-3.8-2.8-5.8c-0.2-32.9-0.2-65.7-0.2-99.7c22.6,4.4,43.1,0.3,63.1-11.4
			c0,38.3,0,75.2-0.1,112.2c0,1.4-0.6,2.8-1.3,4.2c-0.5,1.2-1.7,1.9-3,1.9H315.9z"/>
		<path d="M108.3,434c-1.1,0-2-0.5-2.7-1.4c-1.3-1.9-2.9-3.7-3-5.6c-0.3-17.6-0.2-35.3-0.2-51.3c21.2-2.1,41.6-4.1,63-6.2
			c0,18.2,0.1,38.3-0.2,58.3c0,1.7-1.5,3.3-2.7,5c-0.6,0.8-1.6,1.3-2.6,1.3H108.3z"/>
	</g>
</g>
</svg>
