<?xml version="1.0" encoding="utf-8"?>
<!-- Generator: Adobe Illustrator 24.0.2, SVG Export Plug-In . SVG Version: 6.00 Build 0)  -->
<svg version="1.1" id="Layer_1" xmlns="http://www.w3.org/2000/svg" xmlns:xlink="http://www.w3.org/1999/xlink" x="0px" y="0px"
	 viewBox="0 0 512 512" style="enable-background:new 0 0 512 512;" xml:space="preserve">
<g id="TGqYlv.tif">
	<g>
		<path d="M260.6,452.9c-13.7-11.4-27.6-22.5-41.1-34.1c-28.2-24.2-56.2-48.8-84.5-73c-1.9-1.7-5.2-2.5-7.9-2.5
			c-33.8-0.2-67.5-0.1-101.3-0.1c-15.3,0-22.3-7.1-22.3-22.5c0-43.6,0-87.2,0-130.8c0-16.1,6.5-22.7,22.5-22.7
			c33.6,0,67.2-0.1,100.8,0.1c4.7,0,8.1-1.2,11.7-4.3c37.6-32.7,75.4-65.1,113-97.7c6.4-5.6,13.4-8.1,21.6-4.4
			c8.3,3.7,10.7,10.6,10.7,19.2c-0.1,117.1-0.1,234.2,0.1,351.3c0,10.5-4.4,17.2-13.4,21.5C267.1,452.9,263.9,452.9,260.6,452.9z"/>
		<path d="M508.5,250.8c-0.8,75.4-22.5,137.7-65.4,192.6c-7.2,9.3-17.8,11-26.4,4.4c-8.3-6.3-9.7-16.9-2.6-26.2
			c16.7-21.8,30.5-45.3,40.3-71c13.8-36.3,19.5-73.8,16.8-112.6c-3.2-45.9-17.6-88-42.5-126.5c-5-7.8-10.9-15-16.1-22.8
			c-4.8-7.2-4-16.2,1.6-22.2c5.9-6.2,15.1-7.7,22.5-3.3c2.4,1.5,4.6,3.7,6.3,5.9c33.9,43,54.8,91.7,62.4,145.9
			C507.5,228.8,507.9,242.7,508.5,250.8z"/>
		<path d="M441.3,254.4c-0.7,53.2-15.6,99.7-45.4,141.3c-6.5,9-17.1,11.4-25.4,5.8c-8.8-6-11.1-17.2-4.6-26.5
			c14.6-20.6,26.2-42.5,32.2-67.1c14-57.4,6.4-111.4-26-161.3c-2.1-3.2-4.3-6.3-6.4-9.5c-5.9-8.9-4-19.8,4.4-25.6
			c8.1-5.7,19.1-4,25.1,4.7c6.7,9.6,13,19.4,18.6,29.6C431.4,178,441.5,219.4,441.3,254.4z"/>
		<path d="M370,255.8c0,31.6-8.6,60.8-25.7,87.4c-6.1,9.5-16.4,12-25.6,6.4c-8.3-5-11-15.8-5.5-25c9.3-15.3,16.2-31.3,18.8-49.1
			c4.2-28.8-0.6-55.9-15.2-81.1c-1.3-2.2-2.7-4.4-3.9-6.6c-5-9.5-2.5-20.2,5.8-24.9c9.3-5.3,20-2.9,25.6,6.7
			c5.6,9.8,11,19.8,15.3,30.2C367,217.5,369.9,236.4,370,255.8z"/>
	</g>
</g>
</svg>
