<?xml version="1.0" encoding="utf-8"?>
<!-- Generator: Adobe Illustrator 24.0.2, SVG Export Plug-In . SVG Version: 6.00 Build 0)  -->
<svg version="1.1"
	 id="svg857" inkscape:version="1.0.1 (c497b03c, 2020-09-10)" sodipodi:docname="newspaper.svg" xmlns:cc="http://creativecommons.org/ns#" xmlns:dc="http://purl.org/dc/elements/1.1/" xmlns:inkscape="http://www.inkscape.org/namespaces/inkscape" xmlns:rdf="http://www.w3.org/1999/02/22-rdf-syntax-ns#" xmlns:sodipodi="http://sodipodi.sourceforge.net/DTD/sodipodi-0.dtd" xmlns:svg="http://www.w3.org/2000/svg"
	 xmlns="http://www.w3.org/2000/svg" xmlns:xlink="http://www.w3.org/1999/xlink" x="0px" y="0px" viewBox="0 0 512 512"
	 style="enable-background:new 0 0 512 512;" xml:space="preserve">
<sodipodi:namedview  bordercolor="#666666" borderopacity="1" gridtolerance="10" guidetolerance="10" id="namedview859" inkscape:current-layer="svg857" inkscape:cx="152.5551" inkscape:cy="260.17959" inkscape:pageopacity="0" inkscape:pageshadow="2" inkscape:window-height="1049" inkscape:window-maximized="1" inkscape:window-width="1740" inkscape:window-x="0" inkscape:window-y="23" inkscape:zoom="1.4355469" objecttolerance="10" pagecolor="#ffffff" showgrid="false">
	</sodipodi:namedview>
<title  id="title851">Newspaper</title>
<g id="xgtLck_1_">
	<g>
		<path d="M505,482c-29.9-78.3-59.8-156.5-89.7-234.8c-27.6-72.4-55-144.8-82.5-217.2c-2.7-7.1-5.6-13.9-13.1-11.9
			c-7.5,2-8,9.8-8,17.6c0,147.7-0.1,295.4,0,443c0,14.8,2.9,18.2,14.8,18.2c54.3,0,108.6-0.1,163,0.2c7.1,0,12.3-2.1,15.5-10.2
			C505,485.3,505,483.7,505,482z"/>
		<path d="M7,487c3.3,7.9,8.4,10.2,15.5,10.2c54.3-0.3,108.6-0.2,162.9-0.2c12,0,14.8-3.3,14.8-18.2c0.1-147.7,0-295.3,0.1-443
			c0-7.8-0.6-15.6-8.1-17.6c-8.1-2.1-10.7,5.7-13.5,13C122.2,180.1,65.6,328.9,9,477.8c-0.6,1.5-1.3,2.8-2,4.2
			C7,483.7,7,485.3,7,487z M178.3,90.6c0.4,0.2,0.9,0.5,1.3,0.7c0,126.7,0,253.4,0,380.3c-48.7,0-96.6,0-146.1,0
			C82,343.8,130.1,217.2,178.3,90.6z"/>
		<path d="M251,5.3c-8,5.7-11,14.2-10.2,25.6c0.6,10.2-0.1,20.6,0.2,30.8c0.4,11.5,6.3,18.5,15,18.6c8.8,0,14.7-6.9,15-18.5
			c0.3-12.3,1.2-24.9-0.4-36.9c-0.9-7-6.3-13.1-9.6-19.6C257.7,5.3,254.3,5.3,251,5.3z"/>
		<path d="M261,509.3c11.4-7.8,11.3-21,9.6-34.2c-1.2-9.2-6.7-14.4-14.1-14.6c-7.2-0.1-12.8,4.2-15.1,13.2c-3.5,14,0,26.6,9.5,35.6
			C254.3,509.3,257.7,509.3,261,509.3z"/>
		<path d="M271.1,383.3c0-6.2,0.3-12.4-0.1-18.6c-0.6-11-6.5-17.9-14.8-17.9c-8.8-0.1-14.9,7.1-15.2,18.6c-0.3,12.4-0.3,24.8,0,37.2
			c0.3,11.7,6.4,19.2,14.8,19.4c8.9,0.2,14.9-7.6,15.2-20.1C271.2,395.7,271.1,389.5,271.1,383.3
			C271.1,383.3,271.1,383.3,271.1,383.3z"/>
		<path d="M240.9,157.5c0,6.2-0.2,12.4,0.1,18.5c0.5,10.8,6.2,17.9,14.3,18.2c8.7,0.3,15.4-6.7,15.7-17.7c0.4-13.1,0.4-26.3,0-39.5
			c-0.4-10.7-6.6-17.6-14.7-17.7c-8.7-0.1-14.8,7.1-15.2,18.4C240.7,144.3,240.9,150.9,240.9,157.5z"/>
		<path d="M240.9,270.4c0,6.6-0.3,13.3,0.1,19.8c0.6,10.7,6.7,17.8,14.8,18c8.6,0.1,14.9-7.3,15.2-18.6c0.3-12.4,0.3-24.8,0-37.2
			c-0.3-11.8-6.1-18.9-14.8-19c-9.3-0.1-15,7.1-15.3,19.7C240.8,258.8,240.9,264.6,240.9,270.4C240.9,270.4,240.9,270.4,240.9,270.4
			z"/>
	</g>
</g>
</svg>
