<?xml version="1.0" encoding="utf-8"?>
<!-- Generator: Adobe Illustrator 24.0.2, SVG Export Plug-In . SVG Version: 6.00 Build 0)  -->
<svg version="1.1" id="Capa_1" xmlns="http://www.w3.org/2000/svg" xmlns:xlink="http://www.w3.org/1999/xlink" x="0px" y="0px"
	 viewBox="0 0 512 512" style="enable-background:new 0 0 512 512;" xml:space="preserve">
<g id="zkjtxj.tif">
	<g>
		<path d="M221.9,503.9c-8.7-1.2-17.5-2.2-26.2-3.8c-47.5-8.5-88.1-30.2-122-64.5C38.7,400.1,16.4,357.5,10.5,308
			c-11.2-92.9,22-167.3,98.1-221.8c31.4-22.5,67.2-34.3,105.6-38.3c0.8-0.1,1.6-0.2,2.9-0.4c0-6.3,0-12.6,0-18.8
			c0.1-11.9,8.1-20.5,19.2-20.6c11.3-0.1,19.4,8.6,19.5,20.7c0,6.1,0,12.2,0,18.1c11.7,2.2,23.3,3.5,34.4,6.5
			c89.1,24.3,145.5,81.3,168.6,170.7c3.8,14.8,4.6,30.6,5.9,45.9c1,11.7-7.8,20.6-18.8,20.8c-11.1,0.2-19.3-8.2-19.8-20
			c-3-86.1-61.4-158.7-144.5-179.7C179.8,65.5,74.4,130.4,51.5,232.8c-21.7,97.4,33.3,193.4,128.2,223.6c21.9,7,44.4,9.5,67.3,8.5
			c9.7-0.4,16.9,4.1,20,12.2c4.2,10.9-1.9,22.7-13.4,25.8c-0.9,0.2-1.8,0.6-2.7,1C241.3,503.9,231.6,503.9,221.9,503.9z"/>
		<path d="M329.4,503.9c-1.8-0.6-3.6-1.3-5.4-1.9c-13.8-4.5-23.6-17.2-23.6-31.6c-0.1-55.1-0.3-110.3,0-165.4
			c0.2-26.4,29.2-42,52.3-28.5c17.1,10,33.9,20.5,50.8,30.8c25.2,15.3,50.2,30.9,75.6,45.8c11.7,6.9,21.3,14.9,24.5,28.7
			c0,3.9,0,7.7,0,11.6c-3.3,13.7-12.8,21.7-24.5,28.6c-34,20.2-67.6,41.1-101.5,61.5c-12.2,7.3-23.5,16.4-37.6,20.3
			C336.5,503.9,332.9,503.9,329.4,503.9z M339.3,461.7C380,437,420.2,412.5,461,387.7c-41-24.9-81.1-49.3-121.7-74
			C339.3,363.3,339.3,412.1,339.3,461.7z"/>
		<path d="M197.7,277.8c0-24.2,17.9-41.7,39.9-41c3.9,0.1,6.1-1.1,8.4-4c18.6-23.3,37.4-46.5,56.2-69.7c6-7.4,14.7-9.7,22.9-6.3
			c7.7,3.2,13,11,11.7,19.2c-0.7,4.4-2.8,9-5.6,12.5c-18.4,23.3-37.1,46.3-55.9,69.3c-2.1,2.5-2.4,4.6-1.6,7.8
			c3.8,15.7-0.4,29.3-12.9,39.5c-12.4,10.2-26.6,12-41.2,5C205.3,303.2,198.4,291.1,197.7,277.8z"/>
		<path d="M20.5,85c0.2-6.6,2.5-11.8,7.2-15.7C45.4,55,62.9,40.5,80.7,26.3c8.8-7.1,20.4-5.9,27.3,2.3c7,8.4,6,20.3-2.8,27.6
			C87.7,70.6,70.2,84.8,52.6,99c-6.5,5.2-13.7,6.4-21.3,2.7C24.4,98.3,21,92.3,20.5,85z"/>
		<path d="M452.3,84.5c-0.4,7.6-3.8,13.7-11,17.2c-7.6,3.7-14.8,2.5-21.2-2.8C405.7,87,391.3,75,376.9,63.1c-3-2.5-6-4.9-8.9-7.4
			c-8.1-7.3-9-18.8-2.2-27c6.6-8,18.2-9.7,26.5-3c18.1,14.6,35.8,29.5,53.6,44.5C450.2,73.7,452.1,78.7,452.3,84.5z"/>
	</g>
</g>
</svg>
