<?xml version="1.0" encoding="utf-8"?>
<!-- Generator: Adobe Illustrator 24.0.2, SVG Export Plug-In . SVG Version: 6.00 Build 0)  -->
<svg version="1.1" id="Capa_1" xmlns="http://www.w3.org/2000/svg" xmlns:xlink="http://www.w3.org/1999/xlink" x="0px" y="0px"
	 viewBox="0 0 350 350" style="enable-background:new 0 0 350 350;" xml:space="preserve">
<style type="text/css">
	.st0{fill:#FFFFFF;}
</style>
<g id="r5Qlod.tif">
	<g>
		<path d="M10,281.5c0-50.2,0-100.3,0-150.5c0.2-0.8,0.4-1.6,0.5-2.5c1.1-12.5,4.5-24.4,10-35.6c20-40.4,60.1-60.1,104.7-56.7
			c6.9,0.5,11.6,5.8,11.7,12.7c0.1,8.4,0.1,16.7,0,25.1c-0.1,7.4-5.5,12.6-13,12.7c-4,0.1-7.9,0-11.9,0
			c-13.7,0.1-25.6,4.6-35.6,14.1c-13.4,12.8-17.3,28.7-15.2,46.4c1.1,9.2,9.3,15.3,19.3,15.4c14.3,0.1,28.6-0.1,42.9,0.1
			c22.3,0.2,38.6,15.8,38.8,37.7c0.3,25.9,0.3,51.9-0.1,77.8c-0.2,17.7-13.3,32.6-30.7,35.8c-1.8,0.3-3.6,0.6-5.4,0.9
			c-26.6,0-53.3,0-79.9,0c-0.8-0.2-1.6-0.4-2.5-0.5c-14.9-1.6-27.6-12.1-32-26.4C11,285.8,10.5,283.7,10,281.5z"/>
		<path d="M303.9,314.9c-26.6,0-53.3,0-79.9,0c-2-0.3-4-0.6-6-1c-18.1-3.8-30.2-18.7-30.2-37.9c-0.1-46,0-91.9,0-137.9
			c0-14.6,2.9-28.5,8.9-41.8c10.7-23.6,28-40.7,51.6-51.5c17.6-8,36.1-9.7,55.1-8.5c6,0.4,10.7,4.9,11,10.8c0.4,9.5,0.5,19.1,0,28.6
			c-0.3,6.4-5.7,10.8-12.2,11c-4.1,0.1-8.2,0-12.2,0c-15.9,0-29,6-39.4,18c-10.9,12.6-13.6,27.4-11.5,43.3
			c1.2,8.8,9.4,14.6,19.2,14.7c14.2,0.1,28.4,0,42.5,0c17.9,0.1,32.1,10.1,37.3,26.2c0.8,2.3,1.2,4.7,1.8,7.1c0,28.5,0,57,0,85.5
			c-0.2,0.5-0.4,1-0.5,1.5c-2.8,15.9-14.3,27.7-29.9,31C307.7,314.3,305.8,314.6,303.9,314.9z"/>
		<path class="st0" d="M303.9,314.9c1.9-0.3,3.8-0.6,5.7-1c15.6-3.2,27.1-15.1,29.9-31c0.1-0.5,0.4-1,0.5-1.5c0,11.1,0,22.3,0,33.4
			C328,314.9,315.9,314.9,303.9,314.9z"/>
	</g>
</g>
</svg>
