<?xml version="1.0" encoding="utf-8"?>
<!-- Generator: Adobe Illustrator 24.0.2, SVG Export Plug-In . SVG Version: 6.00 Build 0)  -->
<svg version="1.1" id="Capa_1" xmlns="http://www.w3.org/2000/svg" xmlns:xlink="http://www.w3.org/1999/xlink" x="0px" y="0px"
	 viewBox="0 0 350 350" style="enable-background:new 0 0 350 350;" xml:space="preserve">
<g id="Tvg9sY.tif">
	<g>
		<path d="M272.4,166.2c36.8,31.8,44.1,71.9,31,116.3c-10.6,36-38.6,53.7-73.9,59.9c-16.6,2.9-33.8,3-50.8,3.3
			c-33.3,0.5-66.6,0.2-99.8,0.1c-22.9,0-38.3-15.5-38.3-38.2c0-88.1,0-176.3,0-264.4c0-23.8,15.1-38.9,39.1-39
			c36.8,0,73.7,0,110.5,0c18.7,0,37,2.9,54.1,10.9c31.4,14.6,47.9,39.7,50.9,73.8c2.5,28-3.8,53.5-21.9,75.5
			C272.8,164.9,272.6,165.7,272.4,166.2z M114.2,283.4c29.7,0,58.8,0,87.9-0.1c2.5,0,5-0.9,7.4-1.7c16.1-4.9,23.2-15.4,23.2-34
			c0-17.8-7.4-28.2-23.5-33c-1.9-0.6-3.9-1.4-5.9-1.4c-29.6-0.1-59.2-0.1-89.2-0.1C114.2,236.1,114.2,259.8,114.2,283.4z
			 M114.2,137.6c1,0.3,1.5,0.6,2,0.6c16.5,0.1,33,0.3,49.5,0.1c9.6-0.1,19.3-0.2,28.8-1.5c20-2.9,29.9-14.9,30-34.7
			c0.1-19.7-9.2-33-28.8-34.8c-26.9-2.5-54-2-81.4-2.9C114.2,89.7,114.2,113.5,114.2,137.6z"/>
	</g>
</g>
</svg>
