<?xml version="1.0" encoding="utf-8"?>
<!-- Generator: Adobe Illustrator 24.0.2, SVG Export Plug-In . SVG Version: 6.00 Build 0)  -->
<svg version="1.1" id="Capa_1" xmlns="http://www.w3.org/2000/svg" xmlns:xlink="http://www.w3.org/1999/xlink" x="0px" y="0px"
	 viewBox="0 0 350 350" style="enable-background:new 0 0 350 350;" xml:space="preserve">
<g id="Tvg9sY.tif">
	<g>
		<path d="M247.8,168.5c27.5,23.8,32.9,53.7,23.2,86.8c-7.9,26.9-28.8,40-55.2,44.8c-12.3,2.2-25.2,2.2-37.9,2.5
			c-24.9,0.4-49.7,0.1-74.5,0.1c-17.1,0-28.6-11.5-28.6-28.5c0-65.7,0-131.6,0-197.4c0-17.8,11.2-29,29.2-29.1c27.5,0,55,0,82.5,0
			c13.9,0,27.6,2.2,40.3,8.1c23.5,10.9,35.7,29.6,38,55.1c1.9,20.9-2.8,39.9-16.4,56.4C248,167.5,247.9,168.1,247.8,168.5z
			 M129.6,256c22.2,0,43.9,0,65.6-0.1c1.9,0,3.7-0.7,5.5-1.3c12-3.6,17.4-11.5,17.4-25.4c0-13.2-5.5-21.1-17.6-24.6
			c-1.4-0.4-2.9-1-4.4-1c-22.1-0.1-44.2-0.1-66.5-0.1C129.6,220.7,129.6,238.3,129.6,256z M129.6,147.1c0.7,0.2,1.1,0.4,1.5,0.4
			c12.3,0.1,24.6,0.2,36.9,0.1c7.1-0.1,14.5-0.1,21.5-1.1c15-2.2,22.3-11.1,22.4-25.9s-6.8-24.6-21.5-26
			c-20.1-1.9-40.3-1.5-60.7-2.2C129.6,111.4,129.6,129.1,129.6,147.1z"/>
	</g>
</g>
</svg>
