<?xml version="1.0" encoding="utf-8"?>
<!-- Generator: Adobe Illustrator 24.0.2, SVG Export Plug-In . SVG Version: 6.00 Build 0)  -->
<svg version="1.1" id="Capa_1" xmlns="http://www.w3.org/2000/svg" xmlns:xlink="http://www.w3.org/1999/xlink" x="0px" y="0px"
	 viewBox="0 0 350 350" style="enable-background:new 0 0 350 350;" xml:space="preserve">
<g id="mgKMLd_1_">
	<g>
		<path d="M243.3,162.2c0-2.5,0-4.9,0-7.4c0-37.5,0-75.1,0-112.6c0-4.9,0-4.9-4.9-4.9c-61.8,0-123.5,0-185.3,0c-5.3,0-10.5,0-16,0
			c0,91.7,0,183.2,0,275c0.6,0,1.2,0.1,1.9,0.1c43.3,0,86.5,0,129.8,0c24.1,0,48.3,0,72.4,0c1.6,0,2.2-0.4,2.2-2.1
			c-0.1-9.7-0.1-19.4,0-29.1c0-1.4,0.4-3,1.1-4.3c6.8-12.3,13.6-24.5,20.4-36.7c0.3-0.5,0.6-1,1.2-2c0.1,0.9,0.2,1.4,0.2,1.9
			c0,24.4,0,48.9,0,73.3c0,13-9,21.9-21.9,21.9c-37.9,0-75.8,0-113.7,0c-31.4,0-62.8,0-94.3,0c-13.1,0-22.2-8.8-22.3-21.9
			c-0.1-20.7,0-41.5,0-62.2c0-26.8,0-53.6,0-80.4c0-21.7,0-43.3,0-65c0-22,0.1-44,0-66.1c0-7.5,1.7-14.3,7.3-19.7
			c4.2-4,9.3-5.8,15.1-5.8c20.9,0,41.7,0,62.6,0c48,0,96,0,144,0c7.4,0,13.7,2.3,18.4,8.2c3.5,4.4,5,9.5,5,15.1
			c0,17.8,0,35.7,0,53.5c0,9.8,0,19.7,0,29.5c0,0.9-0.2,1.8-0.6,2.6c-7,12.7-14.1,25.3-21.2,38c-0.2,0.4-0.5,0.7-0.8,1.1
			C243.6,162.3,243.5,162.2,243.3,162.2z"/>
		<path d="M286.2,120.9c7.8,4.5,15.3,8.8,23,13.2c-2,3.4-3.8,6.6-5.7,9.9c-24.6,42.6-49.3,85.3-73.9,127.9c-1.3,2.3-3,4-5.3,5.3
			c-6,3.5-11.9,7.2-17.9,10.8c-0.7,0.4-1.3,0.8-2.3,1.3c-0.1-0.9-0.1-1.5-0.1-2.2c0-7.9,0-15.9,0.1-23.8c0-1.1,0.4-2.3,1-3.2
			c14-24.1,28-48.1,42-72.2c12.6-21.6,25.1-43.2,37.7-64.8C285.2,122.6,285.7,121.9,286.2,120.9z"/>
		<path d="M140.2,112.6c27,0,54.1,0,81.1,0c2.4,0,2.4,0,2.4,2.3c0,4.1-0.1,8.2,0,12.4c0,1.4-0.5,1.7-1.8,1.7c-20.5,0-41,0-61.5,0
			c-26.7,0-53.4,0-80,0c-7.2,0-14.3,0-21.5,0c-1.8,0-2.5-0.4-2.4-2.3c0.2-4.1,0.1-8.2,0-12.4c0-1.5,0.5-1.8,1.9-1.8
			C85.7,112.6,113,112.6,140.2,112.6C140.2,112.6,140.2,112.6,140.2,112.6z"/>
		<path d="M140.2,204.4c-26.6,0-53.3,0-79.9,0c-0.7,0-1.3-0.1-2,0c-1.3,0.1-1.7-0.4-1.6-1.7c0.1-4.2,0.1-8.5,0-12.7
			c0-1.6,0.4-2.1,2-2.1c16.7,0.1,33.4,0,50,0c28.3,0,56.7,0,85,0c9.3,0,18.7,0,28,0c1.7,0,2.1,0.5,2.1,2.2c-0.1,4.1-0.1,8.2,0,12.4
			c0,1.5-0.4,2-1.9,2c-15.5-0.1-30.9,0-46.4,0C163.7,204.4,151.9,204.4,140.2,204.4z"/>
		<path d="M184.4,89.7c-1.3,0-2.4,0-3.4,0c-40.4,0-80.9,0-121.3,0c-3.6,0-3,0.4-3-3.1c0-3.8,0.1-7.6,0-11.5c0-1.5,0.5-1.8,1.9-1.8
			c12.1,0,24.3,0,36.4,0c21.8,0,43.7,0,65.5,0c7.4,0,14.8,0,22.2,0c1.4,0,1.9,0.3,1.9,1.8C184.3,79.9,184.4,84.7,184.4,89.7z"/>
		<path d="M120.3,165.1c-20.6,0-41.2,0-61.9,0c-1.4,0-1.9-0.3-1.9-1.8c0.1-3.8,0-7.5,0-11.3c0-3.8-0.6-3.3,3.4-3.3
			c15.8,0,31.5,0,47.3,0c24.6,0,49.3,0,73.9,0c3.7,0,3.2-0.5,3.2,3.2c0,3.8-0.1,7.6,0,11.5c0,1.5-0.5,1.8-1.9,1.8
			C161.8,165.1,141.1,165.1,120.3,165.1C120.3,165.1,120.3,165.1,120.3,165.1z"/>
		<path d="M120.5,240.4c-20.7,0-41.4,0-62.1,0c-1.5,0-1.8-0.5-1.8-1.9c0.1-4.2,0.1-8.5,0-12.7c0-1.4,0.4-1.9,1.9-1.9
			c25.5,0,51,0,76.4,0c15.9,0,31.8,0,47.7-0.1c1.6,0,1.9,0.5,1.9,2c-0.1,4.2-0.1,8.4,0,12.6c0,1.5-0.4,1.9-1.9,1.9
			C161.8,240.4,141.2,240.4,120.5,240.4C120.5,240.4,120.5,240.4,120.5,240.4z"/>
		<path d="M122.1,294.6c-8.7,0-15.8-7.2-15.9-15.9c0-8.8,7.2-16,16-15.9c8.7,0,15.9,7.2,15.9,15.9
			C138.1,287.4,130.9,294.6,122.1,294.6z"/>
		<path d="M71.8,294.4c-8.9,0-15.9-7-15.9-15.9c0-8.9,7-15.9,16-15.9c8.8,0,15.8,7.1,15.8,15.9C87.6,287.3,80.5,294.4,71.8,294.4z"
			/>
		<path d="M324.4,110.1c-3,5.3-5.9,10.3-8.9,15.5c-7.7-4.4-15.3-8.8-23-13.2c3-5.2,5.9-10.3,8.9-15.5
			C309.1,101.3,316.6,105.7,324.4,110.1z"/>
	</g>
</g>
</svg>
