<?xml version="1.0" encoding="utf-8"?>
<!-- Generator: Adobe Illustrator 24.0.2, SVG Export Plug-In . SVG Version: 6.00 Build 0)  -->
<svg version="1.1" id="Capa_1" xmlns="http://www.w3.org/2000/svg" xmlns:xlink="http://www.w3.org/1999/xlink" x="0px" y="0px"
	 viewBox="0 0 350 350" style="enable-background:new 0 0 350 350;" xml:space="preserve">
<g id="a6BVZ2.tif">
	<g>
		<path d="M194,56.6c0,16-0.1,31.6,0,47.2c0.1,15.6,6.5,21.9,22.2,22c14.6,0.1,29.3,0,44.8,0c0.2,3.7,0.6,6.7,0.6,9.8
			c0,59.8,0,119.6,0,179.3c0,19.1-6.9,26-25.9,26c-57.1,0-114.3,0-171.4,0c-18.6,0-25.7-7-25.7-25.2c0-78,0-156,0-234
			c0-18.5,7-25.5,25.4-25.6c40.2-0.1,80.4,0,120.7,0C187.3,56.1,190.1,56.4,194,56.6z M75.2,211.7c48,0,94.7,0,141.4,0
			c0-6.2,0-11.8,0-17.2c-47.5,0-94.3,0-141.4,0C75.2,200.6,75.2,205.9,75.2,211.7z M75.1,287.5c47.6,0,94.6,0,141.7,0
			c0-6.2,0-11.8,0-17.4c-47.6,0-94.5,0-141.7,0C75.1,275.9,75.1,280.9,75.1,287.5z M90.7,249.7c37.6,0,74.2,0,110.8,0
			c0-6.3,0-11.9,0-17.8c-37.1,0-73.7,0-110.8,0C90.7,238,90.7,243.6,90.7,249.7z M196.7,174.5c0-6.6,0-11.9,0-17.6
			c-34,0-67.6,0-101.2,0c0,6.2,0,11.7,0,17.6C129.4,174.5,162.7,174.5,196.7,174.5z"/>
		<path d="M274.3,287.4c0-22.1,0-42.5,0-62.9c0-40.3,0.2-80.6-0.3-120.8c-0.1-4.7-2.6-10.4-5.9-13.9c-12.6-13.5-25.8-26.6-39.3-39.3
			c-3.1-2.9-8.1-5-12.3-5.1c-38.9-0.4-77.9-0.2-116.8-0.2c-3.4,0-6.9,0-11.1,0c0-8.8-0.5-16.7,0.1-24.5c0.9-11,9.6-17.8,22.2-17.9
			c46-0.1,91.9,0,137.9,0c13.4,0,26.8-0.1,40.2,0c14.6,0.2,22.4,7.9,22.4,22.7c0.1,79.6,0.1,159.2,0,238.8
			c0,15.4-7.6,22.9-22.9,23.3C284.2,287.5,279.8,287.4,274.3,287.4z"/>
		<path d="M208.2,54.9c3.6,2,7.8,3.4,10.6,6.2c12.6,12.2,25.1,24.5,37.1,37.3c3.4,3.7,5,9.2,8.5,16.1c-19.5,0-35.7,0.3-51.8-0.3
			c-2.5-0.1-6.8-4.4-6.9-6.9c-0.6-16.8-0.3-33.6-0.3-50.5C206.3,56.1,207.2,55.5,208.2,54.9z"/>
	</g>
</g>
</svg>
