<?xml version="1.0" encoding="utf-8"?>
<!-- Generator: Adobe Illustrator 24.0.2, SVG Export Plug-In . SVG Version: 6.00 Build 0)  -->
<svg version="1.1"
	 id="svg857" inkscape:version="1.0.1 (c497b03c, 2020-09-10)" sodipodi:docname="newspaper.svg" xmlns:cc="http://creativecommons.org/ns#" xmlns:dc="http://purl.org/dc/elements/1.1/" xmlns:inkscape="http://www.inkscape.org/namespaces/inkscape" xmlns:rdf="http://www.w3.org/1999/02/22-rdf-syntax-ns#" xmlns:sodipodi="http://sodipodi.sourceforge.net/DTD/sodipodi-0.dtd" xmlns:svg="http://www.w3.org/2000/svg"
	 xmlns="http://www.w3.org/2000/svg" xmlns:xlink="http://www.w3.org/1999/xlink" x="0px" y="0px" viewBox="0 0 512 512"
	 style="enable-background:new 0 0 512 512;" xml:space="preserve">
<sodipodi:namedview  bordercolor="#666666" borderopacity="1" gridtolerance="10" guidetolerance="10" id="namedview859" inkscape:current-layer="svg857" inkscape:cx="152.5551" inkscape:cy="260.17959" inkscape:pageopacity="0" inkscape:pageshadow="2" inkscape:window-height="1049" inkscape:window-maximized="1" inkscape:window-width="1740" inkscape:window-x="0" inkscape:window-y="23" inkscape:zoom="1.4355469" objecttolerance="10" pagecolor="#ffffff" showgrid="false">
	</sodipodi:namedview>
<title  id="title851">Newspaper</title>
<g id="Hg70gH.tif">
	<g>
		<path d="M3,3.1c168.8,0,337.1,0,506.4,0c0,168.7,0,337.2,0,506.9c-168.2,0-336.7,0-506.4,0C3,341.7,3,173.3,3,3.1z M33.9,129.4
			c31.9,0,62.8,0,93.2,0c0-31.8,0-62.7,0-93.2c-31.6,0-62.1,0-93.2,0C33.9,67.4,33.9,98,33.9,129.4z M244.1,36.4
			c-31.9,0-62.7,0-93.2,0c0,31.8,0,62.6,0,93.3c31.6,0,62.1,0,93.2,0C244.1,98.5,244.1,68,244.1,36.4z M360.6,36.4
			c-31.9,0-62.7,0-93.2,0c0,31.8,0,62.6,0,93.2c31.6,0,62.1,0,93.2,0C360.6,98.5,360.6,68,360.6,36.4z M243.8,246.3
			c0-31.9,0-62.7,0-93.2c-31.8,0-62.6,0-93.3,0c0,31.6,0,62.1,0,93.2C181.7,246.3,212.2,246.3,243.8,246.3z M267,152.6
			c0,32.1,0,62.6,0,93.5c31.6,0,62.4,0,93.2,0c0-31.7,0-62.5,0-93.5C328.7,152.6,298.2,152.6,267,152.6z M477.1,153.1
			c-32.3,0-63.2,0-93.6,0c0,31.7,0,62.2,0,92.9c31.6,0,62.4,0,93.6,0C477.1,214.6,477.1,184.1,477.1,153.1z M127.2,362.8
			c0-32,0-62.8,0-93.2c-31.8,0-62.7,0-93.2,0c0,31.6,0,62.1,0,93.2C65.3,362.8,95.8,362.8,127.2,362.8z M243.8,362.8
			c0-31.8,0-62.6,0-93.2c-31.8,0-62.6,0-93.3,0c0,31.5,0,62,0,93.2C181.6,362.8,212.2,362.8,243.8,362.8z M476.7,362.9
			c0-32.3,0-63.1,0-93.7c-31.6,0-62.1,0-93,0c0,31.6,0,62.4,0,93.7C415.1,362.9,445.6,362.9,476.7,362.9z M127.8,386
			c-32.2,0-63,0-93.8,0c0,31.6,0,62.1,0,93.1c31.6,0,62.4,0,93.8,0C127.8,447.7,127.8,417.2,127.8,386z M150.3,478.7
			c32.4,0,63.2,0,93.7,0c0-31.6,0-62.1,0-92.9c-31.6,0-62.5,0-93.7,0C150.3,417.2,150.3,447.7,150.3,478.7z M360.3,479.2
			c0-31.9,0-62.7,0-93.2c-31.8,0-62.6,0-93.2,0c0,31.6,0,62.1,0,93.2C298.3,479.2,328.8,479.2,360.3,479.2z"/>
	</g>
</g>
</svg>
