<?xml version="1.0" encoding="utf-8"?>
<!-- Generator: Adobe Illustrator 24.0.2, SVG Export Plug-In . SVG Version: 6.00 Build 0)  -->
<svg version="1.1"
	 id="svg857" inkscape:version="1.0.1 (c497b03c, 2020-09-10)" sodipodi:docname="newspaper.svg" xmlns:cc="http://creativecommons.org/ns#" xmlns:dc="http://purl.org/dc/elements/1.1/" xmlns:inkscape="http://www.inkscape.org/namespaces/inkscape" xmlns:rdf="http://www.w3.org/1999/02/22-rdf-syntax-ns#" xmlns:sodipodi="http://sodipodi.sourceforge.net/DTD/sodipodi-0.dtd" xmlns:svg="http://www.w3.org/2000/svg"
	 xmlns="http://www.w3.org/2000/svg" xmlns:xlink="http://www.w3.org/1999/xlink" x="0px" y="0px" viewBox="0 0 512 512"
	 style="enable-background:new 0 0 512 512;" xml:space="preserve">
<sodipodi:namedview  bordercolor="#666666" borderopacity="1" gridtolerance="10" guidetolerance="10" id="namedview859" inkscape:current-layer="svg857" inkscape:cx="152.5551" inkscape:cy="260.17959" inkscape:pageopacity="0" inkscape:pageshadow="2" inkscape:window-height="1049" inkscape:window-maximized="1" inkscape:window-width="1740" inkscape:window-x="0" inkscape:window-y="23" inkscape:zoom="1.4355469" objecttolerance="10" pagecolor="#ffffff" showgrid="false">
	</sodipodi:namedview>
<title  id="title851">Newspaper</title>
<g id="NZrKBD_1_">
	<g>
		<path d="M3.9,317.6c0-104.6,0-208.6,0-314.4c108.1,0,215.2,0,323.2,0c0,105.1,0,208.3,0,314.4C219.9,317.6,112.3,317.6,3.9,317.6z
			"/>
		<path d="M367,195.1c47.6,0,93.7,0,141.1,0c0,104.8,0,208.7,0,314.8c-46.7,0-93.2,0-141.1,0C367,406,367,302.2,367,195.1z"/>
		<path d="M507.7,127.4c-47.8,0-93.9,0-141,0c0-41.9,0-82.1,0-124.2c47.5,0,94.1,0,141,0C507.7,46.1,507.7,87.1,507.7,127.4z"/>
		<path d="M145.5,511c-47.8,0-93.8,0-141.3,0c0-40.9,0-80.9,0-122.7c47.2,0,93.6,0,141.3,0C145.5,429.2,145.5,468.3,145.5,511z"/>
		<path d="M326.4,510.6c-47.8,0-93.9,0-141.1,0c0-40.7,0-79.8,0-121.5c46.7,0,93.3,0,141.1,0C326.4,429.3,326.4,470.1,326.4,510.6z"
			/>
	</g>
</g>
</svg>
