<?xml version="1.0" encoding="utf-8"?>
<!-- Generator: Adobe Illustrator 24.0.2, SVG Export Plug-In . SVG Version: 6.00 Build 0)  -->
<svg version="1.1" id="Capa_1" xmlns="http://www.w3.org/2000/svg" xmlns:xlink="http://www.w3.org/1999/xlink" x="0px" y="0px"
	 viewBox="0 0 512 512" style="enable-background:new 0 0 512 512;" xml:space="preserve">
<g>
	<g>
		<path d="M235.6,20.1l0.8,423.6l-69.9-70.1c-7.8-7.8-20.5-7.9-28.3,0s-7.9,20.5,0,28.3l104.2,104.3l0,0c7.8,7.8,20.5,7.8,28.3-0.1
			l0,0l103.8-104.7c7.8-7.8,7.8-20.5-0.2-28.3c-7.8-7.8-20.5-7.8-28.3,0.2l-69.6,70.3L275.6,20c0-11-9-20-20-20
			C244.6,0.1,235.6,9.1,235.6,20.1z"/>
	</g>
</g>
</svg>
