<?xml version="1.0" encoding="utf-8"?>
<!-- Generator: Adobe Illustrator 24.0.2, SVG Export Plug-In . SVG Version: 6.00 Build 0)  -->
<svg version="1.1"
	 id="svg857" inkscape:version="1.0.1 (c497b03c, 2020-09-10)" sodipodi:docname="newspaper.svg" xmlns:cc="http://creativecommons.org/ns#" xmlns:dc="http://purl.org/dc/elements/1.1/" xmlns:inkscape="http://www.inkscape.org/namespaces/inkscape" xmlns:rdf="http://www.w3.org/1999/02/22-rdf-syntax-ns#" xmlns:sodipodi="http://sodipodi.sourceforge.net/DTD/sodipodi-0.dtd" xmlns:svg="http://www.w3.org/2000/svg"
	 xmlns="http://www.w3.org/2000/svg" xmlns:xlink="http://www.w3.org/1999/xlink" x="0px" y="0px" viewBox="0 0 512 512"
	 style="enable-background:new 0 0 512 512;" xml:space="preserve">
<sodipodi:namedview  bordercolor="#666666" borderopacity="1" gridtolerance="10" guidetolerance="10" id="namedview859" inkscape:current-layer="svg857" inkscape:cx="152.5551" inkscape:cy="260.17959" inkscape:pageopacity="0" inkscape:pageshadow="2" inkscape:window-height="1049" inkscape:window-maximized="1" inkscape:window-width="1740" inkscape:window-x="0" inkscape:window-y="23" inkscape:zoom="1.4355469" objecttolerance="10" pagecolor="#ffffff" showgrid="false">
	</sodipodi:namedview>
<title  id="title851">Newspaper</title>
<g id="SzcrB2_1_">
	<g>
		<path d="M504.7,71.4c-16.1,16.6-32,33.4-48.4,49.7c-5.4,5.4-12.4,4.5-17.9-0.8c-5.8-5.6-6.4-12.5-1.2-18.8
			c5.1-6.2,11-11.7,17.8-18.8c-4.6-0.4-7.7-0.9-10.7-0.9c-21.4-0.1-42.7,0.1-64.1-0.1c-11.5-0.1-17.3-5.1-17.2-14.2
			c0-9.2,5.7-13.7,17.4-13.8c24.3-0.1,48.6,0,75.9,0c-6.5-6.7-11.3-11.8-16.3-16.6c-6.7-6.5-8.9-13.7-2.4-21.4
			c5.5-6.5,14.9-5.9,22.3,1.5c15.1,15,29.9,30.3,44.8,45.4C504.7,65.5,504.7,68.4,504.7,71.4z"/>
		<path d="M7.3,62.5c15.2-15.4,30.3-30.9,45.6-46.1c6.3-6.3,13.7-7.2,20.6-1.1c6.5,5.7,6,13.8-1.3,21.3c-4.9,4.9-10.4,9.2-15.7,13.7
			c0.5,1.1,0.9,2.2,1.4,3.3c6.3,0,12.7,0,19,0c18.7,0,37.5,0,56.2,0c9,0,14.9,3.9,15.6,13.3c0.7,8.6-5.3,14.4-15.5,14.6
			c-20.9,0.3-41.9,0.1-62.9,0.1c-3.9,0-7.7,0-11.6,0c-0.7,1.1-1.3,2.2-2,3.4c5.4,4.8,11,9.3,16.1,14.3c6.3,6.3,7.6,13.5,1.4,20.5
			c-5.8,6.6-14,6.3-21.2-1C37.7,103.2,22.6,87.2,7.3,71.4C7.3,68.4,7.3,65.5,7.3,62.5z"/>
		<path d="M234.9,240.1c0-28-0.1-56,0-84c0-14.7,8.7-24.7,21.1-24.5c12.1,0.1,21,10.4,21.1,24.9c0.1,33.9,0,67.8,0.1,101.7
			c0,2.9-0.7,6.2,0.3,8.7c1.1,2.6,4.3,6.5,6.1,6.3c2.9-0.4,6.9-3.2,7.7-5.9c1.4-4.4,0.5-9.5,0.7-14.2c0.5-12.4,8-20.9,19.1-21.8
			c10.4-0.9,20.1,6,22,17.5c1.6,9.3,1,19,1.2,28.6c0.2,5.9-0.5,11.9,0.4,17.6c0.4,2.5,4.1,6.7,5.6,6.4c2.8-0.5,6.7-3.3,7.4-5.9
			c1.3-4.4,0.4-9.5,0.8-14.2c1-12.7,9.5-21.6,20.7-21.8c11.6-0.2,20.7,8.8,21.3,22.2c0.5,10.7-0.4,21.4,0.6,32
			c0.3,3.4,5,6.5,7.6,9.7c2.2-3.3,5.3-6.3,6.2-9.9c1.1-4.1-0.1-8.8,0.4-13.2c1.4-11.7,10.6-19.4,21.8-19c10.7,0.4,20,8.5,19.9,19.8
			c-0.2,38,4.7,76.4-11.8,113.1c-9.5,21.1-9.3,44.4-9.1,67.4c0.1,17-2.3,19.4-19,19.4c-51.2,0-102.4,0-153.6,0
			c-15.9,0-18.2-2.2-18.8-18.5c-0.8-19.6-9.4-36-20.3-51.6c-14.3-20.5-24-43-29-67.3c-1.7-8.5-1.8-17.6-1.3-26.3
			c0.6-9.8,6-17.3,14.8-21.9c10.3-5.3,18.7-0.4,21.2,10.8c0.9,4.2,4.5,10.9,7.3,11.1c7.3,0.5,7.5-6.1,7.5-11.9
			C234.9,296.8,234.9,268.5,234.9,240.1z"/>
		<path d="M357.5,149.4c-3.8,5.5-6.5,12.8-11.7,15.9c-3.2,1.9-11.1-1.3-15.2-4.4c-2.6-2-2.8-7.9-3.2-12.2
			c-3.5-34.8-29-62.8-60.7-66.3c-37-4.1-68.3,15.4-78.8,49.4c-1.9,6.2-2.8,12.9-3.4,19.4c-1,10.3-6,16-14.8,15.2
			c-9.5-0.9-12.7-6.9-12.8-15.9c-0.4-39.9,27.8-78.7,67.1-91.9c41.4-13.9,87.5,1,112.6,36.5C347.9,110.9,354.2,129.2,357.5,149.4z"
			/>
	</g>
</g>
</svg>
