<?xml version="1.0" encoding="utf-8"?>
<!-- Generator: Adobe Illustrator 24.0.2, SVG Export Plug-In . SVG Version: 6.00 Build 0)  -->
<svg version="1.1"
	 id="svg857" inkscape:version="1.0.1 (c497b03c, 2020-09-10)" sodipodi:docname="newspaper.svg" xmlns:cc="http://creativecommons.org/ns#" xmlns:dc="http://purl.org/dc/elements/1.1/" xmlns:inkscape="http://www.inkscape.org/namespaces/inkscape" xmlns:rdf="http://www.w3.org/1999/02/22-rdf-syntax-ns#" xmlns:sodipodi="http://sodipodi.sourceforge.net/DTD/sodipodi-0.dtd" xmlns:svg="http://www.w3.org/2000/svg"
	 xmlns="http://www.w3.org/2000/svg" xmlns:xlink="http://www.w3.org/1999/xlink" x="0px" y="0px" viewBox="0 0 512 512"
	 style="enable-background:new 0 0 512 512;" xml:space="preserve">
<sodipodi:namedview  bordercolor="#666666" borderopacity="1" gridtolerance="10" guidetolerance="10" id="namedview859" inkscape:current-layer="svg857" inkscape:cx="152.5551" inkscape:cy="260.17959" inkscape:pageopacity="0" inkscape:pageshadow="2" inkscape:window-height="1049" inkscape:window-maximized="1" inkscape:window-width="1740" inkscape:window-x="0" inkscape:window-y="23" inkscape:zoom="1.4355469" objecttolerance="10" pagecolor="#ffffff" showgrid="false">
	</sodipodi:namedview>
<title  id="title851">Newspaper</title>
<g id="QPjbbY.tif">
	<g>
		<path d="M501,79.9c0,3.4,0,6.8,0,10.2c-0.7,1.5-1.8,2.9-2.1,4.5c-23.1,112.2-46.3,224.3-69.3,336.5c-5.1,25-11.6,29.4-37.1,24.2
			c-27.3-5.6-54.6-11.2-83.2-17.1c0,11.7-0.7,21.9,0.2,31.9c1.2,13.7-3.7,23.8-15.2,30.9c-94.4,0-188.8,0-283.3,0
			c0-130.2,0-260.3,0-390.5C18.5,99.2,29,96,42.3,96.2c47.9,0.6,95.9,0.1,143.8,0.4c8.5,0.1,13-1.6,14.4-11.3
			c2.4-16.7,7-33.2,9.8-49.8c2-11.3,6.9-19.8,17.6-24.5c3.4,0,6.8,0,10.2,0c1.9,0.8,3.8,1.9,5.8,2.3C321.6,29.6,399.2,46,476.8,62
			C488.1,64.3,496.6,69,501,79.9z M265.3,457.4c0-106.9,0-212.4,0-317.8c-70.7,0-140.3,0-210.3,0c0,106.3,0,211.8,0,317.8
			C125.5,457.4,195.1,457.4,265.3,457.4z M309.3,148.7c58.5,4.8,92.3,33.5,95.1,79.3c1.3,21.7-4,41.3-17.3,58.4
			c-19.5,25-46.1,34.5-77.7,33.6c0,23.3-0.2,45.3,0.2,67.3c0.1,2.9,3,7.6,5.3,8.1c24.7,5.6,49.5,10.6,75.3,15.9
			c21.4-103.9,42.6-206.7,64-310.6c-69.1-14.5-136.5-28.6-204.8-42.9c-2.6,13.4-4.9,24.9-7.6,38.5c15.9,0,30.2-0.4,44.5,0.1
			c14.9,0.5,22.5,8.4,23,23.2C309.6,129.5,309.3,139.2,309.3,148.7z M309.3,275.1c20.2,3.8,35.1-1.6,44.9-15.8
			c9.8-14.2,11-29.4,2.9-44.5c-8.1-15-21.3-22.5-38.5-22.6c-6,0-9.4,1.5-9.4,8.5C309.5,225.3,309.3,249.9,309.3,275.1z"/>
		<path d="M160.1,373.1c-20,0-39.9,0.2-59.9-0.1c-21.9-0.3-31.2-16.6-20.1-35.4c19.9-33.6,40-67.1,60.3-100.4
			c10.5-17.2,29.2-17.1,39.8,0.2c20.3,33.3,40.4,66.8,60.3,100.4c11.1,18.7,1.5,34.9-20.5,35.2C200.1,373.3,180.1,373.1,160.1,373.1
			z M134.8,329.3c17.8,0,33.5,0,51,0c-8.8-14.7-16.7-27.9-25.5-42.6C151.3,301.7,143.4,314.9,134.8,329.3z"/>
	</g>
</g>
</svg>
