<?xml version="1.0" encoding="utf-8"?>
<!-- Generator: Adobe Illustrator 24.0.2, SVG Export Plug-In . SVG Version: 6.00 Build 0)  -->
<svg version="1.1"
	 id="svg857" inkscape:version="1.0.1 (c497b03c, 2020-09-10)" sodipodi:docname="newspaper.svg" xmlns:cc="http://creativecommons.org/ns#" xmlns:dc="http://purl.org/dc/elements/1.1/" xmlns:inkscape="http://www.inkscape.org/namespaces/inkscape" xmlns:rdf="http://www.w3.org/1999/02/22-rdf-syntax-ns#" xmlns:sodipodi="http://sodipodi.sourceforge.net/DTD/sodipodi-0.dtd" xmlns:svg="http://www.w3.org/2000/svg"
	 xmlns="http://www.w3.org/2000/svg" xmlns:xlink="http://www.w3.org/1999/xlink" x="0px" y="0px" viewBox="0 0 512 512"
	 style="enable-background:new 0 0 512 512;" xml:space="preserve">
<sodipodi:namedview  bordercolor="#666666" borderopacity="1" gridtolerance="10" guidetolerance="10" id="namedview859" inkscape:current-layer="svg857" inkscape:cx="152.5551" inkscape:cy="260.17959" inkscape:pageopacity="0" inkscape:pageshadow="2" inkscape:window-height="1049" inkscape:window-maximized="1" inkscape:window-width="1740" inkscape:window-x="0" inkscape:window-y="23" inkscape:zoom="1.4355469" objecttolerance="10" pagecolor="#ffffff" showgrid="false">
	</sodipodi:namedview>
<title  id="title851">Newspaper</title>
<g id="xgtLck_2_">
	<g>
		<path d="M10,478.5C39.5,401,69.1,323.5,98.6,246c27.2-71.6,54.4-143.3,81.5-215c2.7-7,5.5-13.8,12.9-11.8c7.4,2,7.9,9.7,7.9,17.4
			c0,146.2,0.1,292.4,0,438.6c0,14.7-2.9,18-14.7,18c-53.7,0-107.3-0.1-161,0.2c-7,0-12.2-2.1-15.3-10.1C10,481.7,10,480.1,10,478.5
			z"/>
		<path d="M502,483.4c-3.2,7.8-8.3,10.1-15.3,10.1c-53.7-0.3-107.3-0.2-161-0.2c-11.8,0-14.6-3.3-14.6-18
			c-0.1-146.2,0-292.4-0.1-438.6c0-7.8,0.6-15.5,8-17.4c8-2.1,10.6,5.7,13.3,12.9C388.2,179.5,444.1,326.9,500,474.3
			c0.6,1.5,1.3,2.8,2,4.2C502,480.1,502,481.7,502,483.4z M332.8,90.9c-0.4,0.2-0.9,0.4-1.3,0.7c0,125.4,0,250.8,0,376.5
			c48.1,0,95.4,0,144.3,0C427.9,341.6,380.3,216.3,332.8,90.9z"/>
		<path d="M260.9,6.5c7.9,5.7,10.8,14.1,10.1,25.4c-0.6,10.1,0.1,20.4-0.2,30.5c-0.3,11.4-6.3,18.4-14.9,18.4
			c-8.7,0-14.6-6.9-14.8-18.3c-0.3-12.2-1.2-24.7,0.4-36.6c0.9-6.9,6.2-13,9.5-19.4C254.4,6.5,257.6,6.5,260.9,6.5z"/>
		<path d="M251.1,505.5c-11.3-7.8-11.2-20.8-9.5-33.9c1.1-9.1,6.6-14.3,13.9-14.4c7.1-0.1,12.7,4.1,14.9,13.1
			c3.5,13.9,0,26.4-9.4,35.2C257.6,505.5,254.4,505.5,251.1,505.5z"/>
		<path d="M241.1,380.7c0-6.1-0.3-12.3,0.1-18.4c0.6-10.8,6.4-17.7,14.6-17.7c8.6-0.1,14.8,7,15.1,18.4c0.3,12.3,0.3,24.6,0,36.9
			c-0.3,11.6-6.3,19-14.7,19.2c-8.8,0.2-14.7-7.6-15.1-19.9C241,393,241.1,386.9,241.1,380.7C241.1,380.7,241.1,380.7,241.1,380.7z"
			/>
		<path d="M270.9,157.1c0,6.1,0.2,12.2,0,18.3c-0.5,10.7-6.1,17.7-14.1,18.1c-8.6,0.3-15.2-6.7-15.5-17.5c-0.4-13-0.4-26.1,0-39.1
			c0.3-10.6,6.5-17.4,14.6-17.5c8.5-0.1,14.6,7,15.1,18.2C271.1,144.1,270.9,150.6,270.9,157.1z"/>
		<path d="M270.9,268.9c0,6.6,0.3,13.1-0.1,19.7c-0.6,10.5-6.7,17.7-14.6,17.8c-8.4,0.1-14.7-7.2-15-18.5c-0.3-12.3-0.3-24.6,0-36.9
			c0.3-11.7,6-18.8,14.6-18.8c9.2-0.1,14.8,7.1,15.1,19.5C271,257.5,270.9,263.2,270.9,268.9C270.9,268.9,270.9,268.9,270.9,268.9z"
			/>
	</g>
</g>
</svg>
