<?xml version="1.0" encoding="utf-8"?>
<!-- Generator: Adobe Illustrator 24.0.2, SVG Export Plug-In . SVG Version: 6.00 Build 0)  -->
<svg version="1.1" id="Layer_1" xmlns="http://www.w3.org/2000/svg" xmlns:xlink="http://www.w3.org/1999/xlink" x="0px" y="0px"
	 viewBox="0 0 512 512" style="enable-background:new 0 0 512 512;" xml:space="preserve">
<g id="Ggbb7I_1_">
	<g>
		<path d="M502.8,306.3c0,1.2,0,2.2,0,3.1c0,42.3,0,84.6,0,127c0,1.7-0.5,2.6-2,3.5c-36.8,21.2-73.6,42.5-110.4,63.8
			c-0.6,0.3-1.2,0.6-2.1,1.1c0-1,0-1.8,0-2.5c0-42.6,0-85.2,0-127.8c0-1.3,0.3-2.1,1.6-2.9c37.1-21.4,74.1-42.8,111.2-64.2
			C501.5,306.9,502,306.7,502.8,306.3z"/>
		<path d="M256.1,306.9c5.4,3.1,10.6,6.1,15.7,9c9.1,5.3,18.3,10.5,27.4,15.8c1.1,0.6,1.5,1.4,1.5,2.7c-0.1,9.8,0,19.5-0.1,29.3
			c0,1.5,0.4,2.3,1.8,2.9c5,2.5,10,5.1,14.9,7.6c0.5,0.3,1.1,0.5,1.9,0.9c0-10.6,0-20.8,0-31.4c0.7,0.3,1.2,0.5,1.7,0.8
			c15.7,9,31.4,18.1,47.1,27.1c1.1,0.6,1.7,1.2,1.7,2.6c0,42.8,0,85.7,0,128.5c0,0.3,0,0.6-0.1,1.2c-0.7-0.3-1.2-0.5-1.7-0.8
			c-36.8-21.3-73.6-42.5-110.4-63.8c-1-0.6-1.5-1.2-1.5-2.4c0-42.8,0-85.7,0-128.5C256,308,256.1,307.6,256.1,306.9z"/>
		<path d="M327,329.2c6.4-3.7,12.5-7.2,18.6-10.8c32.2-18.6,64.4-37.2,96.6-55.9c1.8-1,3-1,4.7,0c15.7,9.1,31.6,18.1,47.4,27.1
			c0.6,0.3,1.2,0.7,2.1,1.2c-0.6,0.4-1.1,0.8-1.6,1.1c-38.1,22-76.2,44-114.2,66.1c-1.3,0.7-2.1,0.6-3.2-0.1
			c-13.6-7.9-27.3-15.8-41-23.7C333.4,332.5,330.3,331,327,329.2z"/>
		<path d="M261.4,290.8c10.9-6.3,21.6-12.5,32.2-18.6c27.9-16.1,55.7-32.2,83.5-48.3c1.3-0.8,2.3-0.8,3.6,0c13.7,8,27.5,16,41.3,24
			c0.7,0.4,1.3,0.8,2.1,1.3c-0.7,0.4-1.2,0.8-1.7,1.1c-38,21.9-75.9,43.9-113.8,65.8c-1.3,0.8-2.2,0.9-3.6,0.1
			c-13.9-8.1-27.8-16.1-41.7-24.1C262.8,291.7,262.2,291.3,261.4,290.8z"/>
	</g>
</g>
<g id="Ggbb7I_2_">
	<g>
		<path d="M250.9,309.1c0,1.2,0,2.2,0,3.1c0,42.3,0,84.6,0,127c0,1.7-0.5,2.6-2,3.5c-36.8,21.2-73.6,42.5-110.4,63.8
			c-0.6,0.3-1.2,0.6-2.1,1.1c0-1,0-1.8,0-2.5c0-42.6,0-85.2,0-127.8c0-1.3,0.3-2.1,1.6-2.9C175,352.9,212,331.5,249,310.1
			C249.5,309.8,250,309.5,250.9,309.1z"/>
		<path d="M4.2,309.8c5.4,3.1,10.6,6.1,15.7,9c9.1,5.3,18.3,10.5,27.4,15.8c1.1,0.6,1.5,1.4,1.5,2.7c-0.1,9.8,0,19.5-0.1,29.3
			c0,1.5,0.4,2.3,1.8,2.9c5,2.5,10,5.1,14.9,7.6c0.5,0.3,1.1,0.5,1.9,0.9c0-10.6,0-20.8,0-31.4c0.7,0.3,1.2,0.5,1.7,0.8
			c15.7,9,31.4,18.1,47.1,27.1c1.1,0.6,1.7,1.2,1.7,2.6c0,42.8,0,85.7,0,128.5c0,0.3,0,0.6-0.1,1.2c-0.7-0.3-1.2-0.5-1.7-0.8
			c-36.8-21.3-73.6-42.5-110.4-63.8c-1-0.6-1.5-1.2-1.5-2.4c0-42.8,0-85.7,0-128.5C4.1,310.8,4.1,310.5,4.2,309.8z"/>
		<path d="M75.1,332.1c6.4-3.7,12.5-7.2,18.6-10.8c32.2-18.6,64.4-37.2,96.6-55.9c1.8-1,3-1,4.7,0c15.7,9.1,31.6,18.1,47.4,27.1
			c0.6,0.3,1.2,0.7,2.1,1.2c-0.6,0.4-1.1,0.8-1.6,1.1c-38.1,22-76.2,44-114.2,66.1c-1.3,0.7-2.1,0.6-3.2-0.1
			c-13.6-7.9-27.3-15.8-41-23.7C81.5,335.4,78.4,333.9,75.1,332.1z"/>
		<path d="M9.5,293.7c10.9-6.3,21.6-12.5,32.2-18.6c27.9-16.1,55.7-32.2,83.5-48.3c1.3-0.8,2.3-0.8,3.6,0c13.7,8,27.5,16,41.3,24
			c0.7,0.4,1.3,0.8,2.1,1.3c-0.7,0.4-1.2,0.8-1.7,1.1c-38,21.9-75.9,43.9-113.8,65.8c-1.3,0.8-2.2,0.9-3.6,0.1
			c-13.9-8.1-27.8-16.1-41.7-24.1C10.8,294.5,10.3,294.2,9.5,293.7z"/>
	</g>
</g>
<g id="Ggbb7I_3_">
	<g>
		<path d="M374.9,88.3c0,1.2,0,2.2,0,3.1c0,42.3,0,84.6,0,127c0,1.7-0.5,2.6-2,3.5c-36.8,21.2-73.6,42.5-110.4,63.8
			c-0.6,0.3-1.2,0.6-2.1,1.1c0-1,0-1.8,0-2.5c0-42.6,0-85.2,0-127.8c0-1.3,0.3-2.1,1.6-2.9c37.1-21.4,74.1-42.8,111.2-64.2
			C373.5,89,374,88.7,374.9,88.3z"/>
		<path d="M128.2,88.9c5.4,3.1,10.6,6.1,15.7,9c9.1,5.3,18.3,10.5,27.4,15.8c1.1,0.6,1.5,1.4,1.5,2.7c-0.1,9.8,0,19.5-0.1,29.3
			c0,1.5,0.4,2.3,1.8,2.9c5,2.5,10,5.1,14.9,7.6c0.5,0.3,1.1,0.5,1.9,0.9c0-10.6,0-20.8,0-31.4c0.7,0.3,1.2,0.5,1.7,0.8
			c15.7,9,31.4,18.1,47.1,27.1c1.1,0.6,1.7,1.2,1.7,2.6c0,42.8,0,85.7,0,128.5c0,0.3,0,0.6-0.1,1.2c-0.7-0.3-1.2-0.5-1.7-0.8
			c-36.8-21.3-73.6-42.5-110.4-63.8c-1-0.6-1.5-1.2-1.5-2.4c0-42.8,0-85.7,0-128.5C128.1,90,128.1,89.6,128.2,88.9z"/>
		<path d="M199,111.3c6.4-3.7,12.5-7.2,18.6-10.8c32.2-18.6,64.4-37.2,96.6-55.9c1.8-1,3-1,4.7,0c15.7,9.1,31.6,18.1,47.4,27.1
			c0.6,0.3,1.2,0.7,2.1,1.2c-0.6,0.4-1.1,0.8-1.6,1.1c-38.1,22-76.2,44-114.2,66.1c-1.3,0.7-2.1,0.6-3.2-0.1
			c-13.6-7.9-27.3-15.8-41-23.7C205.4,114.5,202.4,113,199,111.3z"/>
		<path d="M133.4,72.8c10.9-6.3,21.6-12.5,32.2-18.6c27.9-16.1,55.7-32.2,83.5-48.3c1.3-0.8,2.3-0.8,3.6,0c13.7,8,27.5,16,41.3,24
			c0.7,0.4,1.3,0.8,2.1,1.3c-0.7,0.4-1.2,0.8-1.7,1.1c-38,21.9-75.9,43.9-113.8,65.8c-1.3,0.8-2.2,0.9-3.6,0.1
			c-13.9-8.1-27.8-16.1-41.7-24.1C134.8,73.7,134.3,73.4,133.4,72.8z"/>
	</g>
</g>
</svg>
