<?xml version="1.0" encoding="utf-8"?>
<!-- Generator: Adobe Illustrator 24.0.2, SVG Export Plug-In . SVG Version: 6.00 Build 0)  -->
<svg version="1.1" id="Capa_1" xmlns="http://www.w3.org/2000/svg" xmlns:xlink="http://www.w3.org/1999/xlink" x="0px" y="0px"
	 viewBox="0 0 350 350" style="enable-background:new 0 0 350 350;" xml:space="preserve">
<g id="hZ4OAw_1_">
	<g>
		<path d="M309.3,263.8c-8.5,0-17,0-25.5,0c-9.1,0-9.1,0-9.1-8.8c0-39.2,0-78.4,0-117.6c0-2.1,0-4.1,0-6.2
			c-9.2,2.2-17.7,4.3-26.3,6.1c-6.3,1.4-7,0.7-7-5.9c0-6-0.3-12.1,0.2-18.1c0.1-1.7,2-4.1,3.5-4.6c15.1-4.9,29.7-10.4,41.7-21.3
			c1.2-1.1,3.6-1.3,5.4-1.4c5.7-0.2,11.3-0.1,17-0.1C309.3,145.3,309.3,204.5,309.3,263.8z"/>
	</g>
</g>
<g id="Ia7WgI.tif">
	<g>
		<path d="M142.5,264c0-23,0-45.6,0-68.5c-22.9,0-45.6,0-68.7,0c0,22.8,0,45.5,0,68.5c-11.9,0-23.3,0-35,0c0-57.5,0-114.8,0-172.5
			c11.5,0,22.9,0,34.9,0c0,22.8,0,45.5,0,68.5c23.1,0,45.7,0,68.8,0c0-22.8,0-45.6,0-68.5c11.8,0,23.2,0,35,0
			c0,57.5,0,114.9,0,172.5C165.9,264,154.4,264,142.5,264z"/>
	</g>
</g>
</svg>
