<?xml version="1.0" encoding="utf-8"?>
<!-- Generator: Adobe Illustrator 24.0.2, SVG Export Plug-In . SVG Version: 6.00 Build 0)  -->
<svg version="1.1" id="Capa_1" xmlns="http://www.w3.org/2000/svg" xmlns:xlink="http://www.w3.org/1999/xlink" x="0px" y="0px"
	 viewBox="0 0 350 350" style="enable-background:new 0 0 350 350;" xml:space="preserve">
<g id="hZ4OAw_1_">
	<g>
		<path d="M303.3,259.9c-8.1,0-16.2,0-24.3,0c-8.7,0-8.7,0-8.7-8.4c0-37.4,0-74.9,0-112.3c0-2,0-3.9,0-6c-8.8,2.1-16.9,4.1-25.1,5.9
			c-6,1.4-6.7,0.7-6.7-5.6c0-5.7-0.3-11.6,0.2-17.3c0.1-1.6,1.9-3.9,3.3-4.4c14.5-4.7,28.4-9.9,39.8-20.3c1.1-1,3.4-1.3,5.2-1.4
			c5.4-0.2,10.8-0.1,16.2-0.1C303.3,146.6,303.3,203.2,303.3,259.9z"/>
	</g>
</g>
<g id="Ia7WgI.tif">
	<g>
		<path d="M143.9,260c0-21.9,0-43.5,0-65.5c-21.9,0-43.5,0-65.6,0c0,21.8,0,43.4,0,65.5c-11.4,0-22.3,0-33.4,0
			c0-54.9,0-109.7,0-164.8c11,0,21.9,0,33.3,0c0,21.8,0,43.4,0,65.5c22.1,0,43.6,0,65.7,0c0-21.8,0-43.5,0-65.5
			c11.3,0,22.2,0,33.4,0c0,54.9,0,109.8,0,164.8C166.3,260,155.3,260,143.9,260z"/>
	</g>
</g>
</svg>
