<?xml version="1.0" encoding="utf-8"?>
<!-- Generator: Adobe Illustrator 24.0.2, SVG Export Plug-In . SVG Version: 6.00 Build 0)  -->
<svg version="1.1" id="Capa_1" xmlns="http://www.w3.org/2000/svg" xmlns:xlink="http://www.w3.org/1999/xlink" x="0px" y="0px"
	 viewBox="0 0 350 350" style="enable-background:new 0 0 350 350;" xml:space="preserve">
<g id="Ia7WgI.tif">
	<g>
		<path d="M331.6,253.9c-1.3,0.1-2.6,0.3-3.9,0.3c-42.5,0-85.2,0-127.7,0c-1.5,0-2.8,0-4.7,0c0-7.2-0.2-14.1,0.1-20.9
			c0.1-1.3,1.8-2.8,2.9-3.8c13.2-10.4,26.8-20.3,39.7-30.9c13.7-11.4,27.1-23.3,36.8-38.6c4.1-6.4,6.9-13.1,6.9-20.7
			c-0.1-12.1-7.5-20.8-19.7-23.2c-14.7-3-27,2.1-38.5,10.6c-2.3,1.8-4.6,3.5-7,5.3c-6.8-7-13.5-14.1-20.8-21.7
			c4.7-3.6,9.8-8.7,15.9-12.2c27.9-16.4,57.2-19.1,86-3.3c23.5,12.9,30.9,41.8,18.6,65.7c-7.6,14.8-18.8,26.7-30.4,38.3
			c-7,6.9-13.8,13.7-21.4,21.2c23.1,0,45.1,0,67.4,0C331.6,231.2,331.6,242.5,331.6,253.9z"/>
		<path d="M127.3,253.9c0-22.5,0-44.6,0-67.2c-22.4,0-44.6,0-67.4,0c0,22.3,0,44.5,0,67.2c-11.6,0-22.8,0-34.3,0
			c0-56.3,0-112.5,0-169c11.3,0,22.4,0,34.2,0c0,22.3,0,44.5,0,67.2c22.6,0,44.7,0,67.4,0c0-22.3,0-44.6,0-67.2
			c11.6,0,22.7,0,34.3,0c0,56.3,0,112.6,0,169C150.1,253.9,139,253.9,127.3,253.9z"/>
	</g>
</g>
</svg>
