<?xml version="1.0" encoding="utf-8"?>
<!-- Generator: Adobe Illustrator 24.0.2, SVG Export Plug-In . SVG Version: 6.00 Build 0)  -->
<svg version="1.1" id="Capa_1" xmlns="http://www.w3.org/2000/svg" xmlns:xlink="http://www.w3.org/1999/xlink" x="0px" y="0px"
	 viewBox="0 0 350 350" style="enable-background:new 0 0 350 350;" xml:space="preserve">
<g id="Ia7WgI.tif">
	<g>
		<path d="M337.8,255.6c-1.3,0.1-2.7,0.3-4,0.3c-43.4,0-86.9,0-130.3,0c-1.5,0-2.9,0-4.8,0c0-7.4-0.2-14.4,0.1-21.4
			c0.1-1.3,1.8-2.9,3-3.9c13.5-10.6,27.4-20.7,40.6-31.6c14-11.6,27.7-23.8,37.6-39.4c4.2-6.5,7-13.4,7-21.1
			c-0.1-12.4-7.7-21.2-20.1-23.7c-15-3.1-27.6,2.1-39.3,10.8c-2.4,1.8-4.7,3.6-7.1,5.4c-6.9-7.2-13.8-14.4-21.2-22.2
			c4.8-3.7,10-8.9,16.2-12.5c28.5-16.8,58.3-19.5,87.7-3.4c24,13.2,31.6,42.7,19,67c-7.8,15.1-19.2,27.3-31.1,39.1
			c-7.1,7-14.1,14-21.9,21.7c23.6,0,46.1,0,68.7,0C337.8,232.4,337.8,244,337.8,255.6z"/>
		<path d="M129.2,255.6c0-23,0-45.6,0-68.5c-22.9,0-45.6,0-68.7,0c0,22.8,0,45.5,0,68.5c-11.9,0-23.3,0-35,0c0-57.5,0-114.8,0-172.5
			c11.5,0,22.9,0,34.9,0c0,22.8,0,45.5,0,68.5c23.1,0,45.7,0,68.8,0c0-22.8,0-45.6,0-68.5c11.8,0,23.2,0,35,0
			c0,57.5,0,114.9,0,172.5C152.5,255.6,141.1,255.6,129.2,255.6z"/>
	</g>
</g>
</svg>
