<?xml version="1.0" encoding="utf-8"?>
<!-- Generator: Adobe Illustrator 24.0.2, SVG Export Plug-In . SVG Version: 6.00 Build 0)  -->
<svg version="1.1" id="Capa_1" xmlns="http://www.w3.org/2000/svg" xmlns:xlink="http://www.w3.org/1999/xlink" x="0px" y="0px"
	 viewBox="0 0 350 350" style="enable-background:new 0 0 350 350;" xml:space="preserve">
<g id="CDfK6a_1_">
	<g>
		<path d="M33,96.7c10.5,0,20.4,0,31.1,0c0,20.7,0,41.1,0,62c21.3,0,41.9,0,63.3,0c0-20.7,0-41,0-61.9c10.5,0,20.3,0,30.6,0
			c0,51.9,0,103.8,0,156.4c-9.7,0-19.4,0-30.3,0c0-20.4,0-40.9,0-61.9c-21.5,0-41.9,0-63.3,0c0,20.5,0,41.1,0,62c-11,0-21,0-31.5,0
			C33,201.2,33,149.5,33,96.7z"/>
		<path d="M190.3,232.4c6.2-7.7,11.8-14.7,15.7-19.6c13.8,4.5,25.9,9.8,38.5,12.1c7.5,1.3,15.9-1.5,23.7-3.5
			c6.5-1.6,10.4-6.7,10.6-13.6c0.2-7.3-2.8-13.7-9.9-16c-8.2-2.7-16.8-4.1-25.3-5.6c-4.3-0.8-8.9-0.5-14-0.7c0-8.1,0-15.8,0-23.3
			c9.2-1.6,18.5-2.9,27.7-5c3.6-0.8,7.4-2.9,10.2-5.4c9.1-8.2,6.8-21.4-4.4-26.1c-10.4-4.3-20.9-3.2-31,1.4
			c-6,2.8-11.8,6.2-18.2,9.7c-6-6.8-12.1-13.7-18.6-21c12.1-9.6,25.3-15.9,40.2-18.1c18.3-2.8,36.4-2,53.4,6.3
			c13.9,6.8,22.3,17.8,22.3,33.8c0,15.3-9.9,23.6-22.2,30c-2.7,1.4-5.5,2.6-8.6,4.1c5.9,2.7,11.8,4.8,17,7.8
			c24.1,13.9,26.3,43.6,3.2,59.4c-9.8,6.7-22.1,11.2-33.9,13.2c-24.3,4.2-48.1,1.5-69.1-13.5C195.5,236.9,193.2,234.8,190.3,232.4z"
			/>
	</g>
</g>
</svg>
