<?xml version="1.0" encoding="utf-8"?>
<!-- Generator: Adobe Illustrator 24.0.2, SVG Export Plug-In . SVG Version: 6.00 Build 0)  -->
<svg version="1.1" id="Capa_1" xmlns="http://www.w3.org/2000/svg" xmlns:xlink="http://www.w3.org/1999/xlink" x="0px" y="0px"
	 viewBox="0 0 350 350" style="enable-background:new 0 0 350 350;" xml:space="preserve">
<style type="text/css">
	.st0{fill:#FFFFFF;}
</style>
<g id="zaQN2L_1_">
	<g>
		<path d="M126.6,158.1c0-21.1,0-42.2,0-63.8c10.9,0,21,0,31.7,0c0,53.6,0,107.3,0,161.6c-10.2,0-20.2,0-31.2,0
			c0-21.2,0-42.2,0-63.8c-22.3,0-43.5,0-65.6,0c0,21.1,0,42.1,0,63.7c-11.1,0-21.4,0-32.4,0c0-53.6,0-107.3,0-161.6
			c10.5,0,20.8,0,31.9,0c0,21.2,0,42.2,0,63.9C83.1,158.1,104.4,158.1,126.6,158.1z"/>
		<path d="M305.9,93.7c0,33.2,0,64.9,0,97.3c5.7,0.3,10.7,0.6,16.1,0.9c0,10.5,0,20.6,0,31.3c-5.1,0.3-9.9,0.6-15.7,1
			c0,10.4,0,20.6,0,31.5c-11.3,0-21.5,0-32.3,0c0-10.3,0-20.3,0-31.5c-27.4,0-54.1,0-81.9,0c0.5-16.9-2.5-32.1,8.8-47
			c18.7-24.6,35.1-51,52.3-76.8c3.2-4.8,6.5-7.1,12.5-6.9C278.6,94.1,291.6,93.7,305.9,93.7z M273.4,128.9c-0.5-0.3-1.1-0.5-1.6-0.8
			c-14.4,20.7-28.8,41.3-43.6,62.7c15.9,0,30.4,0,45.2,0C273.4,169.8,273.4,149.3,273.4,128.9z"/>
		<path class="st0" d="M273.4,128.9c0,20.4,0,40.9,0,62c-14.8,0-29.3,0-45.2,0c14.9-21.4,29.2-42,43.6-62.7
			C272.3,128.4,272.9,128.6,273.4,128.9z"/>
	</g>
</g>
</svg>
