<?xml version="1.0" encoding="utf-8"?>
<!-- Generator: Adobe Illustrator 24.0.2, SVG Export Plug-In . SVG Version: 6.00 Build 0)  -->
<svg version="1.1" id="Capa_1" xmlns="http://www.w3.org/2000/svg" xmlns:xlink="http://www.w3.org/1999/xlink" x="0px" y="0px"
	 viewBox="0 0 350 350" style="enable-background:new 0 0 350 350;" xml:space="preserve">
<style type="text/css">
	.st0{fill:#FFFFFF;}
</style>
<g id="zaQN2L_1_">
	<g>
		<path d="M124.3,157.3c0-22.1,0-44.2,0-66.8c11.4,0,22,0,33.2,0c0,56.1,0,112.4,0,169.2c-10.7,0-21.2,0-32.7,0
			c0-22.2,0-44.2,0-66.8c-23.4,0-45.6,0-68.7,0c0,22.1,0,44.1,0,66.7c-11.6,0-22.4,0-33.9,0c0-56.1,0-112.4,0-169.2
			c11,0,21.8,0,33.4,0c0,22.2,0,44.2,0,66.9C78.7,157.3,101,157.3,124.3,157.3z"/>
		<path d="M312.1,89.9c0,34.8,0,68,0,101.9c6,0.3,11.2,0.6,16.9,0.9c0,11,0,21.6,0,32.8c-5.3,0.3-10.4,0.6-16.4,1
			c0,10.9,0,21.6,0,33c-11.8,0-22.5,0-33.8,0c0-10.8,0-21.3,0-33c-28.7,0-56.7,0-85.8,0c0.5-17.7-2.6-33.6,9.2-49.2
			c19.6-25.8,36.8-53.4,54.8-80.4c3.4-5,6.8-7.4,13.1-7.2C283.5,90.3,297.1,89.9,312.1,89.9z M278,126.7c-0.5-0.3-1.2-0.5-1.7-0.8
			c-15.1,21.7-30.2,43.2-45.7,65.7c16.7,0,31.8,0,47.3,0C278,169.6,278,148.1,278,126.7z"/>
		<path class="st0" d="M278,126.7c0,21.4,0,42.8,0,64.9c-15.5,0-30.7,0-47.3,0c15.6-22.4,30.6-44,45.7-65.7
			C276.9,126.2,277.5,126.4,278,126.7z"/>
	</g>
</g>
</svg>
