<?xml version="1.0" encoding="utf-8"?>
<!-- Generator: Adobe Illustrator 24.0.2, SVG Export Plug-In . SVG Version: 6.00 Build 0)  -->
<svg version="1.1" id="Capa_1" xmlns="http://www.w3.org/2000/svg" xmlns:xlink="http://www.w3.org/1999/xlink" x="0px" y="0px"
	 viewBox="0 0 350 350" style="enable-background:new 0 0 350 350;" xml:space="preserve">
<g id="LJrLDd_1_">
	<g>
		<path d="M65.1,253.2c-11.3,0-21.3,0-31.7,0c0-52.4,0-104.3,0-156.8c10.2,0,20.2,0,31,0c0,20.3,0,40.7,0,61.8c21.4,0,42,0,63.6,0
			c0-20.3,0-40.7,0-61.7c10.8,0,20.8,0,31.1,0c0,52.2,0,104.1,0,156.6c-9.9,0-19.6,0-30.6,0c0-20.6,0-41.2,0-62.1
			c-21.7,0-42.1,0-63.4,0C65.1,211.5,65.1,231.9,65.1,253.2z"/>
		<path d="M191.6,231.8c5.7-7.4,11.1-14.5,16.9-22c11.8,7.8,23.4,15.8,37.9,14.9c7.1-0.4,14.5-1.9,21.1-4.5
			c7.8-3.1,11.9-9.7,12.1-18.6c0.2-9.1-3.4-16-11.2-20.2c-13.6-7.4-27.5-6.8-41.4-0.7c-10.6,4.6-22.5-3-21.9-14.3
			c1.1-21.4,2.4-42.7,3.6-64c0.1-1.9,0.6-3.8,1-6c33.2,0,66.1,0,99.7,0c0,9.3,0,18.7,0,29c-21.8,0-43.8,0-66.9,0
			c-1.3,10-2.5,19.3-3.6,28.1c13.4,0,26.3-1.5,38.7,0.3c22.4,3.3,35.9,17.4,39.6,38c3.6,20-5.7,39.7-23.9,50.9
			C263.4,260.9,220.8,256.7,191.6,231.8z"/>
	</g>
</g>
</svg>
