<?xml version="1.0" encoding="utf-8"?>
<!-- Generator: Adobe Illustrator 24.0.2, SVG Export Plug-In . SVG Version: 6.00 Build 0)  -->
<svg version="1.1" id="Capa_1" xmlns="http://www.w3.org/2000/svg" xmlns:xlink="http://www.w3.org/1999/xlink" x="0px" y="0px"
	 viewBox="0 0 350 350" style="enable-background:new 0 0 350 350;" xml:space="preserve">
<g id="LJrLDd_1_">
	<g>
		<path d="M56.3,259.4c-12.2,0-23,0-34.2,0c0-56.6,0-112.6,0-169.3c11,0,21.8,0,33.5,0c0,21.9,0,43.9,0,66.7c23.1,0,45.4,0,68.7,0
			c0-21.9,0-43.9,0-66.6c11.7,0,22.5,0,33.6,0c0,56.4,0,112.4,0,169.1c-10.7,0-21.2,0-33,0c0-22.2,0-44.5,0-67.1
			c-23.4,0-45.5,0-68.5,0C56.3,214.4,56.3,236.4,56.3,259.4z"/>
		<path d="M192.9,236.3c6.2-8,12-15.7,18.2-23.8c12.7,8.4,25.3,17.1,40.9,16.1c7.7-0.4,15.7-2.1,22.8-4.9
			c8.4-3.3,12.8-10.5,13.1-20.1c0.2-9.8-3.7-17.3-12.1-21.8c-14.7-8-29.7-7.3-44.7-0.8c-11.4,5-24.3-3.2-23.6-15.4
			c1.2-23.1,2.6-46.1,3.9-69.1c0.1-2.1,0.6-4.1,1.1-6.5c35.8,0,71.4,0,107.7,0c0,10,0,20.2,0,31.3c-23.5,0-47.3,0-72.2,0
			c-1.4,10.8-2.7,20.8-3.9,30.3c14.5,0,28.4-1.6,41.8,0.3c24.2,3.6,38.8,18.8,42.8,41c3.9,21.6-6.2,42.9-25.8,55
			C270.4,267.7,224.4,263.2,192.9,236.3z"/>
	</g>
</g>
</svg>
