<?xml version="1.0" encoding="utf-8"?>
<!-- Generator: Adobe Illustrator 24.0.2, SVG Export Plug-In . SVG Version: 6.00 Build 0)  -->
<svg version="1.1" id="Capa_1" xmlns="http://www.w3.org/2000/svg" xmlns:xlink="http://www.w3.org/1999/xlink" x="0px" y="0px"
	 viewBox="0 0 350 350" style="enable-background:new 0 0 350 350;" xml:space="preserve">
<style type="text/css">
	.st0{fill:#FFFFFF;}
</style>
<g id="uRklLW.tif">
	<g>
		<path d="M160.4,260.1c-11.4,0-22.5,0-34,0c0-22.7,0-45.3,0-67.9c-22.7,0-45.2,0-67.9,0c0,22.6,0,45.2,0,67.9
			c-11.6,0-22.7,0-34.1,0c0-56.5,0-113,0-169.8c11.2,0,22.3,0,33.9,0c0,22.5,0,45,0,67.8c22.8,0,45.3,0,68.1,0c0-22.6,0-45.2,0-67.9
			c11.6,0,22.6,0,34,0C160.4,146.8,160.4,203.3,160.4,260.1z"/>
		<path d="M329.6,109.7c-8.2,7.7-15.8,14.8-23.6,22.1c-3.6-2.1-7.7-4.7-11.9-6.8c-14.6-7.4-35.4-4.2-47,7.3
			c-7.7,7.6-11.2,17.4-13.1,27.8c-0.8,4-1.1,8.1-1.7,13.3c1.8-1.5,2.9-2.4,4-3.2c20.8-15.3,43.2-19.6,67.4-9
			c14.7,6.5,22.3,18.9,25.7,34.1c4.9,21.7-3.7,41.5-23.3,53.7c-17.3,10.9-36.2,13.1-56,9c-24-5-40.4-19.5-49.8-41.8
			c-4.7-11-6-22.8-6-34.9c-0.1-16.4,1.9-32.4,8.8-47.4c10.8-24.1,29.5-38.8,55.8-42.7c20.1-3,39.5-0.2,57.5,10
			C320.8,103.5,324.8,106.6,329.6,109.7z M267.2,181.4c-10.7,0.8-19.9,4.4-28.4,10.7c-5.1,3.7-6.9,7.5-4.8,13.8
			c3.5,10.2,7.8,19.6,18.3,24.5c6.5,3,13.4,1.8,20.1,0.9c5.1-0.8,9.9-2.3,13.5-6.2c7.1-7.5,8.2-16.7,6.4-26.2
			c-1.3-6.9-5.7-11.9-12.5-14.2C275.7,183.1,271.4,182.4,267.2,181.4z"/>
		<path class="st0" d="M267.2,181.4c4.2,1.1,8.4,1.8,12.6,3.2c6.7,2.3,11.2,7.3,12.5,14.2c1.8,9.5,0.9,18.7-6.4,26.2
			c-3.7,3.8-8.4,5.4-13.5,6.2c-6.7,1-13.6,2.2-20.1-0.9c-10.5-4.8-14.7-14.3-18.3-24.5c-2.2-6.3-0.2-10.1,4.8-13.8
			C247.2,185.7,256.4,182,267.2,181.4z"/>
	</g>
</g>
</svg>
