<?xml version="1.0" encoding="utf-8"?>
<!-- Generator: Adobe Illustrator 24.0.2, SVG Export Plug-In . SVG Version: 6.00 Build 0)  -->
<svg version="1.1" id="Capa_1" xmlns="http://www.w3.org/2000/svg" xmlns:xlink="http://www.w3.org/1999/xlink" x="0px" y="0px"
	 viewBox="0 0 350 350" style="enable-background:new 0 0 350 350;" xml:space="preserve">
<style type="text/css">
	.st0{fill:#FFFFFF;}
</style>
<g id="uRklLW.tif">
	<g>
		<path d="M161.7,253.6c-10.5,0-20.8,0-31.4,0c0-21,0-41.8,0-62.7c-21,0-41.7,0-62.7,0c0,20.9,0,41.7,0,62.7c-10.7,0-21,0-31.5,0
			c0-52.2,0-104.4,0-156.8c10.3,0,20.6,0,31.3,0c0,20.8,0,41.6,0,62.6c21.1,0,41.8,0,62.9,0c0-20.9,0-41.7,0-62.7
			c10.7,0,20.9,0,31.4,0C161.7,149,161.7,201.1,161.7,253.6z"/>
		<path d="M318,114.7c-7.6,7.1-14.6,13.7-21.8,20.4c-3.3-1.9-7.1-4.3-11-6.3c-13.5-6.8-32.7-3.9-43.4,6.7
			c-7.1,7-10.3,16.1-12.1,25.7c-0.7,3.7-1,7.5-1.6,12.3c1.7-1.4,2.7-2.2,3.7-3c19.2-14.1,39.9-18.1,62.2-8.3
			c13.6,6,20.6,17.5,23.7,31.5c4.5,20-3.4,38.3-21.5,49.6c-16,10.1-33.4,12.1-51.7,8.3c-22.2-4.6-37.3-18-46-38.6
			c-4.3-10.2-5.5-21.1-5.5-32.2c-0.1-15.1,1.8-29.9,8.1-43.8c10-22.3,27.2-35.8,51.5-39.4c18.6-2.8,36.5-0.2,53.1,9.2
			C309.8,109,313.5,111.8,318,114.7z M260.3,180.9c-9.9,0.7-18.4,4.1-26.2,9.9c-4.7,3.4-6.4,6.9-4.4,12.7
			c3.2,9.4,7.2,18.1,16.9,22.6c6,2.8,12.4,1.7,18.6,0.8c4.7-0.7,9.1-2.1,12.5-5.7c6.6-6.9,7.6-15.4,5.9-24.2
			c-1.2-6.4-5.3-11-11.5-13.1C268.2,182.5,264.2,181.8,260.3,180.9z"/>
		<path class="st0" d="M260.3,180.9c3.9,1,7.8,1.7,11.6,3c6.2,2.1,10.3,6.7,11.5,13.1c1.7,8.8,0.8,17.3-5.9,24.2
			c-3.4,3.5-7.8,5-12.5,5.7c-6.2,0.9-12.6,2-18.6-0.8c-9.7-4.4-13.6-13.2-16.9-22.6c-2-5.8-0.2-9.3,4.4-12.7
			C241.9,184.9,250.4,181.5,260.3,180.9z"/>
	</g>
</g>
</svg>
