<?xml version="1.0" encoding="utf-8"?>
<!-- Generator: Adobe Illustrator 24.0.2, SVG Export Plug-In . SVG Version: 6.00 Build 0)  -->
<svg version="1.1" id="Capa_1" xmlns="http://www.w3.org/2000/svg" xmlns:xlink="http://www.w3.org/1999/xlink" x="0px" y="0px"
	 viewBox="0 0 350 350" style="enable-background:new 0 0 350 350;" xml:space="preserve">
<g id="Z9KqwQ.tif">
	<g>
		<path d="M14.5,297.7c0-81.2,0-162.5,0-243.7c5.6-13.5,10.2-16.6,25.2-16.6c91.8,0,183.6,0,275.4,0c1.3,0,2.7-0.1,4,0
			c6.7,0.4,12.1,3.2,15.7,8.8c1.5,2.4,2.5,5.1,3.6,7.7c0,81.2,0,162.5,0,243.7c-2.5,8.5-8,14.2-16.6,16.6c-96.9,0-193.8,0-290.6,0
			C22.5,311.9,17,306.3,14.5,297.7z M315.1,256.8c0.1-1.5,0.1-2.2,0.1-2.9c0-60.9-0.1-121.8-0.2-182.7c0-7.2-3.6-10.6-11.1-10.6
			c-85,0-170.1,0-255.1,0c-7.7,0-11.2,3.6-11.2,11.3c0,60.2,0,120.4,0,180.6c0,1.1,0,2.3,0,4.3c1.6-1.8,2.6-2.9,3.6-4.1
			c28.5-34.3,57.2-68.5,85.4-103c8.5-10.4,20.4-10.6,28.8-0.9c11.8,13.6,24.3,26.6,36.7,39.8c7.5,8,13,8.1,21.2,1.3
			c4.2-3.5,8.2-7.1,12.5-10.4c6.7-5.3,12.6-4.8,18.4,1.4c9.7,10.4,19.3,20.8,29,31.2C287,226.5,300.8,241.3,315.1,256.8z"/>
		<path d="M257.5,152.8c-19.1,0-34.7-15.5-34.8-34.5c0-19,15.5-34.6,34.6-34.7c19.1,0,34.7,15.5,34.8,34.5
			C292.2,137.2,276.6,152.8,257.5,152.8z"/>
	</g>
</g>
</svg>
