<?xml version="1.0" encoding="utf-8"?>
<!-- Generator: Adobe Illustrator 24.0.2, SVG Export Plug-In . SVG Version: 6.00 Build 0)  -->
<svg version="1.1" id="Capa_1" xmlns="http://www.w3.org/2000/svg" xmlns:xlink="http://www.w3.org/1999/xlink" x="0px" y="0px"
	 viewBox="0 0 512 512" style="enable-background:new 0 0 512 512;" xml:space="preserve">
<g id="_x30_pN3rs_1_">
	<g>
		<path d="M230.9,53.5c-1.6-16.4-3.1-31.8-4.7-48.3C323.6,4,405.7,35,461,117c58.4,86.5,60.1,178.5,7.2,267.5
			c-52.8,88.8-134.9,127.3-239.4,122c0.8-16.4,1.5-32.1,2.3-49.3c70,3.4,128.9-18.8,174-72.5c32.6-38.8,48.2-84.1,47.3-134.6
			C450.3,141.5,352.8,43.8,230.9,53.5z"/>
		<path d="M233.3,366.1c-35.4-27-70-53.4-105.3-80.2c9.2-14.2,17.8-27.6,27.4-42.3C178,261,200,278.1,223.3,296
			c38.7-43.7,77-86.9,115.6-130.4c13.3,11.7,26.1,22.8,39.9,34.9C330.4,255.6,282.2,310.4,233.3,366.1z"/>
		<path d="M177.8,444.3c-6.8,15.2-13.1,29.3-19.9,44.5c-12.6-6.5-24.3-12.5-37.5-19.3c9.3-14.4,18.1-28,27.4-42.3
			C158.3,433.1,167.7,438.5,177.8,444.3z"/>
		<path d="M61.1,195.2c-2.3,11.2-4.3,21.1-6.6,32.5c-16.4-2.4-32.3-4.8-50.4-7.5c2.3-13.6,4.5-26,6.8-39.8
			C28.6,185.6,44.4,190.3,61.1,195.2z"/>
		<path d="M64.5,421.8c-8.5-10.9-16.5-21.3-25-32.3c14.7-9.5,28.1-18.3,42.2-27.5c6.6,8.8,13.2,17.5,20.5,27.1
			C89.8,399.8,77.8,410.2,64.5,421.8z"/>
		<path d="M120.4,42.2c13-6.8,24.6-12.9,37.4-19.5c5.9,15.7,11.4,30.5,17.4,46.6c-9,4.9-17.7,9.7-27.4,15
			C138.8,70.4,130.1,57.2,120.4,42.2z"/>
		<path d="M64.5,89.8c13.3,11.6,25.1,21.8,37.7,32.7c-6.5,8.2-12.8,16.1-19.8,24.9c-14.2-8.4-28.1-16.6-42.6-25.1
			C48.2,111.3,55.9,101.1,64.5,89.8z"/>
		<path d="M12,326c-2.9-14.2-5.4-26.1-8.1-39.4c17.5-1.9,32.9-3.6,49.2-5.3c1.9,9.7,3.8,19,5.9,29.8C44,315.8,29,320.6,12,326z"/>
	</g>
</g>
</svg>
