<?xml version="1.0" encoding="utf-8"?>
<!-- Generator: Adobe Illustrator 24.0.2, SVG Export Plug-In . SVG Version: 6.00 Build 0)  -->
<svg version="1.1"
	 id="svg857" inkscape:version="1.0.1 (c497b03c, 2020-09-10)" sodipodi:docname="newspaper.svg" xmlns:cc="http://creativecommons.org/ns#" xmlns:dc="http://purl.org/dc/elements/1.1/" xmlns:inkscape="http://www.inkscape.org/namespaces/inkscape" xmlns:rdf="http://www.w3.org/1999/02/22-rdf-syntax-ns#" xmlns:sodipodi="http://sodipodi.sourceforge.net/DTD/sodipodi-0.dtd" xmlns:svg="http://www.w3.org/2000/svg"
	 xmlns="http://www.w3.org/2000/svg" xmlns:xlink="http://www.w3.org/1999/xlink" x="0px" y="0px" viewBox="0 0 512 512"
	 style="enable-background:new 0 0 512 512;" xml:space="preserve">
<sodipodi:namedview  bordercolor="#666666" borderopacity="1" gridtolerance="10" guidetolerance="10" id="namedview859" inkscape:current-layer="svg857" inkscape:cx="152.5551" inkscape:cy="260.17959" inkscape:pageopacity="0" inkscape:pageshadow="2" inkscape:window-height="1049" inkscape:window-maximized="1" inkscape:window-width="1740" inkscape:window-x="0" inkscape:window-y="23" inkscape:zoom="1.4355469" objecttolerance="10" pagecolor="#ffffff" showgrid="false">
	</sodipodi:namedview>
<title  id="title851">Newspaper</title>
<g id="_x36_w1GsU.tif">
	<g>
		<path d="M5.2,117.8c5.5-8.4,13.2-10.2,23.5-6.9c0,88.8,0,178,0,269.3c6,0,10.7,0,15.5,0c39.5,0,79.1,0.8,118.5-0.2
			c36.8-0.9,69.2,7.1,93.2,38.6c24-31.6,56.4-39.5,93.2-38.6c39.5,1,79,0.2,118.5,0.2c4.4,0,8.9,0,15,0c0-90.7,0-180.1,0-269.6
			c1.2-1.2,2.4-2.4,3.6-3.6c6.8,3.6,13.6,7.2,20.5,10.8c0,92,0,184.1,0,276.1c-6.1,2.8-12.2,8-18.3,8.1
			c-44.8,0.7-89.6,1.5-134.3-0.1c-40.1-1.4-71.4,11.8-92.7,46.1c-3.6,0-7.3,0-10.9,0c-21.7-34.9-53.5-47.6-94.1-46.1
			c-44.3,1.6-88.7,0.7-133,0.1c-6.1-0.1-12.2-5.3-18.3-8.1C5.2,301.9,5.2,209.8,5.2,117.8z"/>
		<path d="M460.5,357.5c-40,0-78.1,0.2-116.2-0.1c-26.9-0.2-53.7-0.8-77.2,21.7c0-7.8,0-12.1,0-16.4c0-85.2,0-170.4,0-255.7
			c0-29.6,13.4-43,43.1-43.1c43.1,0,86.3,0,129.4,0c18.5,0,20.8,2.2,20.8,19.8c0,86.6,0,173.2,0,259.7
			C460.5,347.6,460.5,351.6,460.5,357.5z M375.4,233.5c0-10.3,1.2-20.9-0.5-30.9c-0.9-5.2-7-9.5-10.8-14.3
			c-3.9,4.6-10.9,9-11.2,13.8c-1.3,20.6-0.6,41.3-0.5,62c0,7.5,2.4,13.8,11.2,13.8c9.6,0,11.8-6.8,11.8-14.7
			C375.5,253.3,375.4,243.4,375.4,233.5z M379.7,153.6c-7.5-4.7-12.3-10.2-16.2-9.6c-4,0.6-10.1,7.3-9.9,11c0.2,3.7,6.9,9.7,11,9.9
			C368.5,165,372.7,159.1,379.7,153.6z"/>
		<path d="M244.8,379.1c-19.5-18-40.1-21.7-62-21.6c-43.1,0.2-86.2,0-130.4,0c-0.3-5.2-0.8-9.5-0.8-13.8c0-86.6,0-173.1,0-259.7
			c0-17.8,2.3-20,20.6-20c43.6,0,87.2-0.1,130.8,0c27.9,0,41.9,13.9,41.9,41.5c0.1,86.6,0,173.1,0,259.7
			C244.8,368.7,244.8,372.2,244.8,379.1z M149.6,131.7c-12.7,0-25.6-1.1-38.1,0.5c-5.1,0.6-12.4,6.3-13.5,10.9
			c-2,8.4,5.5,11.3,13.1,11.3c24.5,0.1,49,0.1,73.6,0c7.5,0,14.1-2.3,14-11.1c0-9.5-7-11.6-15-11.6
			C172.3,131.7,161,131.7,149.6,131.7z M148.3,267c-12.3,0-24.7-1.1-36.7,0.5c-5.1,0.7-12.4,6.2-13.6,10.8
			c-2.1,8.4,5.4,11.3,13,11.4c24.5,0.1,49,0.1,73.6,0c7.5,0,14.1-2.3,14.1-11.1c0-9.5-6.9-11.6-15-11.6
			C171.9,267,160.1,267,148.3,267z M147.9,244.8c12.3,0,24.6,1.1,36.7-0.5c5.1-0.7,12.5-6.3,13.6-10.8c2-8.4-5.6-11.2-13.1-11.2
			c-24.5-0.1-49-0.1-73.5,0c-7.5,0-14,2-14,11c0.1,9.6,6.9,11.6,15,11.6C124.3,244.8,136.1,244.8,147.9,244.8z M147.6,199.3
			c12.7,0,25.5,0.9,38-0.5c4.7-0.5,11.7-6,12.6-10.2c1.8-8.2-4.9-11.5-12.9-11.5c-24.9,0-49.9-0.5-74.8,0.5
			c-4.5,0.2-11.5,6-12.5,10.2c-1.9,8.3,4.9,11.5,12.8,11.5C123.1,199.3,135.3,199.3,147.6,199.3z"/>
	</g>
</g>
</svg>
