<?xml version="1.0" encoding="utf-8"?>
<!-- Generator: Adobe Illustrator 24.0.2, SVG Export Plug-In . SVG Version: 6.00 Build 0)  -->
<svg version="1.1" id="Capa_1" xmlns="http://www.w3.org/2000/svg" xmlns:xlink="http://www.w3.org/1999/xlink" x="0px" y="0px"
	 viewBox="0 0 350 350" style="enable-background:new 0 0 350 350;" xml:space="preserve">
<g id="fnkel5.tif">
	<g>
		<path d="M174,251.6c12.9,0,25.6-0.1,38.1,0c9,0.1,16.3,3.7,21.3,11.2c5.5,8.2,6.1,17,1.6,25.8c-4.4,8.7-11.7,13.8-21.5,13.9
			c-26.6,0.2-53.4,0.2-80,0.2c-16.2,0-32.3,0.1-48.6,0c-13.2-0.1-23.4-8.5-25.6-21c-2.7-15.1,8.8-29.5,24.2-29.8
			c11.8-0.2,23.6-0.1,35.3-0.1c1.2,0,2.4,0,3.9,0c17-50.9,34-101.8,51.1-153.1c-2.6,0-4.9,0-7.1,0c-10.4,0-20.8,0.1-31.1,0
			c-13.6-0.1-24.2-9.9-25.6-23.6c-1.2-12.6,7.7-24.3,20.6-26.9c1.9-0.4,4-0.5,5.9-0.5c41.9,0,83.9-0.1,125.8,0
			c15.3,0,26.6,11,26.6,25.6c0.1,13.5-11,25-24.7,25.2c-12.4,0.2-24.7,0.1-37.1,0.1c-0.6,0-1.2,0.1-2,0.1
			C208.1,149.4,191.1,200.4,174,251.6z"/>
	</g>
</g>
</svg>
