<?xml version="1.0" encoding="utf-8"?>
<!-- Generator: Adobe Illustrator 24.0.2, SVG Export Plug-In . SVG Version: 6.00 Build 0)  -->
<svg version="1.1" id="Capa_1" xmlns="http://www.w3.org/2000/svg" xmlns:xlink="http://www.w3.org/1999/xlink" x="0px" y="0px"
	 viewBox="0 0 350 350" style="enable-background:new 0 0 350 350;" xml:space="preserve">
<g id="fnkel5.tif">
	<g>
		<path d="M174,275.6c17,0,33.6-0.1,50.1,0c11.8,0.1,21.4,4.9,28,14.7c7.2,10.8,8,22.3,2.1,33.9c-5.8,11.4-15.4,18.1-28.3,18.2
			c-35,0.3-70.1,0.2-105.1,0.2c-21.3,0-42.5,0.1-63.8,0c-17.4-0.1-30.7-11.2-33.7-27.6c-3.6-19.9,11.5-38.8,31.8-39.2
			c15.5-0.3,31-0.1,46.4-0.1c1.6,0,3.1,0,5.1,0c22.3-66.9,44.7-133.8,67.2-201.2c-3.4,0-6.4,0-9.3,0c-13.6,0-27.3,0.1-40.9,0
			c-17.9-0.1-31.8-13-33.6-31c-1.6-16.5,10.1-31.9,27-35.4c2.5-0.5,5.2-0.6,7.8-0.6c55.1,0,110.2-0.1,165.3,0
			c20.1,0,35,14.5,34.9,33.7C325.1,59,310.6,74,292.6,74.3c-16.3,0.3-32.5,0.1-48.8,0.1c-0.8,0-1.6,0.1-2.6,0.1
			C218.8,141.4,196.5,208.3,174,275.6z"/>
	</g>
</g>
</svg>
