<?xml version="1.0" encoding="utf-8"?>
<!-- Generator: Adobe Illustrator 24.0.2, SVG Export Plug-In . SVG Version: 6.00 Build 0)  -->
<svg version="1.1" id="Capa_1" xmlns="http://www.w3.org/2000/svg" xmlns:xlink="http://www.w3.org/1999/xlink" x="0px" y="0px"
	 viewBox="0 0 350 350" style="enable-background:new 0 0 350 350;" xml:space="preserve">
<g id="piIHoQ_1_">
	<g>
		<path d="M314.1,284.5c0,6,0,11.5,0,17.7c-92.6,0-185,0-278.3,0c0-3,0-6,0-8.9c0-2.8,0-5.6,0-8.8
			C128.8,284.5,221,284.5,314.1,284.5z"/>
		<path d="M314.2,94.1c0,6.1,0,11.6,0,17.7c-92.6,0-184.9,0-277.8,0c0-5.7,0-11.4,0-17.7C128.8,94.1,221,94.1,314.2,94.1z"/>
		<path d="M314.2,189.2c0,5.9,0,11.4,0,17.6c-92.5,0-184.9,0-277.9,0c0-5.7,0-11.4,0-17.6C128.9,189.2,221.4,189.2,314.2,189.2z"/>
	</g>
</g>
<path d="M313.9,47.1c0,6.1,0,11.6,0,17.7c-92.6,0-184.9,0-277.8,0c0-5.7,0-11.4,0-17.7C128.5,47.1,220.7,47.1,313.9,47.1z"/>
<path d="M313.9,139.6c0,5.9,0,11.4,0,17.6c-92.5,0-184.9,0-277.9,0c0-5.7,0-11.4,0-17.6C128.5,139.6,221.1,139.6,313.9,139.6z"/>
<path d="M313.9,239.7c0,6.1,0,11.6,0,17.7c-92.6,0-184.9,0-277.8,0c0-5.7,0-11.4,0-17.7C128.5,239.7,220.7,239.7,313.9,239.7z"/>
</svg>
