<?xml version="1.0" encoding="utf-8"?>
<!-- Generator: Adobe Illustrator 24.0.2, SVG Export Plug-In . SVG Version: 6.00 Build 0)  -->
<svg version="1.1" id="Capa_1" xmlns="http://www.w3.org/2000/svg" xmlns:xlink="http://www.w3.org/1999/xlink" x="0px" y="0px"
	 viewBox="0 0 350 350" style="enable-background:new 0 0 350 350;" xml:space="preserve">
<g id="piIHoQ_1_">
	<g>
		<path d="M340.3,305.2c0,7.1,0,13.7,0,21c-110,0-219.8,0-330.7,0c0-3.6,0-7.1,0-10.6c0-3.3,0-6.6,0-10.4
			C120.1,305.2,229.7,305.2,340.3,305.2z"/>
		<path d="M340.4,79c0,7.2,0,13.8,0,21c-110,0-219.7,0-330,0c0-6.8,0-13.6,0-21C120.1,79,229.7,79,340.4,79z"/>
		<path d="M340.4,191.9c0,7,0,13.6,0,20.9c-109.9,0-219.7,0-330.2,0c0-6.8,0-13.6,0-20.9C120.2,191.9,230.1,191.9,340.4,191.9z"/>
	</g>
</g>
<path d="M340,23.1c0,7.2,0,13.8,0,21c-110,0-219.7,0-330,0c0-6.8,0-13.6,0-21C119.7,23.1,229.3,23.1,340,23.1z"/>
<path d="M340,133c0,7,0,13.6,0,20.9c-109.9,0-219.7,0-330.2,0c0-6.8,0-13.6,0-20.9C119.8,133,229.8,133,340,133z"/>
<path d="M340,251.9c0,7.2,0,13.8,0,21c-110,0-219.7,0-330,0c0-6.8,0-13.6,0-21C119.7,251.9,229.3,251.9,340,251.9z"/>
</svg>
