<?xml version="1.0" encoding="utf-8"?>
<!-- Generator: Adobe Illustrator 24.0.2, SVG Export Plug-In . SVG Version: 6.00 Build 0)  -->
<svg version="1.1" id="Capa_1" xmlns="http://www.w3.org/2000/svg" xmlns:xlink="http://www.w3.org/1999/xlink" x="0px" y="0px"
	 viewBox="0 0 350 350" style="enable-background:new 0 0 350 350;" xml:space="preserve">
<g id="piIHoQ_1_">
	<g>
		<path d="M340.3,305.2c0,7.1,0,13.7,0,21c-110,0-219.8,0-330.7,0c0-3.6,0-7.1,0-10.6c0-3.3,0-6.6,0-10.4
			C120.1,305.2,229.7,305.2,340.3,305.2z"/>
		<path d="M340.4,79c0,7.2,0,13.8,0,21c-110,0-219.7,0-330,0c0-6.8,0-13.6,0-21C120.1,79,229.7,79,340.4,79z"/>
		<path d="M340.4,191.9c0,7,0,13.6,0,20.9c-109.9,0-219.7,0-330.2,0c0-6.8,0-13.6,0-20.9C120.2,191.9,230.1,191.9,340.4,191.9z"/>
		<path d="M246.2,135.3c0,7.3,0,13.9,0,21c-78.7,0-157,0-235.9,0c0-6.9,0-13.7,0-21C88.8,135.3,167.1,135.3,246.2,135.3z"/>
		<path d="M10,269.6c0-7,0-13.6,0-20.8c78.6,0,157,0,236,0c0,6.6,0,13.5,0,20.8C167.7,269.6,89.3,269.6,10,269.6z"/>
		<path d="M174,42.7c-54.8,0-108.9,0-163.7,0c0-7,0-13.8,0-21.3c54.3,0,108.8,0,163.7,0C174,28.5,174,35.5,174,42.7z"/>
	</g>
</g>
</svg>
