<?xml version="1.0" encoding="utf-8"?>
<!-- Generator: Adobe Illustrator 24.0.2, SVG Export Plug-In . SVG Version: 6.00 Build 0)  -->
<svg version="1.1" id="Capa_1" xmlns="http://www.w3.org/2000/svg" xmlns:xlink="http://www.w3.org/1999/xlink" x="0px" y="0px"
	 viewBox="0 0 350 350" style="enable-background:new 0 0 350 350;" xml:space="preserve">
<g id="piIHoQ_1_">
	<g>
		<path d="M313.4,283.8c0,5.9,0,11.5,0,17.6c-92.1,0-184,0-276.8,0c0-3,0-5.9,0-8.9c0-2.8,0-5.5,0-8.7
			C129,283.8,220.8,283.8,313.4,283.8z"/>
		<path d="M313.4,94.5c0,6,0,11.6,0,17.6c-92.1,0-183.9,0-276.2,0c0-5.7,0-11.4,0-17.6C129,94.5,220.8,94.5,313.4,94.5z"/>
		<path d="M313.4,188.9c0,5.9,0,11.4,0,17.5c-92,0-183.9,0-276.4,0c0-5.7,0-11.4,0-17.5C129.1,188.9,221.1,188.9,313.4,188.9z"/>
		<path d="M311.6,141.6c0,6.1,0,11.6,0,17.6c-65.9,0-131.4,0-197.4,0c0-5.8,0-11.5,0-17.6C179.9,141.6,245.4,141.6,311.6,141.6z"/>
		<path d="M112.2,254c0-5.9,0-11.4,0-17.4c65.8,0,131.4,0,197.5,0c0,5.5,0,11.3,0,17.4C244.2,254,178.6,254,112.2,254z"/>
		<path d="M313.1,64.1c-45.9,0-91.1,0-137,0c0-5.9,0-11.6,0-17.8c45.4,0,91.1,0,137,0C313.1,52.2,313.1,58,313.1,64.1z"/>
	</g>
</g>
</svg>
