<?xml version="1.0" encoding="utf-8"?>
<!-- Generator: Adobe Illustrator 24.0.2, SVG Export Plug-In . SVG Version: 6.00 Build 0)  -->
<svg version="1.1" id="Layer_1" xmlns="http://www.w3.org/2000/svg" xmlns:xlink="http://www.w3.org/1999/xlink" x="0px" y="0px"
	 viewBox="0 0 512 512" style="enable-background:new 0 0 512 512;" xml:space="preserve">
<g id="_x31_rarPa_1_">
	<g>
		<path d="M342.6,169.7c0,26.4-0.2,52.8,0.1,79.1c0.4,39.9-26.6,73.2-63.3,83.1c-48.5,13.1-97.4-16.4-107.7-64
			c-1.2-5.6-1.9-11.5-1.9-17.3c-0.1-54-0.3-108.1,0-162.1c0.2-29.6,13.3-53,37.7-69.5c43-29.3,102.4-13.9,126.1,32.4
			c6.3,12.3,9,25.4,9,39.1C342.5,117,342.6,143.3,342.6,169.7z"/>
		<path d="M277.7,406.8c0,19.5,0,38.9,0,58.5c1.1,0,2.1,0,3.1,0c15.3,0,30.7,0,46-0.1c11.3,0,21.1,9,21.7,19.9
			c0.6,11.7-7.7,21.5-19.2,22.7c-2,0.2-4.1-0.2-6.1-0.2c-44.7,0-89.4,0-134.1,0c-4,0-8,0.4-11.8-1.2c-9.7-3.8-15.2-14.1-13.1-24.4
			c2.1-10.1,11.3-17,21.7-16.8c16.1,0.2,32.2,0.1,48.5,0.1c0-19.5,0-38.9,0-58.4c-5.4-1.1-10.8-2-16.2-3.3
			c-30.7-7.4-57.1-22.4-78.9-45.1c-21.5-22.3-35.2-48.8-41.1-79.3c-2.5-12.7-2.8-25.5-2.7-38.4c0.1-7.5-0.3-15.1,0.1-22.6
			c0.5-10.9,4.3-20.1,16.8-23.5c13.4-3.6,26.5,7.3,26.3,21.1c-0.2,15.3-0.5,30.7,0.6,46c1.6,21.8,9.8,41.4,23.4,58.5
			c18.2,23.1,41.9,37.5,70.7,43.3c56,11.2,112-19.3,132.9-72.4c5.1-13,7.5-26.6,7.6-40.6c0-11.8,0-23.6,0.1-35.5
			c0.1-10.1,7.3-18.8,17.1-20.7c9.8-1.9,19.7,3,23.6,12.3c1.3,3.2,2.2,6.8,2.2,10.2c0.1,14,0.3,28.1-0.3,42.1
			c-1.5,31.4-12,59.8-31,84.8c-26.1,34.3-60.8,54.8-103.2,62.2c-0.8,0.1-1.5,0.2-2.3,0.3C279.2,406.5,278.6,406.6,277.7,406.8z"/>
	</g>
</g>
</svg>
