<?xml version="1.0" encoding="utf-8"?>
<!-- Generator: Adobe Illustrator 24.0.2, SVG Export Plug-In . SVG Version: 6.00 Build 0)  -->
<svg version="1.1" id="Layer_1" xmlns="http://www.w3.org/2000/svg" xmlns:xlink="http://www.w3.org/1999/xlink" x="0px" y="0px"
	 viewBox="0 0 512 512" style="enable-background:new 0 0 512 512;" xml:space="preserve">
<g>
	<path d="M340.6,71.2c-1.5-6.8-3.8-13.4-7-19.7C309.8,5.1,250.4-10.3,207.4,19C183.1,35.6,170,59,169.8,88.6
		c-0.3,44.1-0.2,88.3-0.1,132.4L340.6,71.2z"/>
	<path d="M342.5,186L197.7,312.9c21.1,18.9,51.4,27.3,81.6,19.1c36.7-9.9,63.7-43.3,63.3-83.1C342.4,227.9,342.5,207,342.5,186z"/>
</g>
<path d="M431.2,52.3L431.2,52.3c8.2,9.3,7.2,23.5-2.1,31.7L77.8,391.8c-9.3,8.2-23.5,7.2-31.7-2.1l0,0c-8.2-9.3-7.2-23.5,2.1-31.7
	L399.5,50.2C408.8,42,423,42.9,431.2,52.3z"/>
<g>
	<path d="M95.2,240.9c-0.1,12.9,0.3,25.7,2.7,38.4c0.2,1.1,0.5,2.2,0.7,3.3l39.8-34.8c-0.3-10.6-0.1-21.2,0.1-31.8
		c0.2-13.8-12.9-24.7-26.3-21.1c-12.5,3.3-16.4,12.5-16.8,23.5C95,225.8,95.3,233.3,95.2,240.9z"/>
	<path d="M414.5,206.8c-3.9-9.2-13.7-14.2-23.6-12.3c-9.8,1.9-17,10.6-17.1,20.7c-0.1,11.8,0,23.6-0.1,35.5
		c-0.1,14-2.5,27.6-7.6,40.6c-20.9,53.1-77,83.6-132.9,72.4c-23.1-4.6-42.9-14.8-59.2-30.6l-32.1,28.1
		c21.3,21.2,46.8,35.3,76.2,42.4c5.4,1.3,10.8,2.2,16.2,3.3c0,19.5,0,38.9,0,58.4c-16.3,0-32.4,0.2-48.5-0.1
		c-10.3-0.1-19.5,6.7-21.7,16.8c-2.1,10.2,3.4,20.5,13.1,24.4c3.9,1.5,7.8,1.2,11.8,1.2c44.7-0.1,89.4-0.1,134.1,0
		c2,0,4.1,0.5,6.1,0.2c11.6-1.2,19.8-11,19.2-22.7c-0.5-10.9-10.3-19.9-21.7-19.9c-15.3,0-30.7,0-46,0.1c-1,0-2,0-3.1,0
		c0-19.6,0-39,0-58.5c0.8-0.2,1.5-0.3,2.2-0.4c0.8-0.1,1.5-0.2,2.3-0.3c42.5-7.4,77.1-27.8,103.2-62.2c19-25,29.5-53.4,31-84.8
		c0.7-14,0.5-28.1,0.3-42.1C416.6,213.5,415.8,209.9,414.5,206.8z"/>
</g>
</svg>
