<?xml version="1.0" encoding="utf-8"?>
<!-- Generator: Adobe Illustrator 24.0.2, SVG Export Plug-In . SVG Version: 6.00 Build 0)  -->
<svg version="1.1" id="Capa_1" xmlns="http://www.w3.org/2000/svg" xmlns:xlink="http://www.w3.org/1999/xlink" x="0px" y="0px"
	 viewBox="0 0 490.7 490.7" style="enable-background:new 0 0 490.7 490.7;" xml:space="preserve">
<g id="gxnXAV.tif">
	<g>
		<path d="M467.9,245.4c0.8,121.7-98.7,221.5-221.6,222.3C124.2,468.6,24,369.4,23.3,247C22.5,123.8,121.1,23.7,244,23
			C367.7,22.3,467.1,121,467.9,245.4z M245.6,60C144.3,59.9,60.4,142.7,60.3,242.8c-0.1,104.4,81.9,187.7,184.9,187.8
			c102.2,0.1,185.6-82.8,185.6-184.6C430.8,143,348.2,60.1,245.6,60z"/>
		<path d="M320,208.2c-20.7,0.1-37.1-16-37.3-36.8c-0.2-20.6,16.1-37.2,36.7-37.4c20.7-0.1,37.3,16.4,37.3,37.3
			C356.7,191.6,340.3,208.1,320,208.2z"/>
		<path d="M171.5,208.2c-20.5,0.1-37-16.3-37.2-37c-0.2-20.4,16.6-37.2,37-37.2c20.5,0,36.9,16.3,37.1,37
			C208.7,191.5,192.1,208.1,171.5,208.2z"/>
	</g>
</g>
<path d="M338.1,344.8H144.8c-7.8,0-14-6.3-14-14v-9.1c0-7.8,6.3-14,14-14h193.3c7.8,0,14,6.3,14,14v9.1
	C352.1,338.5,345.8,344.8,338.1,344.8z"/>
</svg>
