<?xml version="1.0" encoding="utf-8"?>
<!-- Generator: Adobe Illustrator 24.0.2, SVG Export Plug-In . SVG Version: 6.00 Build 0)  -->
<svg version="1.1" id="Layer_1" xmlns="http://www.w3.org/2000/svg" xmlns:xlink="http://www.w3.org/1999/xlink" x="0px" y="0px"
	 viewBox="0 0 512 512" style="enable-background:new 0 0 512 512;" xml:space="preserve">
<style type="text/css">
	.st0{stroke:#000000;stroke-miterlimit:10;}
</style>
<g id="DDdWN5.tif">
	<g>
		<path d="M80,0c0.7,0.4,1.3,0.9,2,1.3c6.8,3.5,10.2,10.2,8.7,16.8C89,25.3,83.2,29.9,75.5,30c-13.1,0.1-26.3,0-39.4,0
			c-1.8,0-3.6,0-6.1,0c0,5.2,0,10.1,0,15c0,9.5,0,19,0,28.4s-4.1,15.4-11.9,17.2c-7.1,1.7-13.2-1.9-17.4-10C0.6,80.3,0.2,80.2,0,80
			c0-23,0-46,0-69C2.4,6.1,6,2.4,11,0C34,0,57,0,80,0z"/>
		<path d="M512,80c-0.4,0.5-0.8,1-1.1,1.5c-3.6,7.2-10.2,10.7-17,9.2C486.6,89,482.1,83.1,482,75c-0.1-13.5,0-26.9,0-40.4
			c0-1.3,0-2.6,0-4.6c-2.9,0-5.5,0-8.1,0c-11.8,0-23.6,0-35.4,0c-9.4,0-15.4-4.2-17.2-11.9c-1.6-7.1,1.9-13.2,10.1-17.3
			c0.3-0.1,0.4-0.5,0.6-0.7c23,0,46,0,69,0c5,2.4,8.6,6.1,11,11C512,34,512,57,512,80z"/>
		<path d="M0,432c0.4-0.5,0.8-1,1.1-1.5c3.6-7.2,10.2-10.7,17-9.1c7.3,1.7,11.9,7.6,11.9,15.7c0.1,13.5,0,26.9,0,40.4
			c0,1.3,0,2.6,0,4.6c5.2,0,10.1,0,15.1,0c9.8,0,19.6,0,29.4,0c8.6,0,14.4,4.4,16.2,11.9c1.6,6.9-2,13.3-9.6,17.1
			c-0.4,0.2-0.7,0.6-1,0.9c-23,0-46,0-69,0c-4.9-2.4-8.6-6.1-11-11C0,478,0,455,0,432z"/>
		<path d="M432,512c-0.9-0.6-1.9-1.2-2.8-1.8c-6.1-3.4-9.3-10-7.8-16.3c1.6-7,7.4-11.8,14.7-11.9c13.3-0.1,26.6,0,39.9,0
			c1.8,0,3.6,0,6.1,0c0-5.2,0-10.1,0-15.1c0-9.5,0-19,0-28.4s4.2-15.4,11.9-17.2c7.1-1.6,13.2,1.9,17.3,10.1
			c0.1,0.3,0.5,0.4,0.7,0.6c0,23,0,46,0,69c-2.4,4.9-6.1,8.6-11,11C478,512,455,512,432,512z"/>
		<path d="M255.8,241c8.1-0.1,15,6.5,15.2,14.6c0.2,8.3-6.7,15.4-15,15.4c-8.1,0-14.9-6.8-15-14.9S247.7,241.1,255.8,241z"/>
	</g>
</g>
<g>
	<path d="M464.7,196.2c-12.1-12.2-24.7-23.8-37.8-34.5l-68.3,72c1.6,7.2,2.4,14.6,2.4,22.3c-0.1,58-47.5,105.1-105.5,104.9
		c-5.5,0-10.9-0.5-16.1-1.3l-48.2,50.8c22,7.1,44.8,10.9,68.8,10.5c38.7-0.8,74.3-12.5,107.9-30.9c56-30.7,101.3-73.7,140.2-123.8
		c1.5-1.9,2.6-4.1,3.9-6.2c0-2.7,0-5.3,0-8C498.6,231.4,481.9,213.6,464.7,196.2z"/>
	<path d="M171.5,318.1C158.6,300.6,151,279,151,255.6c0.1-57.7,47.4-104.7,105.2-104.6c21.1,0,40.8,6.4,57.3,17.2l47.3-49.9
		c-1.6-0.8-3.3-1.7-4.9-2.5c-32.8-16-67.1-25.4-103.9-24.7c-33.5,0.7-65,9.8-95,24.3c-47.4,23-87.2,56.1-122.8,94.5
		c-7.8,8.4-15.2,17.2-22.5,26.1c-4.2,5-7.8,10.6-11.7,16c0,2.7,0,5.3,0,8c11.2,13.8,21.7,28.2,33.6,41.3
		c25.4,27.9,53.2,52.7,84.5,73.2L171.5,318.1z"/>
</g>
<g>
	<path d="M214.9,274.3c-2.6-5.7-4-12.1-3.9-18.8c0.2-24.6,20.5-44.6,45.2-44.5c5.6,0,10.9,1.1,15.9,3l21.6-22.8
		c-11.1-6.5-24-10.2-37.7-10.2c-41.3,0-74.9,33.7-74.9,75.1c0,15.1,4.5,29.2,12.3,41L214.9,274.3z"/>
	<path d="M269.6,329.7c31.8-5.9,56.6-31.8,60.8-64.2L269.6,329.7z"/>
</g>
<path class="st0" d="M85.4,444.8L85.4,444.8c-11-10.5-11.4-27.9-1-38.9L387.8,87.3c10.5-11,27.9-11.4,38.9-1l0,0
	c11,10.5,11.4,27.9,1,38.9L124.2,443.9C113.8,454.9,96.4,455.3,85.4,444.8z"/>
</svg>
