<?xml version="1.0" encoding="utf-8"?>
<!-- Generator: Adobe Illustrator 24.0.2, SVG Export Plug-In . SVG Version: 6.00 Build 0)  -->
<svg version="1.1" id="Capa_1" xmlns="http://www.w3.org/2000/svg" xmlns:xlink="http://www.w3.org/1999/xlink" x="0px" y="0px"
	 viewBox="0 0 350 350" style="enable-background:new 0 0 350 350;" xml:space="preserve">
<g id="_x34_Kdzqo.tif">
	<g>
		<path d="M345,199.2c-1.5,5.1-3.3,10.4-8.4,12.9c-3.3,1.7-7.3,3-10.9,3c-68.7,0.2-137.5,0.2-206.2,0.1c-11.6,0-18.9-7.5-19-19.2
			c-0.1-15.6-0.1-31.2,0-46.8c0.1-11.6,7.6-19,19.1-19c68.6,0,137.3,0,205.9,0c9.9,0,16.4,5.1,18.9,14.7c0.2,0.7,0.4,1.3,0.6,2
			C345,164.4,345,181.8,345,199.2z"/>
		<path d="M345,84.6c-0.8,2.2-1.4,4.6-2.6,6.7c-3.1,5.7-8,8.8-14.6,9.3c-1.2,0.1-2.4,0.1-3.6,0.1c-67.8,0-135.6,0-203.3,0.1
			c-8.2,0-14.8-2.6-18.5-10.2c-1.3-2.6-1.9-5.8-1.9-8.7c-0.2-15.7-0.2-31.4-0.1-47.1c0.1-11.6,7.6-19,19.2-19
			c68.6,0,137.3,0,205.9,0c9.9,0,16.4,5.2,18.8,14.7c0.2,0.7,0.4,1.3,0.6,2C345,49.8,345,67.2,345,84.6z"/>
		<path d="M345,318.2c-0.9,2.5-1.4,5.1-2.7,7.4c-3.1,5.7-8.1,8.7-14.6,9.2c-1,0.1-1.9,0.1-2.9,0.1c-68.1,0-136.3,0-204.4,0
			c-10.1,0-17-4.8-19.3-13.6c-0.5-2-0.6-4.1-0.6-6.1c0-15.1-0.1-30.2,0-45.3c0-12.8,7.2-19.9,20.1-19.9c68,0,136,0,204.1,0
			c11.2,0,16,3.8,20.4,16.1C345,283.4,345,300.8,345,318.2z"/>
		<path d="M35.2,195.6c7.2,0,14.4,0.2,21.6-0.1c3.6-0.1,4.7,1.2,4.5,4.6c-0.2,3-0.1,6,0,9.1c0,2.3-0.9,3.3-3.2,3.3
			c-15.9,0-31.9,0-47.8,0c-2.9,0-3.5-1.3-3-3.9c1.6-8.9,6.1-16.2,12.4-22.5c6.5-6.6,13.2-13.1,19.6-19.9c2.9-3.1,4.5-6.9,3.6-11.3
			c-0.8-4.1-3-5.9-7.3-6.1c-4.2-0.1-7.2,1.9-8.1,5.7c-0.2,0.7-0.3,1.4-0.3,2.1c-0.3,3-1.7,4.2-4.8,3.6c-3.3-0.6-6.7-0.8-10.1-1
			c-2.5-0.2-3.6-1-3.2-3.9c2.3-18.6,17.6-24.2,32.3-21.7c18.7,3.1,26.2,22.1,14.8,38.3c-4.9,7-11.7,12.8-17.6,19.1
			c-1.1,1.2-2.4,2.3-3.6,3.5C34.9,195,35.1,195.3,35.2,195.6z"/>
		<path d="M49.1,288.4c9.7,5.2,12.9,12.9,11.5,22.5c-1.5,9.8-7.4,16.4-16.5,19.9c-16.4,6.3-33.8-3.1-36.4-19.1
			c-0.4-2.6,0.2-3.9,2.9-4.2c3.7-0.4,7.4-0.8,11.1-1.3c2.7-0.4,3.1,1.4,3.7,3.4c1.4,5.1,4.4,7.6,8.9,7.3c1.2-0.1,2.4-0.4,3.4-0.9
			c4.2-2.2,6.1-9.1,4-14.5c-1.5-3.9-5.6-5.8-10.5-4.9c-5.5,1-5.7,0.8-4.9-4.6c0.1-0.8,0.2-1.7,0.3-2.5c0.7-6.5,0.7-6.5,6.9-8
			c3.8-0.9,6.2-4.1,5.9-8c-0.2-3.4-2.4-5.6-5.7-5.9c-3.5-0.3-6.9,1.9-7.7,5.7c-0.7,3.8-2.4,4.7-6,3.7c-3-0.8-6.2-0.9-9.2-1.8
			c-0.9-0.3-2.2-2.1-2-2.9c2.5-10.7,6.7-17.1,18.9-19.7c11.3-2.4,22,2,27.1,10.7c4.6,7.9,3.4,16.8-3.3,23.1
			C50.8,287.1,50.2,287.5,49.1,288.4z"/>
		<path d="M34.3,46.5c-5.1,2.5-9.8,4.9-14.6,7.2c-2.7,1.3-4.2,0.5-4-2.7c0-0.2,0-0.5,0-0.7c-0.9-7.3-0.1-13.2,8.4-16.4
			c5.9-2.2,10.3-7.1,12.8-13.2c0-0.1,0.1-0.2,0.2-0.3c1.2-1.9,13.6-2.7,14.9-0.8c0.5,0.8,0.6,2.1,0.6,3.1c0,23.8,0,47.6,0.1,71.4
			c0,2.7-0.9,4-3.8,3.9c-3.5-0.2-7-0.2-10.5,0c-3.1,0.2-3.9-1.2-3.9-4.1c0.1-14.9,0.1-29.7,0-44.6C34.5,48.3,34.4,47.4,34.3,46.5z"
			/>
	</g>
</g>
</svg>
