<?xml version="1.0" encoding="utf-8"?>
<!-- Generator: Adobe Illustrator 24.0.2, SVG Export Plug-In . SVG Version: 6.00 Build 0)  -->
<svg version="1.1" id="Capa_1" xmlns="http://www.w3.org/2000/svg" xmlns:xlink="http://www.w3.org/1999/xlink" x="0px" y="0px"
	 viewBox="0 0 350 350" style="enable-background:new 0 0 350 350;" xml:space="preserve">
<g id="_x34_Kdzqo.tif">
	<g>
		<path d="M311.1,194.4c-1.2,4.1-2.6,8.3-6.7,10.3c-2.6,1.4-5.8,2.4-8.7,2.4c-54.9,0.2-109.9,0.2-164.9,0.1c-9.3,0-15.1-6-15.2-15.4
			c-0.1-12.5-0.1-24.9,0-37.4c0.1-9.3,6.1-15.2,15.3-15.2c54.8,0,109.8,0,164.6,0c7.9,0,13.1,4.1,15.1,11.8c0.2,0.6,0.3,1,0.5,1.6
			C311.1,166.6,311.1,180.5,311.1,194.4z"/>
		<path d="M311.1,102.8c-0.6,1.8-1.1,3.7-2.1,5.4c-2.5,4.6-6.4,7-11.7,7.4c-1,0.1-1.9,0.1-2.9,0.1c-54.2,0-108.4,0-162.5,0.1
			c-6.6,0-11.8-2.1-14.8-8.2c-1-2.1-1.5-4.6-1.5-7c-0.2-12.6-0.2-25.1-0.1-37.7c0.1-9.3,6.1-15.2,15.4-15.2c54.8,0,109.8,0,164.6,0
			c7.9,0,13.1,4.2,15,11.8c0.2,0.6,0.3,1,0.5,1.6C311.1,75,311.1,88.9,311.1,102.8z"/>
		<path d="M311.1,289.6c-0.7,2-1.1,4.1-2.2,5.9c-2.5,4.6-6.5,7-11.7,7.4c-0.8,0.1-1.5,0.1-2.3,0.1c-54.4,0-109,0-163.4,0
			c-8.1,0-13.6-3.8-15.4-10.9c-0.4-1.6-0.5-3.3-0.5-4.9c0-12.1-0.1-24.1,0-36.2c0-10.2,5.8-15.9,16.1-15.9c54.4,0,108.7,0,163.2,0
			c9,0,12.8,3,16.3,12.9C311.1,261.7,311.1,275.6,311.1,289.6z"/>
		<path d="M63.5,191.5c5.8,0,11.5,0.2,17.3-0.1c2.9-0.1,3.8,1,3.6,3.7c-0.2,2.4-0.1,4.8,0,7.3c0,1.8-0.7,2.6-2.6,2.6
			c-12.7,0-25.5,0-38.2,0c-2.3,0-2.8-1-2.4-3.1c1.3-7.1,4.9-13,9.9-18c5.2-5.3,10.6-10.5,15.7-15.9c2.3-2.5,3.6-5.5,2.9-9
			c-0.6-3.3-2.4-4.7-5.8-4.9c-3.4-0.1-5.8,1.5-6.5,4.6c-0.2,0.6-0.2,1.1-0.2,1.7c-0.2,2.4-1.4,3.4-3.8,2.9c-2.6-0.5-5.4-0.6-8.1-0.8
			c-2-0.2-2.9-0.8-2.6-3.1c1.8-14.9,14.1-19.3,25.8-17.3c15,2.5,20.9,17.7,11.8,30.6c-3.9,5.6-9.4,10.2-14.1,15.3
			c-0.9,1-1.9,1.8-2.9,2.8C63.2,191.1,63.4,191.3,63.5,191.5z"/>
		<path d="M74.6,265.7c7.8,4.2,10.3,10.3,9.2,18c-1.2,7.8-5.9,13.1-13.2,15.9c-13.1,5-27-2.5-29.1-15.3c-0.3-2.1,0.2-3.1,2.3-3.4
			c3-0.3,5.9-0.6,8.9-1c2.2-0.3,2.5,1.1,3,2.7c1.1,4.1,3.5,6.1,7.1,5.8c1-0.1,1.9-0.3,2.7-0.7c3.4-1.8,4.9-7.3,3.2-11.6
			c-1.2-3.1-4.5-4.6-8.4-3.9c-4.4,0.8-4.6,0.6-3.9-3.7c0.1-0.6,0.2-1.4,0.2-2c0.6-5.2,0.6-5.2,5.5-6.4c3-0.7,5-3.3,4.7-6.4
			c-0.2-2.7-1.9-4.5-4.6-4.7c-2.8-0.2-5.5,1.5-6.2,4.6c-0.6,3-1.9,3.8-4.8,3c-2.4-0.6-5-0.7-7.4-1.4c-0.7-0.2-1.8-1.7-1.6-2.3
			c2-8.6,5.4-13.7,15.1-15.8c9-1.9,17.6,1.6,21.7,8.6c3.7,6.3,2.7,13.4-2.6,18.5C75.9,264.7,75.4,265,74.6,265.7z"/>
		<path d="M62.7,72.3c-4.1,2-7.8,3.9-11.7,5.8c-2.2,1-3.4,0.4-3.2-2.2c0-0.2,0-0.4,0-0.6c-0.7-5.8-0.1-10.6,6.7-13.1
			c4.7-1.8,8.2-5.7,10.2-10.6c0-0.1,0.1-0.2,0.2-0.2c1-1.5,10.9-2.2,11.9-0.6c0.4,0.6,0.5,1.7,0.5,2.5c0,19,0,38.1,0.1,57.1
			c0,2.2-0.7,3.2-3,3.1c-2.8-0.2-5.6-0.2-8.4,0c-2.5,0.2-3.1-1-3.1-3.3c0.1-11.9,0.1-23.7,0-35.7C62.9,73.8,62.8,73.1,62.7,72.3z"/>
	</g>
</g>
</svg>
