<?xml version="1.0" encoding="utf-8"?>
<!-- Generator: Adobe Illustrator 24.0.2, SVG Export Plug-In . SVG Version: 6.00 Build 0)  -->
<svg version="1.1"
	 id="svg857" inkscape:version="1.0.1 (c497b03c, 2020-09-10)" sodipodi:docname="newspaper.svg" xmlns:cc="http://creativecommons.org/ns#" xmlns:dc="http://purl.org/dc/elements/1.1/" xmlns:inkscape="http://www.inkscape.org/namespaces/inkscape" xmlns:rdf="http://www.w3.org/1999/02/22-rdf-syntax-ns#" xmlns:sodipodi="http://sodipodi.sourceforge.net/DTD/sodipodi-0.dtd" xmlns:svg="http://www.w3.org/2000/svg"
	 xmlns="http://www.w3.org/2000/svg" xmlns:xlink="http://www.w3.org/1999/xlink" x="0px" y="0px" viewBox="0 0 512 512"
	 style="enable-background:new 0 0 512 512;" xml:space="preserve">
<sodipodi:namedview  bordercolor="#666666" borderopacity="1" gridtolerance="10" guidetolerance="10" id="namedview859" inkscape:current-layer="svg857" inkscape:cx="152.5551" inkscape:cy="260.17959" inkscape:pageopacity="0" inkscape:pageshadow="2" inkscape:window-height="1049" inkscape:window-maximized="1" inkscape:window-width="1740" inkscape:window-x="0" inkscape:window-y="23" inkscape:zoom="1.4355469" objecttolerance="10" pagecolor="#ffffff" showgrid="false">
	</sodipodi:namedview>
<title  id="title851">Newspaper</title>
<g id="WUqAjY.tif">
	<g>
		<path d="M498.2,314.6c-6.3,2.5-12.6,7.3-19,7.3c-148.8,0.4-297.6,0.4-446.4,0c-6.3,0-12.6-4.8-19-7.3c0-39.1,0-78.2,0-117.3
			c6.3-2.5,12.6-7.3,18.9-7.3c148.8-0.4,297.6-0.4,446.4,0c6.3,0,12.6,4.8,19,7.3C498.2,236.5,498.2,275.5,498.2,314.6z M147,295.9
			c109,0,217.1,0,324.9,0c0-27.3,0-53.8,0-80.1c-108.8,0-216.5,0-324.9,0C147,242.6,147,268.8,147,295.9z M71.9,259.6
			c-4.3-4.9-6.8-9.4-10.7-11.5c-3-1.7-8.4-1.9-11.4-0.4c-2.3,1.2-4.6,7.9-3.5,9.3c7,8.8,14.6,17.2,22.9,24.7
			c1.5,1.4,8.3-0.8,10.8-3.3c10.3-10,20.5-20.2,29.5-31.4c2.7-3.4,1.3-10.2,1.8-15.4c-5.2,0.9-11.7,0.1-15.2,3
			C87.7,241.5,80.8,250.1,71.9,259.6z"/>
		<path d="M365.6,21.5c3.1,6.4,8.7,12.8,8.9,19.3c0.9,31.8,0.5,63.6,0.4,95.4c-0.1,14.5-3.8,18.1-18,18.2
			c-108.5,0.1-217.1,0.2-325.6-0.3c-5.8,0-11.6-5-17.4-7.6c0-41.5,0-83,0-124.9C131.1,21.5,248.4,21.5,365.6,21.5z M146.9,47.9
			c0,27.1,0,53.5,0,80c67.7,0,134.5,0,201.3,0c0-27.3,0-53.7,0-80C280.5,47.9,214,47.9,146.9,47.9z"/>
		<path d="M13.8,365.6c5.8-2.7,11.6-7.6,17.4-7.6c82.6-0.5,165.3-0.4,247.9-0.3c14.8,0,17.9,3.1,18,17.9c0.1,31.8-0.3,63.6,0.2,95.3
			c0.1,9.1-2.7,15.4-10.7,19.6c-90.6,0-181.3,0-272.8,0C13.8,448.9,13.8,407.3,13.8,365.6z M146.8,383.6c0,27.5,0,53.6,0,80.4
			c41.6,0,82.6,0,123.9,0c0-27.2,0-53.6,0-80.4C229.1,383.6,188.5,383.6,146.8,383.6z"/>
	</g>
</g>
</svg>
