<?xml version="1.0" encoding="utf-8"?>
<!-- Generator: Adobe Illustrator 24.0.2, SVG Export Plug-In . SVG Version: 6.00 Build 0)  -->
<svg version="1.1"
	 id="svg857" inkscape:version="1.0.1 (c497b03c, 2020-09-10)" sodipodi:docname="newspaper.svg" xmlns:cc="http://creativecommons.org/ns#" xmlns:dc="http://purl.org/dc/elements/1.1/" xmlns:inkscape="http://www.inkscape.org/namespaces/inkscape" xmlns:rdf="http://www.w3.org/1999/02/22-rdf-syntax-ns#" xmlns:sodipodi="http://sodipodi.sourceforge.net/DTD/sodipodi-0.dtd" xmlns:svg="http://www.w3.org/2000/svg"
	 xmlns="http://www.w3.org/2000/svg" xmlns:xlink="http://www.w3.org/1999/xlink" x="0px" y="0px" viewBox="0 0 512 512"
	 style="enable-background:new 0 0 512 512;" xml:space="preserve">
<sodipodi:namedview  bordercolor="#666666" borderopacity="1" gridtolerance="10" guidetolerance="10" id="namedview859" inkscape:current-layer="svg857" inkscape:cx="152.5551" inkscape:cy="260.17959" inkscape:pageopacity="0" inkscape:pageshadow="2" inkscape:window-height="1049" inkscape:window-maximized="1" inkscape:window-width="1740" inkscape:window-x="0" inkscape:window-y="23" inkscape:zoom="1.4355469" objecttolerance="10" pagecolor="#ffffff" showgrid="false">
	</sodipodi:namedview>
<title  id="title851">Newspaper</title>
<g id="oqJekp_1_">
	<g>
		<path d="M296.5,213.9c-0.4,8.7-5.1,17-14.8,21.9c-9.7,4.9-19.1,3.8-28.2-2.2c-3.2-2.1-6.7-3.7-10.2-5.3c-1.1-0.5-2.5-0.4-3.8-0.4
			c-3.8,0.2-4.7,1-5.5,4.7c-2.2,10.1-4.3,20.1-6.5,30.1c-1.9,8.7-9,13.3-17.7,11.4c-10.2-2.2-20.5-4.4-30.6-6.8
			c-2-0.5-3.1,0.1-4.3,1.5c-2.6,3.2-3.3,6.9-3.1,10.9c0.1,2,0.4,4,0.8,6c2.5,12.3-3.2,24.5-14.2,30.1c-10.7,5.5-24,3-32.1-5.8
			c-8.4-9.2-9.4-22.9-2.7-33.4c1.8-2.9,3.9-5.7,5-8.8c0.9-2.8,0.8-6.1,0.8-9.1c0-1.6-1.1-2.4-2.8-2.8c-10-2.1-19.9-4.3-29.9-6.5
			c-10-2.2-14.4-9.1-12.2-19.1c2.1-10,4.2-19.9,6.5-29.9c0.5-2.2-0.1-3.5-1.8-4.7c-4.6-3.4-9.8-3.2-15-2.1
			c-10.6,2.2-19.7-0.2-27.1-8.2c-9.4-10.2-9.4-26.1-0.1-36.5c9.2-10.3,24.7-11.9,36.1-4c3,2.1,6.5,3.7,9.9,5.3
			c1.3,0.6,2.9,0.6,4.3,0.5c3.8-0.2,4.7-1.2,5.5-4.8c2.2-10,4.3-20.1,6.5-30.1c2-8.7,9-13.2,17.8-11.3c10.1,2.2,20.3,4.4,30.4,6.7
			c2.2,0.5,3.5-0.1,4.6-1.8c3.3-4.6,3.1-9.7,2.2-14.8c-0.8-4.8-1.2-9.5,0.1-14.2c3.1-11.2,10.3-18.1,21.7-20
			c11.3-1.9,20.6,2.2,26.8,11.8c6.4,9.9,5.9,20.1-0.1,30.2c-2.2,3.8-4.1,7.7-5.9,11.7c-0.5,1.1-0.4,2.5-0.3,3.8
			c0.3,3.7,1,4.4,4.7,5.2c9.6,2.1,19.2,4.2,28.8,6.3c9.7,2.1,14.3,8.9,12.2,18.6c-2.1,10-4.1,20-6.5,29.9c-0.7,2.8,0.3,4.4,2.4,5.7
			c4.4,2.9,9.2,2.3,14.1,1.7c4-0.5,8.1-1,12-0.3C287.5,187.1,296.6,198.4,296.5,213.9z"/>
		<path d="M332.5,229.5c17.4,1,31.6-10.9,33.7-28.3c1.9-16-9.5-31.2-25.8-34.2c-10-1.8-18.8,1-26.5,7.7c-2.6,2.3-5.7,4.4-8.8,6
			c-2.8,1.4-3.5,0.8-4.6-2.2c-3.1-8.9-6.2-17.8-9.3-26.8c-3.2-9.1,0.3-16.5,9.3-19.8c9.7-3.5,19.3-7,29-10.4
			c1.9-0.7,3.1-1.8,2.9-3.7c-0.3-2.7-0.5-5.6-1.6-7.9c-1.4-2.8-3.5-5.4-5.6-7.7c-8-9-9.6-21.7-3.9-32c5.6-10.1,17.2-15.6,28.4-13.5
			c11.6,2.2,20.1,11.2,21.8,23.3c0.4,2.5,0.1,5.1,0,7.7c-0.1,5,0.3,9.9,3.8,14c1.6,1.9,3.1,2.5,5.7,1.5c9.4-3.6,18.9-7,28.4-10.4
			c9-3.3,16.5,0.3,19.7,9.4c3.5,9.8,7,19.5,10.3,29.3c0.7,2,1.8,3.2,3.7,3c2.7-0.3,5.6-0.5,7.9-1.7c2.7-1.3,5.2-3.5,7.5-5.5
			c9.2-8.3,21.8-9.8,32.1-3.8c10.4,6.1,15.6,18.4,12.7,30.1c-2.8,11.7-12.8,20-24.9,20.7c-3.7,0.2-7.5-0.1-11.3,0.2
			c-2,0.2-4.1,0.9-6,1.9c-4.2,2.2-4.7,3.9-3.2,8.3c3.3,9.3,6.6,18.5,9.8,27.8c3.2,9-0.4,16.5-9.4,19.8c-9.6,3.5-19.1,7-28.7,10.3
			c-2.4,0.8-3.5,2.2-3.2,4.4c0.4,2.8,0.9,5.7,2.1,8.1c1.4,2.7,3.6,5.1,5.6,7.4c7.7,9,9.1,21.4,3.4,31.6
			c-5.6,9.9-16.7,15.5-27.6,13.6c-11.6-2-20.4-10.6-22.4-22.4c-0.5-3-0.3-6.2-0.3-9.3c0-4.3-0.3-8.5-2.7-12.2
			c-2.3-3.5-3.3-3.8-7.2-2.4c-9.2,3.3-18.5,6.7-27.7,10c-9.1,3.3-16.7-0.3-19.9-9.5c-3.2-9.2-6.4-18.4-9.7-27.5
			c-0.7-1.8-0.3-3,1.4-3.4c3.6-0.9,7.3-1.4,10.9-2.1C332.4,229,332.4,229.3,332.5,229.5z"/>
		<path d="M264.4,362.2c-0.4,9-4.9,17.3-14.4,22.3c-9.6,5-19.1,4.1-28.2-1.8c-3.4-2.2-7.2-3.8-11-5.5c-1.1-0.5-2.5-0.4-3.8-0.3
			c-2.8,0.2-4.5,1.2-5.1,4.5c-1.9,10-4.2,19.9-6.4,29.9c-1.9,9-9,13.6-18,11.6c-19.4-4.2-38.7-8.5-58.1-12.8
			C100.9,406,82.5,402,64,397.9c-9.1-2-13.6-9.2-11.7-18.3c2.2-10.2,4.3-20.5,6.7-30.7c0.5-2-0.1-3.1-1.5-4.2
			c-3.1-2.5-6.6-3.1-10.4-2.9c-2.5,0.1-4.9,0.6-7.4,0.9c-11,1.5-20.1-1.9-26.5-10.9c-6.4-9.1-7.2-19-1.9-28.9
			c5.3-9.7,13.8-14.5,24.9-14.2c5.4,0.1,10.3,2.1,14.9,5.2c3.2,2.1,6.9,3.7,10.5,5.3c1.3,0.5,2.9,0.4,4.3,0.3
			c2.5-0.3,4.2-1.2,4.8-4.3c1.9-10,4.2-19.9,6.3-29.9c2-9.3,9-14,18.3-11.9c9.3,2,18.6,4.2,28,6.2c2.5,0.5,3.2,1.9,2.4,3.8
			c-1.4,3.4-2.8,7-4.9,10c-7.2,10.7-7.7,24.3-0.8,35.1c8.1,12.8,23.9,18.1,37.8,12.5c14-5.5,22-20.5,19.4-35.2
			c-0.7-3.7-0.5-7.6-0.3-11.4c0.1-1.9,1.3-2.9,3.6-2.3c9.4,2.2,18.8,4.1,28.2,6.2c8.7,1.9,13.4,9.1,11.6,17.9
			c-2.1,10.2-4.3,20.5-6.7,30.7c-0.6,2.4,0.2,3.8,2,5.1c4.6,3.3,9.7,3.1,14.8,2.1c4.8-0.9,9.4-1.3,14.2,0.1
			C256.5,337.4,264.5,348.1,264.4,362.2z"/>
		<path d="M290.7,355.5c22.8,0,37.4-18.2,33.7-38c-0.7-3.5-0.4-7.3-0.1-10.9c0.1-1.8,1.2-2.7,3.5-2.1c9.7,2.2,19.4,4.2,29,6.4
			c8,1.8,12.7,9.2,11,17.3c-2.1,10.2-4.3,20.5-6.7,30.7c-0.7,3.1,0.4,4.7,2.7,6.1c4,2.4,8.4,2.5,12.8,1.6c6.8-1.5,13.5-1.4,19.9,1.7
			c14.3,6.9,19.7,24.6,11.8,38.2c-8,13.8-26.1,17.7-39.2,8.6c-2.2-1.5-4.4-3-6.8-4.2c-1.6-0.8-3.4-1.3-5.2-1.5
			c-5.2-0.6-6.9,0.6-8,5.7c-2.1,9.7-4.2,19.4-6.3,29.1c-1.9,8.6-9.1,13.3-17.7,11.4c-26-5.7-52-11.4-78-17.2c-12-2.6-24-5.3-36-8
			c-8.6-1.9-13.3-9.1-11.5-17.7c2.1-9.8,4.3-19.5,6.4-29.3c0.4-1.8,1.4-2.6,2.8-2c3.5,1.4,7.2,2.6,10.3,4.7
			c9.5,6.4,19.5,7.9,30.1,3.7c15-5.9,22.9-22.7,18.3-38.3c-4.7-15.9-20-25-36.5-22c-3.4,0.6-7.1,0.3-10.6,0.1
			c-1.9-0.1-2.6-1.4-2.2-3.5c2.1-9.5,4.1-19,6.2-28.5c2-9.2,9.1-13.7,18.3-11.6c9.4,2.1,18.8,4.2,28.2,6.2c2,0.4,2.8,1.6,2.2,3.2
			c-1.3,3.4-2.5,6.9-4.6,9.9c-8.9,12.7-8,29.5,2.7,40.8C277.3,352.2,284.8,355.4,290.7,355.5z"/>
	</g>
</g>
</svg>
