<?xml version="1.0" encoding="utf-8"?>
<!-- Generator: Adobe Illustrator 24.0.2, SVG Export Plug-In . SVG Version: 6.00 Build 0)  -->
<svg version="1.1"
	 id="svg857" inkscape:version="1.0.1 (c497b03c, 2020-09-10)" sodipodi:docname="newspaper.svg" xmlns:cc="http://creativecommons.org/ns#" xmlns:dc="http://purl.org/dc/elements/1.1/" xmlns:inkscape="http://www.inkscape.org/namespaces/inkscape" xmlns:rdf="http://www.w3.org/1999/02/22-rdf-syntax-ns#" xmlns:sodipodi="http://sodipodi.sourceforge.net/DTD/sodipodi-0.dtd" xmlns:svg="http://www.w3.org/2000/svg"
	 xmlns="http://www.w3.org/2000/svg" xmlns:xlink="http://www.w3.org/1999/xlink" x="0px" y="0px" viewBox="0 0 512 512"
	 style="enable-background:new 0 0 512 512;" xml:space="preserve">
<sodipodi:namedview  bordercolor="#666666" borderopacity="1" gridtolerance="10" guidetolerance="10" id="namedview859" inkscape:current-layer="svg857" inkscape:cx="152.5551" inkscape:cy="260.17959" inkscape:pageopacity="0" inkscape:pageshadow="2" inkscape:window-height="1049" inkscape:window-maximized="1" inkscape:window-width="1740" inkscape:window-x="0" inkscape:window-y="23" inkscape:zoom="1.4355469" objecttolerance="10" pagecolor="#ffffff" showgrid="false">
	</sodipodi:namedview>
<title  id="title851">Newspaper</title>
<g id="aYkAxC.tif">
	<g>
		<path d="M263.7,492.6c-5.3,0-10.6,0-15.8,0c-12.2-5.6-19.4-15.4-24.9-27.4c-9.7-20.7-20.8-40.7-30.3-61.4c-4-8.7-9.2-11-18.2-10.8
			c-32.1,0.5-64.2,0.4-96.3,0.1C33.5,392.6,5,363.8,5,319.1C4.9,239.9,4.9,160.7,5,81.6C5,36.5,34.1,7.2,79.2,7.1
			C197.1,7,315,7,432.9,7.2c44.2,0.1,73.9,29.6,74,73.5c0.2,79.6,0.2,159.2,0,238.8c-0.1,44-28.8,72.7-72.6,73
			c-33,0.2-66,0.3-99-0.2c-8.3-0.1-12.5,2.8-16,10.1c-10,21-19.8,42.2-31.5,62.3C281.9,475.2,271.9,483.4,263.7,492.6z M156.1,244.4
			c7.8-0.1,17.3,1.9,18.5-9.5c1.3-12,8.9-18.3,17.7-24.6c16.5-11.9,29.2-26.8,32-47.9c4.8-35.8-18.1-67-53.9-74.2
			C128.7,80,94,100,83.4,138.9c-2.1,7.8-6.4,17.1,5.8,20.6c14.8,4.3,25.6-0.1,29.1-11.1c7.7-23.6,34-33.2,55.2-20.3
			c15.1,9.2,18.9,28.5,7.3,41.9c-5.4,6.2-12.2,11.3-18.8,16.4c-12.7,9.9-20.8,22.2-22.9,38.5C137,241.6,139.2,244.4,156.1,244.4z
			 M348.2,218c17.6,0,35.2,0.1,52.7,0c13.7-0.1,21.4-6.8,21.5-17.9c0.1-11.2-7.4-18-21.2-18.1c-34.7-0.2-69.5-0.2-104.2,0
			c-13.8,0.1-21.5,7-21.6,17.9c0,10.9,8,17.9,21.3,18C313.9,218.1,331,218,348.2,218z M349.3,273.4c-18,0-36-0.2-54.1,0.1
			c-12.3,0.2-20.4,7.6-19.8,18.1c0.7,11.6,7.8,17.6,19,17.7c36,0.3,72.1,0.4,108.1,0c12.6-0.1,19.9-7.7,19.8-18.3
			c-0.2-10.8-7.4-17.3-20.3-17.5C384.5,273.3,366.9,273.4,349.3,273.4z M349.5,91c-18,0-36-0.2-54,0.1c-12.4,0.2-20.2,7.3-20.1,17.8
			c0.1,10.4,7.7,17.5,20.4,17.5c35.6,0.2,71.2,0.3,106.7,0c12.9-0.1,20-7.1,19.9-17.8c-0.1-10.9-7.2-17.3-20.2-17.4
			C384.6,90.8,367.1,91,349.5,91z M156.2,313.3c12.5,0.1,22.8-9.8,23-22.2c0.2-12.3-10.1-22.7-22.4-22.8
			c-12.6-0.1-22.5,9.7-22.7,22.3C134,303.5,143.4,313.2,156.2,313.3z"/>
	</g>
</g>
</svg>
