<?xml version="1.0" encoding="utf-8"?>
<!-- Generator: Adobe Illustrator 24.0.2, SVG Export Plug-In . SVG Version: 6.00 Build 0)  -->
<svg version="1.1" id="Layer_1" xmlns="http://www.w3.org/2000/svg" xmlns:xlink="http://www.w3.org/1999/xlink" x="0px" y="0px"
	 viewBox="0 0 512 512" style="enable-background:new 0 0 512 512;" xml:space="preserve">
<g id="hFIZYm_1_">
	<g>
		<path d="M116,300.3c8.3-8.9,16.4-18.1,25-26.7c10.3-10.2,22.6-10.5,31.2-1.5c8.2,8.6,7.4,19.8-2.7,30
			c-20.3,20.5-40.6,41-61.2,61.2c-10.9,10.7-21.1,10.6-32-0.1c-20.9-20.5-41.6-41.2-62.1-62.1c-9.4-9.6-9.8-20.7-1.9-29.1
			c8.1-8.7,20.4-8.7,30.2,0.9c9.2,9,17.6,18.9,26.3,28.4c1.2-0.8,2.5-1.6,3.7-2.3c0-12.9,0-25.8,0-38.7
			c0.2-110.5,73-198.3,181.5-217.9c37.2-6.7,73.9-3.1,112.4,11.2c-10.8,10.7-20.1,20.6-30.3,29.6c-2.1,1.8-7.3,0.7-10.9,0
			C230.3,66.6,142.8,119,119.4,209.4c-7.4,28.5-6.9,59.1-10,88.7C111.6,298.8,113.8,299.6,116,300.3z"/>
		<path d="M342.8,269.2c-22.9-23-44.8-44.9-69-69.1c27-26.2,54.7-52.7,81.9-79.5c22.4-22,44.3-44.6,66.5-66.8
			c14.5-14.5,22.5-14.4,37.4,0.4c11.4,11.4,23,22.7,34.2,34.3c8.6,8.9,9.8,19.9,1.6,28.1C444.9,167.6,393.8,218.3,342.8,269.2z"/>
		<path d="M490.8,178.4c17.2,46.3,19,90.7,6.7,135.7c-38.8,141.3-206.6,204-328.5,122.8c-4.3-2.9-8.9-6-11.7-10.2
			c-5.8-8.6-4.9-17.6,2.2-25.2c7.7-8.3,16.5-7.5,26.2-2.5c17.3,9,34.2,19.9,52.7,25.6c126,38.8,248.5-72.1,223.2-201.6
			c-1.7-8.5-0.6-14.7,6.3-20.7C475.6,195.4,482.3,187.3,490.8,178.4z"/>
		<path d="M312.5,300.4c-15,5.8-29,11.3-43.1,16.6c-12.2,4.6-24.4,9.5-36.9,13.4c-11.6,3.6-22-4.6-18.4-15.6
			c9-27.7,19.8-54.7,29.3-80.4C266.5,256.4,288.6,277.5,312.5,300.4z"/>
	</g>
</g>
</svg>
