<?xml version="1.0" encoding="utf-8"?>
<!-- Generator: Adobe Illustrator 24.0.2, SVG Export Plug-In . SVG Version: 6.00 Build 0)  -->
<svg version="1.1" id="Capa_1" xmlns="http://www.w3.org/2000/svg" xmlns:xlink="http://www.w3.org/1999/xlink" x="0px" y="0px"
	 viewBox="0 0 350 350" style="enable-background:new 0 0 350 350;" xml:space="preserve">
<g id="udxK1Y_1_">
	<g>
		<path d="M269.4,303c0,4.4,0.2,8.8,0,13.1c-0.3,7.2-3.6,9.3-10.3,6.3c-8.2-3.7-16.4-7.7-24.4-11.8c-6.1-3.1-9.9-1.3-12.2,4.9
			c-3.2,8.5-6.3,17-9.9,25.3c-2.9,6.7-6.8,7.4-12,2.2c-6.4-6.4-12.4-13.2-18.4-19.9c-4.5-5.1-8.6-5.1-13.1,0c-6,6.8-12,13.5-18.3,20
			c-5.1,5.3-9.1,4.6-12-2.1c-3.6-8.3-6.8-16.8-10-25.2c-2.4-6.3-6.2-7.9-12.3-4.8c-7.5,3.9-15.1,7.6-22.8,11.2
			c-8.6,4.1-11.6,2.1-11.8-7.6c-0.2-8.5-0.2-16.9-0.3-25.4c-0.1-6.7-3.4-9.5-10.1-8.7c-8.7,1-17.4,1.9-26.1,2.6
			c-7.7,0.6-10.4-2.8-7.9-10c2.8-8.3,6.1-16.4,9.3-24.5c2.7-6.6,1-10.6-6.1-12.4c-8.2-2.1-16.3-4.5-24.4-7c-8.7-2.6-9.8-6.3-4-13
			C17.6,210,23,203.8,28.7,198c5.6-5.7,5.6-10.2-1.2-14.9c-6.7-4.6-13.1-9.7-19.6-14.8c-7.1-5.6-6.9-9.5,1-13.6
			c7.5-4,15.1-7.7,22.7-11.4c6.2-3,8.1-7,3.9-13.2c-4.7-7-9-14.3-13.4-21.6c-4.6-7.8-3-11.2,5.8-12.2c7.8-0.9,15.7-1.5,23.5-2.5
			C62,92.4,63,91,61.2,80.1c-1.3-7.5-2.8-14.9-4.1-22.4c-1.5-8.9,1.2-11.5,9.7-9.3c7.9,2,15.8,4.3,23.6,6.4
			c9.2,2.5,11.1,1.2,12.9-8.4c1.4-7.2,2.6-14.4,4-21.5c2.3-11.4,5.5-12.5,15.2-5.4c6.1,4.5,12.3,8.9,18.2,13.7
			c5.6,4.5,9.8,3.8,13.5-2.4c4.3-7.3,8.8-14.5,13.4-21.6c4.9-7.6,8.7-7.7,13.6-0.3c4.5,6.8,8.9,13.7,13,20.8
			c3.9,6.9,8.3,8.2,14.7,2.9c6.1-5,12.5-9.6,18.8-14.3c8.4-6.1,11.6-4.9,13.6,5c1.6,7.7,3.4,15.4,4.5,23.2
			c1.1,7.9,4.7,10.7,12.6,8.1c7.8-2.5,15.7-4.7,23.6-6.8c8.7-2.3,11.6,0.2,10.3,9c-1.2,8.1-2.8,16.1-4.1,24.2
			c-1.5,9.2,0.1,11.2,9.7,12c7.8,0.7,15.7,1.3,23.5,2.2c9.1,1.1,10.8,4.4,6.3,12.1c-4.3,7.3-8.6,14.6-13.2,21.7
			c-4,6.1-2.9,10.1,3.6,13.3c7.9,3.8,15.7,7.7,23.5,11.8c6.8,3.6,7.3,7.8,1.3,12.6c-7,5.7-14.3,11.1-21.5,16.6
			c-5,3.8-5.5,7.7-1.2,12.4c6.2,6.6,12.3,13.2,18.3,20.1c5,5.8,3.9,9.8-3.5,12.2c-8.6,2.8-17.3,5.3-26,7.7
			c-6.1,1.7-7.8,5.4-5.5,11.3c3.2,8.1,6.4,16.3,9.4,24.5c3,8.2,1,11.1-7.6,10.7c-8.2-0.4-16.3-1.4-24.4-1.9
			c-9.8-0.7-11.4,0.8-11.5,10.5C269.4,294.8,269.5,298.9,269.4,303C269.4,303,269.4,303,269.4,303z M292.7,175.5
			c0.2-65-52.2-117.9-116.9-118.1C110.3,57.2,57.4,109.8,57.4,175c0,64.7,52.7,117.6,117.4,117.7
			C239.7,292.8,292.5,240.3,292.7,175.5z"/>
		<path d="M174,279.2C116.2,278.3,69.8,231,70.8,174.1c1-58.2,48.3-104.5,105.8-103.4c57.5,1,103.7,48.5,102.8,105.6
			C278.5,233.9,231.1,280.2,174,279.2z M213.8,216.3c-2.4-9-4.7-18.6-7.7-28c-1.5-5-0.6-8.2,3.5-11.3c7-5.2,13.9-10.7,20.4-16.5
			c2.1-1.9,2.9-5.1,4.3-7.8c-2.6-1.4-5.2-3.7-7.9-3.9c-8.7-0.9-17.4-1.4-26.2-1.5c-5.1-0.1-8-2-9.6-6.9c-2.8-8.3-5.8-16.5-9.3-24.5
			c-1.1-2.5-4-5.8-6.2-5.9c-2-0.1-5,3.3-6.1,5.8c-3.4,7.7-6.4,15.6-9.1,23.6c-1.8,5.5-4.9,7.9-10.8,7.8c-8.7,0-17.5,0.5-26.2,1.4
			c-2.5,0.3-6,2.1-6.7,4c-0.7,1.8,1.2,5.5,3,7.1c6.5,5.8,13.4,11.3,20.4,16.4c4.6,3.4,6.2,6.9,4.2,12.6c-2.8,8.3-5,16.8-6.8,25.3
			c-0.5,2.4,0,6.4,1.6,7.7c1.6,1.2,5.6,0.6,7.7-0.6c7.5-4.4,14.9-9.2,22-14.3c4.7-3.4,8.5-3.6,13.3-0.1c7.3,5.3,14.9,10.2,22.6,14.9
			C209.7,224.9,213.8,222.6,213.8,216.3z"/>
	</g>
</g>
</svg>
