<?xml version="1.0" encoding="utf-8"?>
<!-- Generator: Adobe Illustrator 24.0.2, SVG Export Plug-In . SVG Version: 6.00 Build 0)  -->
<svg version="1.1"
	 id="svg857" inkscape:version="1.0.1 (c497b03c, 2020-09-10)" sodipodi:docname="newspaper.svg" xmlns:cc="http://creativecommons.org/ns#" xmlns:dc="http://purl.org/dc/elements/1.1/" xmlns:inkscape="http://www.inkscape.org/namespaces/inkscape" xmlns:rdf="http://www.w3.org/1999/02/22-rdf-syntax-ns#" xmlns:sodipodi="http://sodipodi.sourceforge.net/DTD/sodipodi-0.dtd" xmlns:svg="http://www.w3.org/2000/svg"
	 xmlns="http://www.w3.org/2000/svg" xmlns:xlink="http://www.w3.org/1999/xlink" x="0px" y="0px" viewBox="0 0 512 512"
	 style="enable-background:new 0 0 512 512;" xml:space="preserve">
<sodipodi:namedview  bordercolor="#666666" borderopacity="1" gridtolerance="10" guidetolerance="10" id="namedview859" inkscape:current-layer="svg857" inkscape:cx="152.5551" inkscape:cy="260.17959" inkscape:pageopacity="0" inkscape:pageshadow="2" inkscape:window-height="1049" inkscape:window-maximized="1" inkscape:window-width="1740" inkscape:window-x="0" inkscape:window-y="23" inkscape:zoom="1.4355469" objecttolerance="10" pagecolor="#ffffff" showgrid="false">
	</sodipodi:namedview>
<title  id="title851">Newspaper</title>
<g id="d316oW.tif">
	<g>
		<path d="M391.3,89.1c6.7,0,12.6,0,18.5,0c5,0,10.1-0.2,15.1,0c8.7,0.4,13.5,5.4,13.6,14.1c0.1,12.8,0,25.6,0,38.4
			c0,2.1,0,4.3,0,7.2c7.5-0.5,14.4-0.8,21.3-1.5c11.7-1.2,17.5,3,18.4,14.7c2.1,26.9,3.8,53.9,5.8,80.8c2.4,32.5,4.8,65,7.2,97.5
			c1.9,26.2,3.8,52.4,5.7,78.6c0.8,10.6,1.7,21.2,2.2,31.8c0.4,9.1-3.6,14.1-12.6,14.9c-17.2,1.6-34.5,2.7-51.7,3.9
			c-32.9,2.4-65.7,4.9-98.6,7.2c-26.8,1.9-53.5,3.8-80.3,5.7c-27.6,2-55.3,4.1-82.9,6.1c-21.4,1.6-42.7,3.2-64.1,4.6
			c-9,0.6-14.3-4.2-15-13.1c-1.4-17.4-2.8-34.8-3.9-52.2c-0.2-3.9-1.6-4.8-5.2-4.8c-18.9,0.1-37.8,0.1-56.7,0c-9.8,0-15-5.2-15-15
			c0-100.9,0-201.8,0-302.6c0-11.9,4.3-16.4,16.2-16.5C46,89,62.7,89,79.5,89.2c4.5,0.1,5.7-1.5,6-5.9c1.2-17.6,2.7-35.2,4.3-52.7
			c0.7-7.3,6.9-12.5,14.2-11.9c30.7,2.5,61.3,5.2,92,7.8c23.5,2,47,3.9,70.5,5.8c28.2,2.4,56.3,4.8,84.5,7.2
			c9.7,0.8,19.4,1.7,29.1,2.4c9.9,0.7,14.8,6.5,14,16.5C393.1,68.2,392.3,78.1,391.3,89.1z M411.6,396.4c0-93.9,0-187.1,0-280.6
			c-124.1,0-247.8,0-371.6,0c0,93.8,0,187.1,0,280.6C164,396.4,287.6,396.4,411.6,396.4z M119.2,466.1
			c117.7-8.6,234.8-17.1,352.2-25.6c0-1.8,0.1-3,0-4.2c-1.2-18.1-2.4-36.3-3.7-54.4c-2.3-31.8-4.8-63.5-7.1-95.3
			c-2.5-33.7-4.8-67.5-7.4-101.2c-0.9-12-1.1-12-13.2-9.7c-0.3,0.1-0.6,0.4-1.4,0.9c0,1.8,0,4,0,6.1c0,74.4,0,148.7,0,223.1
			c0,13.4-4,17.5-17.3,17.5c-99.2,0-198.4,0-297.7,0c-2.3,0-4.5,0-7.5,0C117.1,437.8,118.1,451.6,119.2,466.1z M111.5,89
			c2.9,0,4.8,0,6.7,0c60,0,119.9,0,179.9,0c20.5,0,41.1,0.1,61.6-0.2c1.8,0,4.9-1.6,5.1-2.8c1-6,1.1-12.1,1.6-18.9
			c-83.9-7-167.3-14-251.4-21C113.9,60.5,112.7,74.3,111.5,89z"/>
		<path d="M161.3,262.6c11.5-5,22.5-9.8,33.5-14.6c6.6-2.8,13.2-5.7,19.9-8.4c5.9-2.4,8.2-1.3,10.3,4.6
			c17.5,47.8-17.9,99.1-68.8,100.3c-36.8,0.9-71.1-25.7-76-65c-5.1-40.9,21.3-76.6,60.9-83.7c6.6-1.2,13.6-1.1,20.4-0.8
			c6,0.3,7.3,2.7,6.5,8.7c-2.3,18.7-4.7,37.5-7,56.2C161,260.5,161.1,261,161.3,262.6z"/>
		<path d="M197.8,166.1c2.9,0.8,7.5,1.8,11.8,3.4c14.6,5.6,25.1,15.7,32.3,29.6c1.8,3.5,1.8,6-2.3,7.7
			c-16.1,6.7-32.1,13.6-48.2,20.2c-5,2.1-6.6,0.6-5.9-4.7c2-16.6,4-33.2,6.1-49.8C191.9,169.8,191.3,165.8,197.8,166.1z"/>
		<path d="M323.5,217.7c-11.9,0-23.7,0-35.6,0c-7.2,0-11.8-3.9-12-9.7c-0.2-6,4.6-10.2,12-10.2c23.7-0.1,47.5-0.1,71.2,0
			c7.5,0,12.3,4,12.3,10c0,6-4.8,9.9-12.3,10C347.2,217.8,335.4,217.7,323.5,217.7C323.5,217.7,323.5,217.7,323.5,217.7z"/>
		<path d="M323.3,334.5c-11.9,0-23.7,0-35.6,0c-7.1,0-11.7-3.8-11.8-9.8c-0.1-5.8,4.5-10,11.6-10c23.9-0.1,47.8-0.1,71.7,0
			c7.6,0,12.2,4.1,12.1,10.1c-0.1,6-4.8,9.7-12.4,9.7C347,334.5,335.2,334.5,323.3,334.5z"/>
		<path d="M324.1,275.5c-12,0-24.1,0-36.1,0c-7.7,0-12.2-3.9-12.1-9.9c0.2-5.9,4.6-9.5,11.9-9.5c23.9,0,47.8,0,71.7,0
			c7.1,0,11.7,3.8,11.8,9.7c0.1,5.9-4.4,9.7-11.7,9.8C347.8,275.5,336,275.5,324.1,275.5z"/>
	</g>
</g>
</svg>
