<?xml version="1.0" encoding="utf-8"?>
<!-- Generator: Adobe Illustrator 24.0.2, SVG Export Plug-In . SVG Version: 6.00 Build 0)  -->
<svg version="1.1"
	 id="svg857" inkscape:version="1.0.1 (c497b03c, 2020-09-10)" sodipodi:docname="newspaper.svg" xmlns:cc="http://creativecommons.org/ns#" xmlns:dc="http://purl.org/dc/elements/1.1/" xmlns:inkscape="http://www.inkscape.org/namespaces/inkscape" xmlns:rdf="http://www.w3.org/1999/02/22-rdf-syntax-ns#" xmlns:sodipodi="http://sodipodi.sourceforge.net/DTD/sodipodi-0.dtd" xmlns:svg="http://www.w3.org/2000/svg"
	 xmlns="http://www.w3.org/2000/svg" xmlns:xlink="http://www.w3.org/1999/xlink" x="0px" y="0px" viewBox="0 0 512 512"
	 style="enable-background:new 0 0 512 512;" xml:space="preserve">
<sodipodi:namedview  bordercolor="#666666" borderopacity="1" gridtolerance="10" guidetolerance="10" id="namedview859" inkscape:current-layer="svg857" inkscape:cx="152.5551" inkscape:cy="260.17959" inkscape:pageopacity="0" inkscape:pageshadow="2" inkscape:window-height="1049" inkscape:window-maximized="1" inkscape:window-width="1740" inkscape:window-x="0" inkscape:window-y="23" inkscape:zoom="1.4355469" objecttolerance="10" pagecolor="#ffffff" showgrid="false">
	</sodipodi:namedview>
<title  id="title851">Newspaper</title>
<g id="nBpiON.tif">
	<g>
		<path d="M512,285.3c-2.3,5.4-6.8,6.6-12.2,6.6c-21.1-0.1-42.3,0-63.4,0c-140.9,0-281.7,0-422.6,0c-5.7,0-11.1-0.4-13.7-6.6
			c0-8,0-16,0-23.9c2.9-4.7,7.2-6.1,12.6-6.1c162.3,0.1,324.5,0.1,486.8,0c5.5,0,9.7,1.3,12.6,6.1C512,269.3,512,277.3,512,285.3z"
			/>
		<path d="M347.9,237.2c-1.5,0-2.9,0-4.4,0c-66.8,0-133.6,0-200.5,0.1c-3.8,0-6-1.3-8.1-4.3c-16.6-23.7-26.3-49.5-24.9-78.8
			c1.3-28.3,11.8-52.9,30.6-73.9c20.9-23.4,47.8-35.2,78.2-40.5c41.7-7.3,82.2-1.2,122.3,10.4c1.3,0.4,2.5,1.1,3.8,1.2
			c11.7,0.9,15.9,7.8,16.8,18.7c1.9,23.5,4.9,46.9,6.6,70.4c1.1,14.1-0.3,14.8-14.4,13.8c-1.5-0.1-3-0.6-4.5-0.4
			c-11.7,1.8-15.7-4.6-19.1-14.7c-4-11.8-9.4-23.6-16.2-34.1c-16.1-24.9-39.8-36.9-69.5-36.8c-20.1,0.1-38.6,5-53.5,19.5
			c-20.1,19.5-21.3,49.6-3.7,71.4c12.7,15.7,29.8,24.3,48,31.1c18.5,6.9,37.7,12.1,56.1,19.3c17.9,7.1,35.1,15.8,52.6,23.8
			c1.4,0.7,2.7,1.7,4,2.6C348.2,236.5,348.1,236.8,347.9,237.2z"/>
		<path d="M283.9,310.3c39.6,0,77.7,0,116.7,0c0.5,7.5,1.2,15.1,1.4,22.6c0.7,21.9-3.2,43-11.4,63.3c-5.7,14.1-14.8,25.9-26.7,35.4
			c-20.4,16.4-42.4,29.8-68.1,36.4c-20,5.2-40.4,5.7-60.9,6.1c-31,0.7-60.1-8.2-89.3-16.9c-7-2.1-13.9-4.5-20.8-7
			c-3.8-1.4-5.8-4.2-5.8-8.4c0-29.6,0-59.2,0-88.7c0-0.5,0.2-0.9,0.6-2.3c8.8,0,17.7-0.1,26.6,0.1c1.1,0,2.6,1.8,3.1,3.1
			c3.8,8.7,7.5,17.4,10.9,26.2c13.2,34,38.4,53.9,73.6,61.2c28.6,6,55.9,1.2,80.6-14.2c18.1-11.3,29.4-28.1,30.3-50
			c1-23.7-11.8-40.2-30.7-52.4c-7.5-4.8-16-8-24.1-12C288.4,312.4,286.8,311.7,283.9,310.3z"/>
	</g>
</g>
</svg>
