<?xml version="1.0" encoding="utf-8"?>
<!-- Generator: Adobe Illustrator 24.0.2, SVG Export Plug-In . SVG Version: 6.00 Build 0)  -->
<svg version="1.1"
	 id="svg857" inkscape:version="1.0.1 (c497b03c, 2020-09-10)" sodipodi:docname="newspaper.svg" xmlns:cc="http://creativecommons.org/ns#" xmlns:dc="http://purl.org/dc/elements/1.1/" xmlns:inkscape="http://www.inkscape.org/namespaces/inkscape" xmlns:rdf="http://www.w3.org/1999/02/22-rdf-syntax-ns#" xmlns:sodipodi="http://sodipodi.sourceforge.net/DTD/sodipodi-0.dtd" xmlns:svg="http://www.w3.org/2000/svg"
	 xmlns="http://www.w3.org/2000/svg" xmlns:xlink="http://www.w3.org/1999/xlink" x="0px" y="0px" viewBox="0 0 512 512"
	 style="enable-background:new 0 0 512 512;" xml:space="preserve">
<g id="cZnMvS_1_">
	<g>
		<path d="M42.9,351.3c1.5-9.7,2.9-19.3,4.3-28.9c8.8-59,17.7-117.9,26.5-176.9c0.4-2.4,0.9-3.7,3.7-3.9
			c39.4-3.8,78.1-1.3,115.5,12.4c20.8,7.7,39.9,18.4,56.2,33.6c1.6,1.5,2.9,4.2,2.9,6.3c0.1,75.8,0.1,151.6,0.1,227.3
			c0,0.5,0,1.1,0,2.4c-78.2-32.4-157.3-38-238.4-9.7c0.4-5.6,0.6-10.6,1.3-15.6c6.1-45.6,12.1-91.2,18.5-136.8
			c3.1-22,7.1-43.9,10.4-65.9c0.6-4,1.9-5.8,6.2-5.3c3.5,0.4,7.1,0.1,11.1,0.1c-8.5,62-16.9,123.3-25.5,185.3
			c1.8-0.2,3.1-0.3,4.4-0.5c45.4-6.7,90.8-8.4,136.1,1.3c22.8,4.9,44,13.5,61.6,29.5c0.3-0.4,0.6-0.8,0.9-1.2
			c-6-5.5-11.5-11.4-17.9-16.3c-17.4-13.3-37.6-20.8-58.6-26.2c-37.5-9.6-75.6-12.5-114.2-10.9c-1.2,0.1-2.5,0.1-3.7,0.1
			C44.1,351.8,43.9,351.7,42.9,351.3z"/>
		<path d="M404.6,300.5c-67,2.3-109.8,39.2-139.8,95.3c-0.1-1-0.3-2-0.3-3c0-69.8,0-139.6,0-209.4c0-1.8,0.1-3.8,0.8-5.3
			c14.7-28.3,33.5-53.1,60.4-71c16.8-11.2,35.3-17.4,55.4-18.9c3-0.2,3.8,0.8,4.1,3.6c3.2,31.4,6.8,62.7,9.7,94.2
			c3.3,35,6.1,70.1,9.1,105.1C404.3,294.2,404.4,297.2,404.6,300.5z"/>
		<path d="M263.9,407.9c0.8-3,0.8-5.5,2-7.3c25.4-40.2,59.9-69,105.9-82.9c15-4.5,30.3-7.1,46.1-6.1c2.1,0.1,4.2,0,6.2,0
			c0.2,0,0.5-0.2,1.5-0.7c-4.7-54.4-9.4-109-14.1-164.3c5.7-0.4,11.5-0.8,17.2-1.1c7-0.4,7.4-0.5,8.4,6.6c4.2,28.6,8.8,57.1,12,85.8
			c3.9,35.4,6.6,70.8,9.9,106.3c0.1,1.2,0.1,2.4,0.2,4.3c-4.7,0-9.1-0.1-13.4,0c-41.7,1.4-82.4,7.9-121.4,23.2
			c-20.4,8-39.2,18.5-55.3,33.4c-0.8,0.8-1.7,1.4-2.6,2C266,407.3,265.6,407.4,263.9,407.9z"/>
		<path d="M265.5,423.4c4.8-8,11.1-14.8,18.3-20.6c16.1-12.9,34.8-20.7,54.5-26c34.8-9.3,70.2-10.7,105.9-8.7
			c9.4,0.5,18.8,1.6,29.4,2.5c-5.6-57.9-11.3-115.6-17-174c4.1-0.4,8.5-0.9,12.8-1c0.8,0,2.1,1.9,2.3,3.1c2.6,17,5.1,34.1,7.6,51.1
			c7.7,53,12,106.3,16.6,159.6c0.1,1.6,0.2,3.3,0.3,5.5c-1.8-0.4-3.2-0.8-4.7-1.1c-43.9-12-88.4-19.9-134.1-18.8
			c-14.4,0.3-28.8,2.2-43,4.8C296.3,403.1,279.5,410.5,265.5,423.4z"/>
	</g>
</g>
</svg>
