<?xml version="1.0" encoding="utf-8"?>
<!-- Generator: Adobe Illustrator 24.0.2, SVG Export Plug-In . SVG Version: 6.00 Build 0)  -->
<svg version="1.1" id="Capa_1" xmlns="http://www.w3.org/2000/svg" xmlns:xlink="http://www.w3.org/1999/xlink" x="0px" y="0px"
	 viewBox="0 0 350 350" style="enable-background:new 0 0 350 350;" xml:space="preserve">
<g id="qdXLta_1_">
	<g>
		<path d="M281.7,66.8c-6.8,5.2-13.6,10.4-20.3,15.7C208.6,124,155.9,165.7,103,207.2c-15.6,12.2-32.9,14.4-51.4,7.1
			c-11.2-4.5-22.4-8.7-33.5-13.2c-5.7-2.3-12.5-4.3-12.8-11.6c-0.3-7.3,6.4-9.9,11.8-12.8c38.7-20.4,77.5-40.7,116.3-61
			c63.3-33.2,126.5-66.3,189.8-99.5c5.6-2.9,11.8-7.7,17.8-3.1c6.6,4.9,2.9,12.2,1.2,18.5c-23.7,87.1-47.3,174.3-71,261.4
			c-0.6,2.2-1.3,4.4-2.2,7.4c-17.7-7.2-35.1-14.4-52.6-21.4c-22.3-9-44.6-17.9-67-26.7c-17.6-6.9-20.2-18.5-7.3-32.2
			c44.9-48,89.7-96,134.5-144c2.3-2.4,4.3-5,6.5-7.6C282.5,67.8,282.1,67.3,281.7,66.8z"/>
		<path d="M124.2,338.9c-8.8-22-17.5-43.8-26.3-65.6c-0.5-1.2-1.3-2.3-1.4-3.5c-0.2-4.8-0.2-9.7-0.2-14.5c4.9,0,10.1-1.2,14.5,0.2
			c10.2,3.3,20,7.7,29.8,12c14.4,6.3,18.6,19.4,10.2,32.7c-8.1,12.7-16.6,25.2-25,37.7C125.6,338.3,125,338.4,124.2,338.9z"/>
	</g>
</g>
</svg>
