<?xml version="1.0" encoding="utf-8"?>
<!-- Generator: Adobe Illustrator 24.0.2, SVG Export Plug-In . SVG Version: 6.00 Build 0)  -->
<svg version="1.1" id="Capa_1" xmlns="http://www.w3.org/2000/svg" xmlns:xlink="http://www.w3.org/1999/xlink" x="0px" y="0px"
	 viewBox="0 0 350 350" style="enable-background:new 0 0 350 350;" xml:space="preserve">
<g id="uOR3Lj.tif">
	<g>
		<path d="M231.6,303.3c0.2-3.8,0.2-7.7,0.9-11.4c1.9-8.8,6.7-16.1,12.2-23.1c6.3-8,14.2-14.2,21.8-20.8c4.9-4.3,9.5-9.1,13.7-14.2
			c2.9-3.4,3.8-7.8,3.1-12.3c-0.6-4.3-3.9-7.5-8.1-8.4c-4.9-1.1-9.5,0.6-11.9,4.5c-1.2,1.8-1.8,3.8-2.9,6.2
			c-8.9-1.4-18-2.9-27.4-4.4c3-11.6,8.8-20.7,19.8-25.6c12.3-5.4,25-6,37.7-1.6c16.8,5.8,25.3,22.1,21.4,39.5
			c-1.5,6.5-4.4,12.3-9.2,16.8c-7.2,6.7-14.6,12.9-21.9,19.4c-3,2.7-6.1,5.4-9,8.2c-0.9,0.9-1.6,2.1-2.7,3.4
			c1.2,0.2,1.7,0.2,2.4,0.3c13.8,0,27.7,0,41.6,0c0.7,0,1.3-0.2,2-0.2c0,7.9,0,15.9,0,23.8C287.1,303.3,259.3,303.3,231.6,303.3z"/>
		<path d="M228.2,273c-12.1,0-23.9,0-35.8,0c-0.3-0.8-0.7-1.6-1-2.6c-5.2-15-10.5-29.9-15.6-44.9c-0.7-2.1-1.7-2.8-3.9-2.8
			c-26.6,0.1-53.2,0.1-79.7,0c-2.2,0-3.1,0.7-3.9,2.8c-5,14.8-10.1,29.6-15.2,44.4c-0.3,1-0.7,2-1.2,3c-11.9,0-23.8,0-36,0
			c0.4-1.2,0.7-2.1,1.1-3c26.6-73,53.2-146,79.7-219c0.7-2.1,1.6-2.9,3.9-2.8c7.7,0.2,15.6,0.1,23.3,0c1.8,0,2.7,0.4,3.4,2.2
			c26.7,73.6,53.5,147.1,80.3,220.6C227.7,271.6,227.9,272.1,228.2,273z M132.5,94.6c-0.2,0-0.5,0.1-0.7,0.1
			c-10.8,32.5-21.6,65-32.4,97.8c22,0,43.6,0,65.7,0C154.1,159.6,143.3,127.1,132.5,94.6z"/>
	</g>
</g>
</svg>
