<?xml version="1.0" encoding="utf-8"?>
<!-- Generator: Adobe Illustrator 24.0.2, SVG Export Plug-In . SVG Version: 6.00 Build 0)  -->
<svg version="1.1" id="Capa_1" xmlns="http://www.w3.org/2000/svg" xmlns:xlink="http://www.w3.org/1999/xlink" x="0px" y="0px"
	 viewBox="0 0 350 350" style="enable-background:new 0 0 350 350;" xml:space="preserve">
<g id="uOR3Lj.tif">
	<g>
		<path d="M243.7,152.7c0.3-4.6,0.2-9.3,1.1-13.8c2.3-10.7,8.2-19.6,14.8-28.1c7.6-9.7,17.2-17.3,26.5-25.3
			c6-5.2,11.5-11.1,16.6-17.2c3.5-4.1,4.6-9.5,3.8-15c-0.7-5.2-4.7-9.1-9.9-10.2c-6-1.3-11.5,0.7-14.5,5.5c-1.4,2.2-2.2,4.6-3.5,7.5
			c-10.8-1.7-21.9-3.5-33.3-5.4c3.6-14.1,10.7-25.2,24-31.1c14.9-6.6,30.4-7.3,45.8-2c20.4,7,30.7,26.8,26,48
			c-1.8,7.9-5.4,14.9-11.2,20.4c-8.7,8.1-17.8,15.7-26.6,23.6c-3.7,3.3-7.4,6.6-10.9,10c-1.1,1.1-2,2.5-3.3,4.1
			c1.4,0.2,2.1,0.3,2.9,0.4c16.8,0,33.7,0,50.5,0c0.8,0,1.6-0.2,2.4-0.3c0,9.6,0,19.3,0,28.9C311.1,152.7,277.4,152.7,243.7,152.7z"
			/>
		<path d="M239.5,327.9c-14.7,0-29,0-43.5,0c-0.4-1-0.8-2-1.2-3.1c-6.3-18.2-12.7-36.3-18.9-54.6c-0.9-2.6-2.1-3.4-4.7-3.4
			c-32.3,0.1-64.6,0.1-96.9,0c-2.7,0-3.8,0.9-4.7,3.4c-6.1,18-12.3,36-18.5,54c-0.4,1.2-0.9,2.4-1.4,3.6c-14.5,0-28.9,0-43.7,0
			c0.5-1.4,0.8-2.5,1.3-3.6c32.3-88.7,64.6-177.4,96.9-266.1c0.9-2.5,1.9-3.5,4.7-3.4c9.4,0.2,18.9,0.1,28.3,0
			c2.2,0,3.3,0.5,4.1,2.7c32.5,89.4,65,178.7,97.6,268.1C239,326.2,239.2,326.9,239.5,327.9z M123.3,111.2c-0.3,0-0.6,0.1-0.9,0.1
			c-13.1,39.5-26.2,79-39.4,118.8c26.7,0,53,0,79.8,0C149.5,190.1,136.4,150.7,123.3,111.2z"/>
	</g>
</g>
</svg>
