<?xml version="1.0" encoding="utf-8"?>
<!-- Generator: Adobe Illustrator 24.0.2, SVG Export Plug-In . SVG Version: 6.00 Build 0)  -->
<svg version="1.1" id="Capa_1" xmlns="http://www.w3.org/2000/svg" xmlns:xlink="http://www.w3.org/1999/xlink" x="0px" y="0px"
	 viewBox="0 0 350 350" style="enable-background:new 0 0 350 350;" xml:space="preserve">
<g id="uOR3Lj.tif">
	<g>
		<path d="M230.9,156.1c0.2-3.7,0.2-7.6,0.9-11.2c1.9-8.7,6.7-15.9,12-22.8c6.2-7.9,14-14.1,21.5-20.6c4.9-4.2,9.3-9,13.5-14
			c2.8-3.3,3.7-7.7,3.1-12.2c-0.6-4.2-3.8-7.4-8-8.3c-4.9-1.1-9.3,0.6-11.8,4.5c-1.1,1.8-1.8,3.7-2.8,6.1
			c-8.8-1.4-17.8-2.8-27.1-4.4c2.9-11.5,8.7-20.5,19.5-25.3c12.1-5.4,24.7-5.9,37.2-1.6c16.6,5.7,25,21.8,21.1,39
			c-1.5,6.4-4.4,12.1-9.1,16.6c-7.1,6.6-14.5,12.8-21.6,19.2c-3,2.7-6,5.4-8.9,8.1c-0.9,0.9-1.6,2-2.7,3.3c1.1,0.2,1.7,0.2,2.4,0.3
			c13.7,0,27.4,0,41.1,0c0.7,0,1.3-0.2,2-0.2c0,7.8,0,15.7,0,23.5C285.7,156.1,258.3,156.1,230.9,156.1z"/>
		<path d="M227.5,298.5c-12,0-23.6,0-35.4,0c-0.3-0.8-0.7-1.6-1-2.5c-5.1-14.8-10.3-29.5-15.4-44.4c-0.7-2.1-1.7-2.8-3.8-2.8
			c-26.3,0.1-52.5,0.1-78.8,0c-2.2,0-3.1,0.7-3.8,2.8c-5,14.6-10,29.3-15,43.9c-0.3,1-0.7,2-1.1,2.9c-11.8,0-23.5,0-35.5,0
			c0.4-1.1,0.7-2,1.1-2.9C65,223.4,91.3,151.3,117.5,79.2c0.7-2,1.5-2.8,3.8-2.8c7.6,0.2,15.4,0.1,23,0c1.8,0,2.7,0.4,3.3,2.2
			c26.4,72.7,52.8,145.3,79.3,218C227.1,297.2,227.3,297.7,227.5,298.5z M133.1,122.4c-0.2,0-0.5,0.1-0.7,0.1
			c-10.6,32.1-21.3,64.2-32,96.6c21.7,0,43.1,0,64.9,0C154.4,186.5,143.7,154.5,133.1,122.4z"/>
	</g>
</g>
</svg>
