<?xml version="1.0" encoding="utf-8"?>
<!-- Generator: Adobe Illustrator 24.0.2, SVG Export Plug-In . SVG Version: 6.00 Build 0)  -->
<svg version="1.1"
	 id="svg857" inkscape:version="1.0.1 (c497b03c, 2020-09-10)" sodipodi:docname="newspaper.svg" xmlns:cc="http://creativecommons.org/ns#" xmlns:dc="http://purl.org/dc/elements/1.1/" xmlns:inkscape="http://www.inkscape.org/namespaces/inkscape" xmlns:rdf="http://www.w3.org/1999/02/22-rdf-syntax-ns#" xmlns:sodipodi="http://sodipodi.sourceforge.net/DTD/sodipodi-0.dtd" xmlns:svg="http://www.w3.org/2000/svg"
	 xmlns="http://www.w3.org/2000/svg" xmlns:xlink="http://www.w3.org/1999/xlink" x="0px" y="0px" viewBox="0 0 512 512"
	 style="enable-background:new 0 0 512 512;" xml:space="preserve">
<sodipodi:namedview  bordercolor="#666666" borderopacity="1" gridtolerance="10" guidetolerance="10" id="namedview859" inkscape:current-layer="svg857" inkscape:cx="152.5551" inkscape:cy="260.17959" inkscape:pageopacity="0" inkscape:pageshadow="2" inkscape:window-height="1049" inkscape:window-maximized="1" inkscape:window-width="1740" inkscape:window-x="0" inkscape:window-y="23" inkscape:zoom="1.4355469" objecttolerance="10" pagecolor="#ffffff" showgrid="false">
	</sodipodi:namedview>
<title  id="title851">Newspaper</title>
<g id="EOYDzi_1_">
	<g>
		<path d="M0,297.9c0-5.3,0-10.6,0-15.9c5.1-7.8,9-16.6,15.4-23.1C76.5,197.3,138,136.1,199.3,74.7c12.7-12.8,27.6-19.1,45.8-18.7
			c30.3,0.6,60.6,0.4,90.9,0.8c9.1,0.1,18.2,0.5,27.2,1.7c14.2,1.8,27.2,9.5,30,22.7c3.9,19.1,17.7,23.3,31.8,29.9
			c13,6,25.7,13,37.5,21c22.5,15.3,42.1,33.5,49.6,61.1c0,4.6,0,9.1,0,13.7c-5.4,17.4-16.8,29.1-34.5,32.4
			c-13.6,2.5-27.8,3.3-41.6,2.8c-13.1-0.5-26-3.8-38.3-5.8c-5.7,7.1-10.5,14.5-16.5,20.6c-61.3,61.5-122.7,122.9-184.2,184.3
			c-19.9,19.9-42,19.8-61.9,0c-38.7-38.6-77.5-77-115.7-116C11.6,317.3,6.4,307,0,297.9z M329.9,171.2c26,11.2,49.5,23.9,74.6,31.3
			c19.1,5.6,40.1,6,60.3,6c13.7,0,17.4-8,10.2-18.7c-18.3-27.1-45.8-41.5-76.4-54.6c0,16.2,0,30.3,0,46.6
			c-14.3-6.7-26.8-12.6-39.4-18.5c-10.9-5.1-18.9-11.2-20.6-25.2c-1.9-15.1-17.8-25.2-32.6-24.2c-15,1-28.5,13.1-30.5,27.6
			c-2.2,15.5,6.1,29.8,20.4,35.6C309.9,182.8,321.7,177.7,329.9,171.2z"/>
	</g>
</g>
</svg>
