<?xml version="1.0" encoding="utf-8"?>
<!-- Generator: Adobe Illustrator 24.0.2, SVG Export Plug-In . SVG Version: 6.00 Build 0)  -->
<svg version="1.1" id="Capa_1" xmlns="http://www.w3.org/2000/svg" xmlns:xlink="http://www.w3.org/1999/xlink" x="0px" y="0px"
	 viewBox="0 0 350 350" style="enable-background:new 0 0 350 350;" xml:space="preserve">
<g id="_x34_Kdzqo.tif">
	<g>
		<path d="M345,199.2c-1.5,5.1-3.3,10.4-8.4,12.9c-3.3,1.7-7.3,3-10.9,3c-68.7,0.2-137.5,0.2-206.2,0.1c-11.6,0-18.9-7.5-19-19.2
			c-0.1-15.6-0.1-31.2,0-46.8c0.1-11.6,7.6-19,19.1-19c68.6,0,137.3,0,205.9,0c9.9,0,16.4,5.1,18.9,14.7c0.2,0.7,0.4,1.3,0.6,2
			C345,164.4,345,181.8,345,199.2z"/>
		<path d="M345,84.6c-0.8,2.2-1.4,4.6-2.6,6.7c-3.1,5.7-8,8.8-14.6,9.3c-1.2,0.1-2.4,0.1-3.6,0.1c-67.8,0-135.6,0-203.3,0.1
			c-8.2,0-14.8-2.6-18.5-10.2c-1.3-2.6-1.9-5.8-1.9-8.7c-0.2-15.7-0.2-31.4-0.1-47.1c0.1-11.6,7.6-19,19.2-19
			c68.6,0,137.3,0,205.9,0c9.9,0,16.4,5.2,18.8,14.7c0.2,0.7,0.4,1.3,0.6,2C345,49.8,345,67.2,345,84.6z"/>
		<path d="M345,318.2c-0.9,2.5-1.4,5.1-2.7,7.4c-3.1,5.7-8.1,8.7-14.6,9.2c-1,0.1-1.9,0.1-2.9,0.1c-68.1,0-136.3,0-204.4,0
			c-10.1,0-17-4.8-19.3-13.6c-0.5-2-0.6-4.1-0.6-6.1c0-15.1-0.1-30.2,0-45.3c0-12.8,7.2-19.9,20.1-19.9c68,0,136,0,204.1,0
			c11.2,0,16,3.8,20.4,16.1C345,283.4,345,300.8,345,318.2z"/>
	</g>
</g>
<circle cx="40.7" cy="58.3" r="29.7"/>
<circle cx="40.7" cy="172.7" r="29.7"/>
<circle cx="40.7" cy="292.5" r="29.7"/>
</svg>
