<?xml version="1.0" encoding="utf-8"?>
<!-- Generator: Adobe Illustrator 24.0.2, SVG Export Plug-In . SVG Version: 6.00 Build 0)  -->
<svg version="1.1" id="Capa_1" xmlns="http://www.w3.org/2000/svg" xmlns:xlink="http://www.w3.org/1999/xlink" x="0px" y="0px"
	 viewBox="0 0 350 350" style="enable-background:new 0 0 350 350;" xml:space="preserve">
<g id="_x34_Kdzqo.tif">
	<g>
		<path d="M311.5,194.4c-1.2,4.1-2.6,8.3-6.7,10.3c-2.6,1.4-5.8,2.4-8.7,2.4c-54.9,0.2-109.9,0.2-164.9,0.1c-9.3,0-15.1-6-15.2-15.4
			c-0.1-12.5-0.1-24.9,0-37.4c0.1-9.3,6.1-15.2,15.3-15.2c54.8,0,109.8,0,164.6,0c7.9,0,13.1,4.1,15.1,11.8c0.2,0.6,0.3,1,0.5,1.6
			C311.5,166.6,311.5,180.5,311.5,194.4z"/>
		<path d="M311.5,102.8c-0.6,1.8-1.1,3.7-2.1,5.4c-2.5,4.6-6.4,7-11.7,7.4c-1,0.1-1.9,0.1-2.9,0.1c-54.2,0-108.4,0-162.5,0.1
			c-6.6,0-11.8-2.1-14.8-8.2c-1-2.1-1.5-4.6-1.5-7c-0.2-12.6-0.2-25.1-0.1-37.7c0.1-9.3,6.1-15.2,15.4-15.2c54.8,0,109.8,0,164.6,0
			c7.9,0,13.1,4.2,15,11.8c0.2,0.6,0.3,1,0.5,1.6C311.5,75,311.5,88.9,311.5,102.8z"/>
		<path d="M311.5,289.6c-0.7,2-1.1,4.1-2.2,5.9c-2.5,4.6-6.5,7-11.7,7.4c-0.8,0.1-1.5,0.1-2.3,0.1c-54.4,0-109,0-163.4,0
			c-8.1,0-13.6-3.8-15.4-10.9c-0.4-1.6-0.5-3.3-0.5-4.9c0-12.1-0.1-24.1,0-36.2c0-10.2,5.8-15.9,16.1-15.9c54.4,0,108.7,0,163.2,0
			c9,0,12.8,3,16.3,12.9C311.5,261.7,311.5,275.6,311.5,289.6z"/>
	</g>
</g>
<circle cx="68.2" cy="81.8" r="23.7"/>
<circle cx="68.2" cy="173.2" r="23.7"/>
<circle cx="68.2" cy="269" r="23.7"/>
</svg>
