<?xml version="1.0" encoding="utf-8"?>
<!-- Generator: Adobe Illustrator 24.0.2, SVG Export Plug-In . SVG Version: 6.00 Build 0)  -->
<svg version="1.1" id="Capa_1" xmlns="http://www.w3.org/2000/svg" xmlns:xlink="http://www.w3.org/1999/xlink" x="0px" y="0px"
	 viewBox="0 0 350 350" style="enable-background:new 0 0 350 350;" xml:space="preserve">
<g id="KYui56_1_">
	<g>
		<path d="M120.5,47.4c0,39.3,0,78.5,0,117.9c0,14.3,6.7,25.2,17.5,33.9c23.8,19.1,63.4,15.3,82.4-8c6-7.4,9.3-15.8,9.3-25.5
			c0-39.4,0-78.8,0-118.2c12.3,0,24.6,0,36.9,0c-0.1,7.2-0.3,14.3-0.3,21.5c0,30.8-0.5,61.6,0.2,92.3c0.9,47.4-35.2,78.7-74.3,85
			c-28.6,4.7-54.8-1.2-77.7-19.4c-20.4-16.3-30.6-37.7-30.6-63.8c0-36.6,0-73.3,0-109.9c0-1.9-0.2-3.8-0.2-5.7
			C95.8,47.4,108.1,47.4,120.5,47.4z"/>
		<path d="M83.5,302.6c0-11.9,0-24,0-36.2c61.2,0,121.7,0,183,0c0,12.2,0,24.3,0,36.2C205.5,302.6,144.5,302.6,83.5,302.6z"/>
	</g>
</g>
</svg>
