<?xml version="1.0" encoding="utf-8"?>
<!-- Generator: Adobe Illustrator 24.0.2, SVG Export Plug-In . SVG Version: 6.00 Build 0)  -->
<svg version="1.1" id="Capa_1" xmlns="http://www.w3.org/2000/svg" xmlns:xlink="http://www.w3.org/1999/xlink" x="0px" y="0px"
	 viewBox="0 0 350 350" style="enable-background:new 0 0 350 350;" xml:space="preserve">
<g id="KYui56_1_">
	<g>
		<path d="M102.4,5.1c0,52.3,0,104.6,0,157c0,19.1,8.9,33.5,23.3,45.1c31.7,25.5,84.4,20.4,109.7-10.6c8-9.8,12.4-21.1,12.4-33.9
			c0-52.5,0-105,0-157.5c16.4,0,32.8,0,49.2,0c-0.1,9.6-0.4,19.1-0.4,28.7c0,41-0.6,82,0.2,123c1.2,63.2-46.9,104.8-98.9,113.2
			c-38.1,6.2-73-1.6-103.5-25.9c-27.2-21.7-40.7-50.2-40.7-85c0-48.8,0-97.6,0-146.4c0-2.5-0.2-5.1-0.3-7.6
			C69.5,5.1,85.9,5.1,102.4,5.1z"/>
		<path d="M53.1,344.9c0-15.9,0-31.9,0-48.2c81.5,0,162.1,0,243.7,0c0,16.3,0,32.3,0,48.2C215.6,344.9,134.4,344.9,53.1,344.9z"/>
	</g>
</g>
</svg>
