<?xml version="1.0" encoding="utf-8"?>
<!-- Generator: Adobe Illustrator 24.0.2, SVG Export Plug-In . SVG Version: 6.00 Build 0)  -->
<svg version="1.1" id="Capa_1" xmlns="http://www.w3.org/2000/svg" xmlns:xlink="http://www.w3.org/1999/xlink" x="0px" y="0px"
	 viewBox="0 0 350 350" style="enable-background:new 0 0 350 350;" xml:space="preserve">
<g id="f7TYLg_1_">
	<g>
		<path d="M130.1,135.3c34.3,0,68.6,0,102.9,0c4.8,0,9.3,0.9,13.1,4c2.5,2,3.8,4.6,3.8,7.8c0,48.6,0,97.3,0,145.9
			c0,3.9-1.7,6.9-4.9,8.6c-2.9,1.5-6.3,2.3-9.5,3.2c-1.1,0.3-2.4,0.1-3.6,0.1c-67.9,0-135.9,0-203.8-0.1c-3.7,0-7.7-0.9-11.1-2.2
			c-4.4-1.7-6.6-5.3-6.6-10.4c0.1-48.2,0.1-96.4,0-144.6c0-4.4,1.9-7.5,5.6-9.7c3.4-2.1,7.1-2.7,11-2.7
			C61.3,135.4,95.7,135.3,130.1,135.3z M187.7,220.2c-28.9-16.7-57.4-33.2-86.2-49.8c0,33.4,0,66.2,0,99.6
			C130.3,253.3,158.7,236.9,187.7,220.2z"/>
		<path d="M339.6,219.9c0,29.4,0,58.7-0.1,88.1c0,2.1-0.5,4.4-1.4,6.3c-2.7,5.7-8.7,7.5-13.7,3.7c-7-5.3-13.9-10.8-20.2-16.8
			c-14.5-14-28.7-28.4-43-42.8c-0.9-0.9-1.5-2.5-1.5-3.8c-0.1-23.1-0.1-46.3,0-69.4c0-0.8,0.3-1.9,0.9-2.5
			c19-19.9,37.7-40.2,59.2-57.4c1.6-1.3,3.3-2.4,5-3.4c6.9-3.8,14.4,0.5,14.7,8.3c0.1,2.6,0,5.1,0,7.7
			C339.6,165.2,339.6,192.5,339.6,219.9z"/>
		<path d="M180.2,129.7c-27.2,0.3-49.9-22-50.1-49.5c-0.3-27.3,21.8-50,48.9-50.3c27.8-0.3,50.6,21.4,50.9,48.5
			C230.2,106.9,208.4,129.4,180.2,129.7z"/>
		<path d="M70.8,129.7c-21.3,0.8-39.7-16.9-40.5-38.9c-0.8-21.6,16.6-40.2,38.3-41c22.1-0.8,40.7,16.3,41.6,38.3
			C111,110.6,93.7,128.9,70.8,129.7z"/>
	</g>
</g>
</svg>
