<?xml version="1.0" encoding="utf-8"?>
<!-- Generator: Adobe Illustrator 24.0.2, SVG Export Plug-In . SVG Version: 6.00 Build 0)  -->
<svg version="1.1" id="Capa_1" xmlns="http://www.w3.org/2000/svg" xmlns:xlink="http://www.w3.org/1999/xlink" x="0px" y="0px"
	 viewBox="0 0 490.7 490.7" style="enable-background:new 0 0 490.7 490.7;" xml:space="preserve">
<g id="gxnXAV.tif">
	<g>
		<path d="M467.9,245.4c0.8,121.7-98.7,221.5-221.6,222.3C124.2,468.6,24,369.4,23.3,247C22.5,123.8,121.1,23.7,244,23
			C367.7,22.3,467.1,121,467.9,245.4z M245.6,60C144.3,59.9,60.4,142.7,60.3,242.8c-0.1,104.4,81.9,187.7,184.9,187.8
			c102.2,0.1,185.6-82.8,185.6-184.6C430.8,143,348.2,60.1,245.6,60z"/>
		<path d="M245.6,263.8c48,0.1,89.4,29.8,105,75.4c4.1,11.8-0.2,22-10.8,25.6c-10.2,3.5-20-1.9-24.1-13.3
			c-9.6-26.5-28.1-43.1-55.7-49c-36.5-7.8-73,13.5-84.8,49.1c-2.7,8.1-7.7,13.2-16.2,14.1c-13.6,1.4-23.4-10.9-19.2-24.2
			c9.5-30.3,28.8-52.4,57.2-66.5C212.2,267.3,228.6,263.8,245.6,263.8z"/>
		<path d="M320,208.2c-20.7,0.1-37.1-16-37.3-36.8c-0.2-20.6,16.1-37.2,36.7-37.4c20.7-0.1,37.3,16.4,37.3,37.3
			C356.7,191.6,340.3,208.1,320,208.2z"/>
		<path d="M171.5,208.2c-20.5,0.1-37-16.3-37.2-37c-0.2-20.4,16.6-37.2,37-37.2c20.5,0,36.9,16.3,37.1,37
			C208.7,191.5,192.1,208.1,171.5,208.2z"/>
	</g>
</g>
</svg>
