<?xml version="1.0" encoding="utf-8"?>
<!-- Generator: Adobe Illustrator 24.0.2, SVG Export Plug-In . SVG Version: 6.00 Build 0)  -->
<svg version="1.1"
	 id="svg857" inkscape:version="1.0.1 (c497b03c, 2020-09-10)" sodipodi:docname="newspaper.svg" xmlns:cc="http://creativecommons.org/ns#" xmlns:dc="http://purl.org/dc/elements/1.1/" xmlns:inkscape="http://www.inkscape.org/namespaces/inkscape" xmlns:rdf="http://www.w3.org/1999/02/22-rdf-syntax-ns#" xmlns:sodipodi="http://sodipodi.sourceforge.net/DTD/sodipodi-0.dtd" xmlns:svg="http://www.w3.org/2000/svg"
	 xmlns="http://www.w3.org/2000/svg" xmlns:xlink="http://www.w3.org/1999/xlink" x="0px" y="0px" viewBox="0 0 512 512"
	 style="enable-background:new 0 0 512 512;" xml:space="preserve">
<sodipodi:namedview  bordercolor="#666666" borderopacity="1" gridtolerance="10" guidetolerance="10" id="namedview859" inkscape:current-layer="svg857" inkscape:cx="152.5551" inkscape:cy="260.17959" inkscape:pageopacity="0" inkscape:pageshadow="2" inkscape:window-height="1049" inkscape:window-maximized="1" inkscape:window-width="1740" inkscape:window-x="0" inkscape:window-y="23" inkscape:zoom="1.4355469" objecttolerance="10" pagecolor="#ffffff" showgrid="false">
	</sodipodi:namedview>
<title  id="title851">Newspaper</title>
<g id="Pb6Aij.tif">
	<g>
		<path d="M503,331.2c-1.2,5.8-2.2,11.6-3.8,17.3c-11.8,42.8-50.5,73-94.9,73.1c-98.9,0.3-197.8,0.3-296.7,0
			c-49.6-0.2-91.4-37.7-97.8-86.7c-0.2-1.2-0.6-2.5-0.9-3.7c0-6.4,0-12.8,0-19.3c0.8-4.1,1.5-8.2,2.4-12.2
			c7.9-35.9,37.1-70,83.1-77.7c0.5-2.4,1-5.1,1.5-7.7c12-52.9,65.2-86.7,118.4-75.5c1.5,0.3,4-0.8,5-2c19.8-24.8,45.4-39.7,76.7-45
			c58.1-10,119.1,29.6,133.4,86.6c2.3,9.2-1.7,16.8-9.9,19c-9.7,2.6-16.5-1.5-19.5-11.2c-10.9-35.8-35.1-57.9-71.8-63.5
			c-37.6-5.8-67.6,8.6-88.7,40.5c-6,9-12.3,11.5-22.5,8c-42.9-14.5-88.2,16.3-90.5,61.6c-0.2,3.6-0.4,7.5-1.9,10.8
			c-2.8,6.3-8.4,8.7-15.3,8.8c-30.5,0.6-56.5,20.6-65.1,49.7c-13,44.1,19.7,88.8,65.7,88.9c98.4,0.2,196.8,0.2,295.2,0
			c36.9-0.1,65.7-28.2,68.4-66.1c2.5-34.2-23.4-65.9-58.4-71.5c-13.4-2.2-19.3-14.5-11.8-24.8c3.9-5.4,9.2-7.1,15.7-6.1
			c23.3,3.8,42.7,14.6,58.3,32.1c13.8,15.5,22.1,33.7,24.8,54.3c0.1,1.1,0.6,2.1,0.9,3.2C503,318.3,503,324.8,503,331.2z"/>
		<path d="M268.1,267.6c31.7,0,63.3,0,95,0c7.4,0,13.1,3.8,15.4,10.1c2.3,6.1,0.7,13-4.7,16.8c-2.8,2-6.7,3.7-10.1,3.7
			c-64.1,0.2-128.3,0.2-192.4,0.1c-9,0-15.7-7-15.7-15.5c0.1-8.5,6.9-15.2,16-15.2C203.8,267.6,235.9,267.6,268.1,267.6z"/>
		<path d="M240.6,360.1c-22.5,0-45,0-67.5,0c-10.2,0-17.3-6.3-17.4-15.3c-0.1-9.1,7-15.5,17.1-15.5c45.2,0,90.3,0,135.5,0
			c10.1,0,17.2,6.5,17.1,15.5c-0.1,9-7.1,15.3-17.4,15.3C285.6,360.1,263.1,360.1,240.6,360.1z"/>
		<path d="M205.8,206c11.2,0,22.5,0,33.7,0c9.4,0.1,16.3,6.6,16.4,15.3c0.1,8.7-6.8,15.5-16.2,15.5c-22.7,0.1-45.3,0.1-68,0
			c-9.3,0-16.2-6.8-16.2-15.5c0.1-8.7,7-15.2,16.4-15.3C183.3,205.9,194.6,206,205.8,206z"/>
		<path d="M297.8,236.9c-2.1-0.1-4.2,0-6.2-0.4c-7.7-1.6-13.1-8.8-12.4-16.5c0.7-7.5,7.1-13.5,14.8-13.9c2.9-0.1,5.8-0.1,8.7,0
			c8.4,0.3,14.9,7,15,15.1c0.1,8.4-6.5,15.2-15.1,15.6c-1.6,0.1-3.2,0-4.8,0C297.8,236.8,297.8,236.9,297.8,236.9z"/>
	</g>
</g>
</svg>
