<?xml version="1.0" encoding="utf-8"?>
<!-- Generator: Adobe Illustrator 24.0.2, SVG Export Plug-In . SVG Version: 6.00 Build 0)  -->
<svg version="1.1" id="Layer_1" xmlns="http://www.w3.org/2000/svg" xmlns:xlink="http://www.w3.org/1999/xlink" x="0px" y="0px"
	 viewBox="0 0 600 220.5" style="enable-background:new 0 0 600 220.5;" xml:space="preserve">
<style type="text/css">
	.st0{fill:#003566;}
	.st1{fill-rule:evenodd;clip-rule:evenodd;fill:#FFC300;}
	.st2{fill:#001D3D;}
	.st3{fill:none;}
	.st4{fill:#FFC300;}
	.st5{font-family:'Ubuntu-Bold';}
	.st6{font-size:66.3797px;}
</style>
<rect class="st0" width="600" height="220.5"/>
<polygon class="st1" points="100.9,154.7 46.1,99.7 46.1,65.6 134.8,154.7 "/>
<polygon class="st1" points="46.5,120.3 101.7,65.6 135.8,65.6 46.5,154.1 "/>
<polygon class="st1" points="45.9,65.3 80.3,65.3 45.9,99.5 "/>
<polygon class="st1" points="46.1,155.2 46.1,120.8 80.4,155.2 "/>
<path class="st2" d="M47.3,100.9c6.8-4.5,13.6-9.1,20.4-13.6L63,82.6c-5.7,5.6-11.4,11.3-17,16.9l0.4,0.4
	C46.4,99.9,47.3,100.9,47.3,100.9z"/>
<path class="st2" d="M49.3,99.5"/>
<path class="st2" d="M50.5,155.2c5.9-4.1,11.8-8.1,17.8-12.2c-1.7-1.7-3.5-3.5-5.2-5.2c-5.6,5.8-11.3,11.6-16.9,17.4
	c0.1,0,0.2,0,0.2,0C47.7,155.2,49.1,155.2,50.5,155.2z"/>
<path class="st2" d="M32.1,129.3"/>
<path class="st2" d="M80.7,134.4c6.7-4.6,13.4-9.2,20.1-13.8c-3.3-3.4-6.7-6.9-10-10.3c-5.7,5.7-11.5,11.4-17.2,17
	c0.7,0.7,1.3,1.3,2,2C77.3,131,79,132.7,80.7,134.4z"/>
<line class="st3" x1="48.9" y1="155.2" x2="58.3" y2="145.8"/>
<text transform="matrix(1 0 0 1 180.0591 129.3351)" class="st4 st5 st6">KnowledgeN</text>
</svg>
